<svg width="504" height="469" viewBox="0 0 504 469" fill="none" xmlns="http://www.w3.org/2000/svg">
<g clip-path="url(#clip0)">
<path d="M131.365 167.457C131.365 167.457 135.573 144.123 156.056 138.751C181.364 132.104 220.51 132.517 255.847 145.119C272.971 151.22 265.003 163.871 272.971 173.193" fill="#261F17"/>
<path d="M199.677 92.4257C251.172 79.8032 290.248 58.6403 286.958 45.157C283.667 31.6737 239.255 30.9759 187.76 43.5984C136.266 56.2209 97.1892 77.3838 100.48 90.8671C103.771 104.35 148.183 105.048 199.677 92.4257Z" fill="#BBAFA0"/>
<path d="M182.031 139.71L181.376 155.339C181.376 155.339 196.826 190.243 202.707 190.486C220.813 191.251 225.093 170.956 227.058 161.926C229.047 152.896 221.007 147.391 223.796 141.436" fill="#6B4E48"/>
<path d="M237.135 52.5981C236.444 51.9175 235.814 51.2734 235.898 50.2282C235.959 49.414 236.347 48.624 236.444 47.7976C236.614 46.2906 236.19 44.7594 235.341 43.5076C234.322 42.0128 232.515 41.393 231.521 39.9468C231.036 39.2297 230.162 39.2905 229.641 39.7037C229.508 39.6186 229.362 39.57 229.204 39.5579C229.047 39.5214 228.889 39.5214 228.732 39.57C228.428 39.6551 228.137 39.8374 227.98 40.1169C227.822 40.3964 227.761 40.7124 227.834 41.0405L228.162 42.3774C228.198 42.5354 228.271 42.6812 228.38 42.8027C228.465 42.9364 228.574 43.0458 228.719 43.1187C228.792 43.1673 228.877 43.1795 228.962 43.2038C228.841 44.5406 229.168 45.9382 229.386 47.2507C229.787 49.7178 230.223 52.1727 230.672 54.6276C231.557 59.4524 232.539 64.2528 233.607 69.029C233.849 70.1106 235.244 70.1956 235.826 69.3692C236.553 68.3362 237.815 67.8258 238.518 66.7442C239.245 65.6261 239.148 64.3379 238.518 63.1955C238.166 62.5635 237.536 62.0288 237.269 61.3482C236.966 60.5583 237.426 60.2545 237.96 59.7076C238.918 58.7353 239.718 57.7145 239.524 56.2561C239.306 54.7248 238.19 53.6432 237.135 52.5981Z" fill="#130F0E"/>
<path d="M148.645 70.3773C148.209 68.9675 147.602 67.0595 146.523 65.8199C146.438 65.6376 146.341 65.4675 146.22 65.3095C145.856 64.8598 145.432 64.714 144.995 64.7261C144.522 64.5681 143.976 64.5195 143.37 64.6167C142.218 64.8233 141.03 65.4067 139.999 66.2088C139.95 66.2088 139.914 66.2209 139.865 66.2209C138.847 66.3546 137.937 66.9623 137.185 67.6185C136.907 67.8616 136.64 68.129 136.385 68.4085C135.864 68.9675 135.536 69.5387 135.451 70.3044C135.415 70.6689 135.463 71.07 135.5 71.4346C135.548 71.9815 135.609 72.5041 135.791 73.0145C136.009 73.61 136.264 74.0961 136.688 74.5701C136.797 74.6916 136.943 74.7888 137.064 74.886C137.04 75.1899 137.016 75.4937 137.016 75.7732C136.979 77.4017 137.501 78.933 138.92 79.8445C139.235 80.0389 139.756 80.1605 140.011 80.4278C140.557 80.999 140.351 81.6431 140.29 82.3116C140.193 83.3567 140.132 84.3654 140.326 85.3984C140.629 87.0026 141.539 88.4488 143.006 89.1902C143.406 89.3968 144.753 89.4697 144.971 89.6763C145.48 90.1746 145.662 91.9611 145.795 92.6173C146.147 94.2701 146.778 95.5948 148.476 96.166C150.319 96.7858 152.405 96.725 154.309 96.4698C154.951 96.3848 155.351 95.5827 155.194 94.9993C153.047 86.8203 151.168 78.4712 148.645 70.3773Z" fill="#130F0E"/>
<path d="M143.491 67.7768C143.491 67.7768 171.892 149.591 202.694 153.881C233.496 158.183 238.395 95.9718 237.401 87.3067C236.406 78.6416 232.465 40.2988 228.281 36.1182C224.085 31.9375 147.31 51.8199 143.491 67.7768Z" fill="#896757"/>
<path d="M219.095 54.6647C220.55 52.9997 220.053 50.6664 219.325 48.5639C219.034 47.7253 219.192 47.2271 219.968 46.5343C220.695 45.8781 221.508 45.1124 222.417 44.8572C224.309 44.3103 225.728 47.3729 227.62 46.1941C227.862 46.5586 229.803 50.1924 230.906 54.1664C231.998 58.1162 233.065 62.0781 234.205 66.0156C234.556 67.2431 234.823 68.6042 235.369 69.7709C236.351 71.8977 233.974 47.6524 232.992 45.5256L229.609 38.1974C229.148 37.2008 227.486 36.9091 226.759 37.772C225.182 39.6436 223.23 40.9439 220.829 41.4908C220.744 41.5151 220.659 41.5273 220.574 41.5516C220.429 41.4665 220.283 41.3815 220.089 41.3207C217.785 40.6644 215.384 40.9318 213.237 41.977C212.243 42.4631 211.127 43.2652 210.242 44.2496C209.296 44.3346 208.35 44.5412 207.477 44.6506C204.834 44.9788 202.178 45.2826 199.534 45.6593C196.878 46.0361 194.32 46.6559 191.882 47.7983C190.766 48.3208 189.675 48.9406 188.547 49.4875C187.844 49.6941 187.128 49.9007 186.425 50.0952C186.061 49.524 185.431 49.1837 184.618 49.4997C178.045 52.0518 172.152 56.038 165.53 58.4565C158.824 60.9114 151.791 62.2725 144.794 63.6337C144.017 63.7795 143.617 64.2778 143.496 64.8611C142.453 65.1771 142.198 66.1979 142.514 67.073C142.198 67.8264 142.283 68.7865 143.12 69.3942C144.891 70.7067 154.022 99.0476 156.302 98.5858C158.436 98.1604 152.409 69.3091 153.949 68.0209C154.822 67.2917 155.55 67.7171 156.569 67.9966C157.781 68.3369 158.994 68.3976 160.219 68.1303C162.632 67.5834 164.645 65.9792 166.84 64.9219C169.29 63.7309 171.97 62.9652 174.686 62.6614C177.293 62.3697 179.925 62.5763 182.532 62.2968C187.201 61.7864 191.154 59.3315 195.023 56.8401C198.491 54.6161 202.736 51.6386 207.089 52.2341C208.181 52.3799 209.26 52.9511 209.903 53.8748C210.181 54.288 210.363 54.7619 210.412 55.2481C210.424 55.3817 210.436 55.5276 210.497 55.6491C210.606 55.8679 210.873 55.9529 211.103 56.0137C212.376 56.3418 213.71 56.5484 215.02 56.4998C215.651 56.4755 216.293 56.3783 216.875 56.1352C217.724 55.8557 218.5 55.3574 219.095 54.6647Z" fill="#130F0E"/>
<path d="M100.465 90.8681C127.205 68.2634 267.694 16.0054 286.94 45.1605C292.87 28.2314 229.628 30.5283 229.628 30.5283C229.628 30.5283 203.992 -6.79364 174.645 3.87672C145.298 14.5471 143.091 41.3566 140.423 55.1989C124.743 63.8884 96.3544 81.0606 100.465 90.8681Z" fill="#DDCFBB"/>
<path d="M140.432 55.1992C143.1 41.3569 124.291 19.9676 174.654 3.87702C221.96 -12.9671 229.649 30.5286 229.649 30.5286" fill="#DDCFBB"/>
<path d="M140.694 52.2328C184.448 37.1752 201.971 33.2863 228.978 27.8295C229.633 30.5275 229.633 30.5275 229.633 30.5275L140.415 55.1982C140.428 55.1982 139.991 52.4759 140.694 52.2328Z" fill="#261F17"/>
<path d="M179.132 148.656C164.713 148.06 149.87 149.494 135.754 152.375C109.9 157.649 112.144 157.649 112.301 177.799C112.507 202.433 112.871 239.998 114.545 265.288C115.806 284.296 118.971 322.699 118.971 322.699C118.971 322.699 323.041 330.988 324.957 324.972C339.413 279.86 348.459 211.937 307.737 177.033C295.55 166.581 282.356 160.481 267.112 155.935C260.491 153.954 253.724 152.52 246.824 152.046C243.065 151.779 233.751 151.123 226.112 152.946C220.327 160.262 207.788 172.779 199.117 177.799C190.762 170.3 181.497 157.297 179.132 148.656Z" fill="#DDCFBB"/>
<path d="M199.135 177.799L183.613 166.35L171.486 172.074L163.616 148.911L179.126 148.656L199.135 177.799Z" fill="#F8E8D7"/>
<path d="M199.137 177.798L216.248 168.428L225.331 173.107L238.755 151.876C238.755 151.876 228.884 151.378 226.119 152.933C217.812 157.637 199.137 177.798 199.137 177.798Z" fill="#F8E8D7"/>
<path d="M112.571 94.7567L100.844 111.103L122.758 119.342L139.82 98.2325C141.76 94.9026 143.689 91.5726 145.629 88.2427C146.939 85.9944 148.236 83.7461 149.546 81.4978C151.522 78.1071 151.401 75.5185 150.48 71.7024C149.97 69.6243 149.522 67.5218 149.133 65.4193C148.745 63.3776 148.418 61.3116 148.127 59.2577C147.945 57.9087 147.775 56.5598 147.63 55.1986C147.387 52.8895 147.254 50.3374 145.035 49.1464C140.73 46.8252 129.852 42.4015 128.93 42.5838C128.033 42.7661 127.305 43.398 126.626 44.0057C123.243 47.0804 120.065 50.386 117.119 53.8861C113.759 57.8844 112.292 61.3602 112.401 66.5374C112.486 70.4628 112.365 74.4004 112.389 78.3258C112.426 83.819 112.486 89.2879 112.571 94.7567Z" fill="#896757"/>
<path d="M126.029 239.5C116.776 253.695 95.9057 261.315 85.416 260.075C74.9263 258.835 37.9273 242.769 37.9273 235.963C37.9273 229.158 64.4487 139.444 100.841 111.103C119.347 111.103 122.755 119.343 122.755 119.343L113.793 159.934L128.6 158.695L126.029 239.5Z" fill="#DDCFBB"/>
<path d="M271.759 286.658H128.575L112.334 183.143H298.229L271.759 286.658Z" fill="#FFF6E9"/>
<path d="M270.529 283.822C270.529 283.822 251.465 276.506 248.615 267.841C245.766 259.176 247.294 241.992 261.058 244.981C274.822 247.971 294.176 265.97 295.486 271.353C296.238 274.416 285.566 291.868 270.529 283.822Z" fill="#896757"/>
<path d="M128.918 42.5959C128.918 42.5959 147.908 37.0419 148.806 39.3996C149.703 41.7573 135.454 44.832 135.454 44.832L128.918 42.5959Z" fill="#896757"/>
<path d="M117.95 154.586C121.043 150.102 138.518 149.348 139.269 150.369C140.688 152.302 140.058 183.438 140.058 183.438H119.078C119.078 183.438 113.815 160.602 117.95 154.586Z" fill="#261F17"/>
<path d="M263.327 153.457C273.187 152.387 281.712 155.924 283.155 159.266C286.465 164.382 284.076 183.438 284.076 183.438H258.901C258.901 183.438 257.397 158.16 263.327 153.457Z" fill="#261F17"/>
<path d="M115.687 281.926C190.157 240.047 279.472 253.245 331.847 308.869C394.64 285.791 462.065 304.02 490.77 355.294C523.282 413.385 493.813 491.87 424.945 530.601C388.88 550.873 349.189 556.208 314.882 548.381C304.283 558.055 292.387 566.732 279.253 574.109C192.534 622.879 85.5998 597.005 40.4274 516.321C-4.73296 435.625 28.9554 330.696 115.687 281.926Z" fill="#45826A"/>
<path d="M196.849 333.211C143.794 333.211 99.3856 374.337 87.8894 429.512C46.8522 437.448 15.8439 473.858 15.8439 517.585C15.8439 567.12 55.632 607.286 104.697 607.286C130.394 607.286 153.52 596.263 169.746 578.666C178.428 581.072 187.499 582.36 196.849 582.36C258.647 582.36 308.743 526.578 308.743 457.78C308.743 388.981 258.647 333.211 196.849 333.211Z" fill="#406751"/>
<path opacity="0.7" d="M156.256 623.644C156.256 623.644 157.796 539.606 171.96 495.321C165.194 476.362 154.279 454.426 133.955 446.38C113.642 438.347 116.031 430.666 117.947 424.529C119.863 418.392 110.538 423.897 144.639 444.667C178.727 465.448 183.748 473.749 183.748 473.749C183.748 473.749 180.182 437.557 182.183 423.022C184.184 408.487 204.206 382.468 202.156 390.245C200.131 397.95 191.582 408.742 189.581 424.59C187.022 444.849 210.669 419.862 217.206 415.171C223.73 410.48 201.756 432.234 200.24 445.226C198.724 458.229 198.567 475.013 185.251 509.588C178.084 528.182 168.322 555.466 168.334 627.108C168.347 636.855 156.256 623.644 156.256 623.644Z" fill="#2F3743"/>
<path d="M375.347 320.439C336.383 320.439 303.786 360.422 295.334 414.041C265.211 421.759 229.946 460.903 243.892 501.045C262.131 553.485 329.98 559.963 343.975 564.168C362.044 569.6 363.159 585.484 375.08 568.373C375.347 565.346 368.483 562.612 375.347 562.612C420.725 562.612 457.518 508.397 457.518 441.519C457.506 374.653 420.725 320.439 375.347 320.439Z" fill="#5F9B7E"/>
<path opacity="0.7" d="M363.272 637.695C363.272 637.695 372.937 584.416 360.859 560.195C348.781 535.974 331.864 509.334 310.108 506.916C288.365 504.485 288.365 492.381 288.365 482.695C288.365 473.009 281.113 485.113 319.773 499.648C358.446 514.183 365.685 523.869 365.685 523.869C365.685 523.869 351.545 473.422 349.132 451.632C346.719 429.829 358.07 383.405 358.446 395.509C358.809 407.492 353.862 426.864 356.651 450.55C360.228 480.835 375.35 434.265 380.189 424.567C385.016 414.881 370.524 456.055 372.937 475.427C375.35 494.799 380.189 519.02 377.776 574.718C376.781 597.76 381.802 634.778 381.802 634.778C378.564 644.476 363.272 637.695 363.272 637.695Z" fill="#2F3743"/>
<path opacity="0.2" d="M375.442 562.625C375.442 562.625 370.409 539.619 365.68 523.869C359.228 502.382 351.273 468.876 351.273 463.493C351.273 458.109 352.352 473.179 362.018 475.33C371.683 477.481 369.536 495.783 372.762 513.004C375.988 530.225 378.195 562.54 378.195 562.54L375.442 562.625Z" fill="white"/>
<path d="M13.5942 127.946C15.2434 122.368 19.8638 109.826 19.8638 109.826C19.8638 109.826 10.4776 99.8364 5.73599 93.4196C4.49906 101.866 0.69123 114.469 0 117.361C5.89364 118.528 10.9384 122.696 13.194 127.801L13.5942 127.946Z" fill="#00B6B6"/>
<path d="M22.7743 110.336L15.4376 128.639L15.862 128.797C17.5477 128.056 22.6895 125.722 28.3891 122.429C30.1475 116.79 33.2155 108.866 35.8107 103.336C31.7239 105.524 22.7743 110.336 22.7743 110.336Z" fill="#00B6B6"/>
<path d="M391.795 242.015C393.444 236.436 398.064 223.907 398.064 223.907C398.064 223.907 388.678 213.905 383.936 207.488C382.7 215.934 378.892 228.537 378.2 231.429C384.094 232.596 389.139 236.764 391.394 241.869L391.795 242.015Z" fill="#D93826"/>
<path d="M400.975 224.406L393.638 242.708L394.063 242.866C395.748 242.125 400.89 239.792 406.59 236.498C408.348 230.859 411.404 222.935 414.011 217.406C409.924 219.593 400.975 224.406 400.975 224.406Z" fill="#D93826"/>
<path d="M426.947 179.051C428.657 175.976 433.035 169.194 433.035 169.194C433.035 169.194 428.815 162.048 426.862 157.649C425.019 162.462 421.114 169.389 420.326 171.017C423.648 172.488 426.074 175.599 426.729 178.917L426.947 179.051Z" fill="#007872"/>
<path d="M435.832 159.217L433.395 167.906C433.395 167.906 431.042 164.042 430.836 162.632L435.832 159.217Z" fill="#007872"/>
</g>
<defs>
<clipPath id="clip0">
<rect width="504" height="469" fill="white"/>
</clipPath>
</defs>
</svg>
