<svg width="537" height="354" viewBox="0 0 537 354" fill="none" xmlns="http://www.w3.org/2000/svg">
<path d="M286.134 228.759C205.822 216.439 118.896 219.671 35.0001 227.329C35.0001 227.329 -28.4999 353.537 35.0001 353.537C98.5001 353.537 537 353.537 537 353.537C483.265 283.699 374.42 242.256 286.134 228.759Z" fill="#FFEFD4"/>
<path d="M13.0002 132.5C-1.64012 162 35.0002 286.23 35.0002 286.23C56.0846 287.006 79.4637 286.066 79.4637 286.066L125 119.036C108.52 118.857 27.6406 103 13.0002 132.5Z" fill="#35515F"/>
<path d="M104.108 124.537C104.108 124.537 59.8577 125.149 49.5375 143.771C39.2173 162.393 63.1877 283.246 71.2129 289.175C79.238 295.103 147.939 293.132 163.81 283.739C179.68 274.346 104.108 124.537 104.108 124.537Z" fill="#40806B"/>
<path d="M173.393 10.9699C174.468 10.7758 176.215 12.1345 177.171 12.9258C179.858 15.1654 181.053 19.7044 181.829 23.0638C182.919 27.767 178.44 36.7254 178.485 41.5629C178.544 48.864 172.049 59.5693 174.632 66.4076C175.439 68.5427 172.453 68.692 172.497 70.9764C172.527 73.3355 171.169 74.4851 169.899 76.4858C167.003 81.0098 170.989 90.2519 165.838 91.7898C160.687 93.3277 162.389 90.3714 157.477 88.1766C162.061 67.3781 166.645 39.0546 171.243 18.2561C171.512 17.0318 171.646 12.239 172.617 11.388C172.856 11.1491 173.124 11.0296 173.393 10.9699Z" fill="#3F2827"/>
<path d="M440.922 280.947C444.4 282.38 449.402 285.486 450.85 288.965C452.403 292.682 452.493 297.221 455.374 300.043C458.734 303.343 464.437 302.671 468.543 300.357C472.649 298.043 475.889 294.414 479.906 291.951C488.819 286.471 500.435 287.248 509.543 282.126C516.053 278.468 520.607 272.183 524.952 266.106C525.22 265.732 525.489 265.329 525.459 264.881C525.429 264.359 525.026 263.941 524.638 263.582C523.458 262.493 522.279 261.403 521.099 260.298C520.741 259.969 520.338 259.611 519.86 259.581C519.382 259.551 518.949 259.835 518.561 260.119C516.351 261.671 514.142 263.224 511.932 264.777C509.827 266.255 507.662 267.763 505.168 268.45C501.824 269.376 498.27 268.704 494.851 268.032C481.354 265.374 463.601 261.955 450.104 259.297C444.624 258.222 449.029 262.582 447.581 267.076C447.207 268.271 440.802 280.798 440.922 280.947Z" fill="#AF764F"/>
<path d="M208.809 294.668C244.657 288.338 279.401 275.721 310.964 257.58C314.891 255.326 318.818 252.967 323.103 251.489C313.234 241.395 303.38 231.302 293.51 221.209C291.704 219.373 289.852 217.491 287.538 216.372C285.015 215.147 282.118 214.938 279.311 214.864C276.37 214.789 270.98 213.968 268.263 215.222C265.575 216.476 263.455 220.642 261.663 222.971C256.482 229.69 251.376 236.453 246.329 243.277C236.43 256.669 226.815 270.256 217.483 284.037C214.915 287.83 212.317 291.697 208.809 294.668Z" fill="#BC2F24"/>
<path d="M348.455 225.479C350.754 223.284 358.533 226.793 362.55 228.226C368.387 230.302 374.225 232.377 380.063 234.438C391.739 238.588 403.415 242.724 415.091 246.875C418.465 248.069 448.461 257.341 450.118 259.267C448.073 265.598 446.027 282.604 443.967 288.935C443.683 289.816 443.34 290.771 442.548 291.249C441.772 291.727 440.786 291.592 439.876 291.458C413.657 287.337 387.454 272.571 361.236 268.45C360.056 268.271 358.787 268.032 357.981 267.151C357.279 266.389 357.085 265.299 356.921 264.284C355.965 258.297 355.01 252.295 354.069 246.307C353.412 242.201 349.829 232.168 351.217 228.391C351.575 227.435 347.962 225.942 348.455 225.479Z" fill="#BC2F24"/>
<path d="M399.757 277.348C402.847 279.648 405.998 281.828 409.282 283.843C418.33 289.398 428.424 293.578 439.009 294.444C440.95 294.608 442.951 294.653 444.758 295.355C446.579 296.057 448.222 297.58 448.431 299.521C448.461 299.849 448.446 300.237 448.192 300.461C447.968 300.655 447.654 300.67 447.371 300.67C426.154 300.82 404.953 300.954 383.736 301.103C379.331 301.133 374.912 301.163 370.522 300.79C368.283 300.596 365.774 300.148 364.535 298.281C363.162 296.236 363.953 293.489 364.968 291.249C365.983 289.009 367.238 286.62 366.67 284.232C366.312 282.724 365.252 281.484 364.326 280.23C362.714 278.05 361.355 275.572 361.056 272.869C360.175 264.926 368.775 263.687 374.688 262.149C375.957 261.821 376.48 260.925 377.779 261.074C379.839 261.328 382.347 263.299 383.945 264.628C389.141 268.942 394.337 273.317 399.757 277.348Z" fill="#AF764F"/>
<path d="M137.589 292.204C138.918 292.772 140.411 293.115 141.799 293.384C168.481 298.416 197.581 303.134 221.574 290.413C236.057 282.738 246.852 269.48 255.019 255.266C263.186 241.052 269.054 225.658 276.31 210.967C287.538 232.721 305.291 250.279 322.745 267.449C329.344 273.944 335.958 280.439 342.931 286.531C344.215 287.651 345.633 288.815 347.335 288.92C348.634 288.994 349.874 288.457 351.038 287.875C362.878 282.052 372.807 272.436 379.003 260.805C354.069 228.719 329.135 196.633 304.201 164.547C299.901 159.023 295.302 153.259 288.807 150.646C283.163 148.392 276.907 148.915 271.189 150.572C268.277 151.408 265.56 152.662 262.753 153.767C259.961 154.857 257.378 157.41 254.944 159.187C243.821 167.339 232.698 175.476 221.559 183.628C210.884 191.452 200.193 199.276 189.518 207.099C173.557 218.79 157.178 230.929 146.965 247.875C140.321 258.894 136.633 271.436 134.006 284.022C133.692 285.545 133.393 287.143 133.871 288.621C134.409 290.368 135.857 291.473 137.589 292.204Z" fill="#D23827"/>
<path d="M170.257 89.6098C170.72 89.8637 171.183 90.1324 171.616 90.431C174.169 92.163 176.11 94.6266 177.961 97.0901C183.949 105.063 189.548 113.499 192.668 122.965C197.476 137.522 196.102 153.334 198.685 168.444C198.82 169.205 198.999 170.027 199.581 170.534C200.223 171.072 205.225 168.101 205.747 168.757C214.452 179.537 218.692 179.418 218.946 188.272C209.346 191.587 201.641 198.753 194.251 205.726C183.725 215.655 172.571 225.21 162.553 235.647C155.446 243.038 152.714 252.265 148.757 261.477C144.741 270.824 141.292 280.394 138.425 290.144C138.141 291.13 137.798 292.19 136.962 292.787C136.335 293.235 135.543 293.324 134.782 293.354C128.944 293.503 123.778 289.831 119.105 286.322C112.58 281.425 106.07 276.527 99.5454 271.63C98.1269 270.57 96.6787 269.465 95.8276 267.912C94.663 265.792 94.8422 263.239 94.7078 260.835C94.23 252.25 95.753 245.979 89.5418 240.022C80.7775 231.601 71.7145 218.611 69.0121 209.533C63.9506 192.557 65.1301 176.88 66.5485 159.232C68.7135 132.162 82.3452 104.481 100.71 84.4737C102.487 82.5327 104.368 80.6365 106.623 79.2927C109.31 77.6952 112.416 76.9635 115.521 76.65C124.509 75.7542 133.438 78.3073 142.113 80.8455C149.13 82.891 156.148 84.9365 163.165 86.982C165.584 87.6987 168.047 88.4154 170.257 89.6098Z" fill="#E79C20"/>
<path d="M176.827 18.7339C176.991 18.9728 177.156 19.2117 177.32 19.4655C178.947 22.0784 179.589 25.169 180.037 28.2149C181.5 38.0094 181.366 48.1623 184.681 57.5089C185.024 58.4794 185.412 59.5096 185.173 60.5249C184.651 62.6899 181.814 63.1228 179.589 63.1228C179.336 68.5278 178.903 73.9177 178.29 79.2779C178.201 80.0095 177.036 81.5324 176.544 82.0848C175.842 82.8911 173.423 83.6078 172.363 83.563C167.54 83.4137 164.972 81.8459 160.15 81.6966C159.045 85.5637 159.254 89.6696 159.134 93.7009C159.015 97.7322 158.477 101.928 156.178 105.227C153.879 108.527 149.31 110.558 145.667 108.841C143.114 107.631 141.606 104.974 140.396 102.435C137.978 97.3739 135.992 92.1033 134.499 86.6984C133.872 84.414 133.319 82.0998 132.304 79.9497C131.02 77.2473 129.064 74.948 127.317 72.5143C123.211 66.7809 120.3 60.2114 118.806 53.3283C116.418 42.2497 117.806 30.3201 123.032 20.2568C126.137 14.2845 131.184 8.19279 138.067 6.72959C146.04 5.02749 155.566 3.86289 163.166 7.49105C166.495 9.07371 169.317 11.5223 172.094 13.9262C173.796 15.4193 175.513 16.9123 176.827 18.7339Z" fill="#AF764F"/>
<path d="M173.796 17.0765C164.464 27.3638 155.132 37.651 145.816 47.9383C145.084 48.7445 144.308 49.5806 143.277 49.924C139.724 51.0886 137.021 45.9077 133.274 45.7285C129.795 45.5643 127.705 49.9688 128.451 53.3731C129.213 56.7772 131.661 59.5096 133.289 62.6002C135.528 66.8256 134.364 86.4595 133.319 91.1179C132.99 92.596 132.214 94.2832 130.721 94.4922C129.466 94.6714 128.153 93.7158 126.973 94.1637C125.838 94.5967 125.51 96.0599 124.614 96.8811C123.688 97.7172 122.3 97.7769 121.061 97.6575C111.863 96.8662 95.7082 87.9973 93.7821 78.9643C90.9005 65.4669 106.443 40.025 108.847 26.4231C109.698 21.6005 109.594 16.5689 111.266 11.9702C115.88 -0.661158 145.636 -2.15422 156.088 2.2354C161.717 4.59445 166.405 9.11845 172.347 10.4771C173.841 10.8206 175.707 11.2087 176.125 12.7018C176.468 13.9411 175.543 15.1355 174.677 16.0911C174.378 16.4345 174.079 16.748 173.796 17.0765Z" fill="#3F2827"/>
<path d="M239.058 110.886L283.358 122.233C285.149 122.696 285.851 124.846 284.672 126.265L256.184 160.889C255.766 161.412 255.154 161.725 254.482 161.8L197.79 167.324C195.58 167.533 194.192 164.995 195.58 163.248L236.445 111.752C237.087 110.991 238.103 110.647 239.058 110.886Z" fill="#2B3238"/>
<path d="M244.298 142.39C243.701 142.45 243.268 142.569 242.746 143.151C240.909 145.227 239.192 147.437 237.415 149.572C235.669 151.662 233.937 153.752 232.19 155.857C230.473 157.918 228.86 160.247 226.964 162.143C226.516 162.696 226.038 163.248 225.441 163.621C224.635 164.129 223.649 164.249 222.694 164.353C221.096 164.547 219.484 164.726 217.886 164.92C216.96 165.025 216.005 165.144 215.139 165.518C212.183 166.802 211.331 170.4 209.346 172.953C213.138 176.925 216.781 180.851 218.677 185.868C229.114 178.179 239.551 170.49 249.987 162.8C250.958 162.084 251.943 161.352 252.69 160.411C253.346 159.575 253.794 158.59 254.242 157.634C255.496 154.887 256.781 152.08 257.049 149.079C257.094 148.631 257.094 148.138 256.855 147.75C256.437 147.078 255.422 147.033 254.75 147.451C254.078 147.855 253.66 148.571 253.287 149.273C251.241 152.961 249.181 156.649 247.135 160.322C248.628 154.902 250.136 149.452 250.554 143.838C250.614 143.122 250.54 142.226 249.868 141.957C249.599 141.852 249.3 141.882 249.017 141.912C247.718 142.061 246.434 142.196 245.135 142.345C244.836 142.345 244.552 142.36 244.298 142.39Z" fill="#AF764F"/>
<path d="M253.669 272.577C249.151 273.588 245.605 277.271 241.536 279.602C228.385 287.115 212.661 279.797 198.388 275.315C180.405 269.66 161.181 268.764 142.809 272.708C136.435 274.077 129.748 276 123.614 273.702C117.016 271.241 112.273 270.198 106.199 266.433C92.061 257.681 76.3221 254.209 61.6155 255.415C55.3469 255.921 19.5 232.484 6 266.433C-7.5 300.382 6 304.864 6 304.864C6 335.184 47.1184 298.964 53.9405 300.382C62.0344 302.077 70.607 302.273 78.8505 302.371C154.239 303.202 229.612 304.033 305 304.864C293.899 294.857 282.11 285.763 269.752 277.679C264.845 274.484 259.264 271.322 253.669 272.577Z" fill="#FFEFD4"/>
<path d="M472.876 60.7149C474.075 56.663 477.435 47.5801 477.435 47.5801C477.435 47.5801 470.614 40.3374 467.17 35.6777C466.275 41.7893 463.506 50.9398 463 53.0332C467.271 53.8774 470.935 56.8994 472.59 60.5967L472.876 60.7149Z" fill="#D23827"/>
<path d="M479.545 47.9515L474.21 61.2214L474.514 61.3396C475.747 60.7993 479.478 59.111 483.614 56.7306C484.88 52.6449 487.109 46.9048 489 42.9036C486.045 44.4568 479.545 47.9515 479.545 47.9515Z" fill="#D23827"/>
<path d="M344.027 119.937C345.369 115.413 349.119 105.28 349.119 105.28C349.119 105.28 341.498 97.178 337.662 92C336.664 98.8295 333.568 109.048 333 111.387C337.782 112.334 341.877 115.705 343.7 119.834L344.027 119.937Z" fill="#00AEAE"/>
<path d="M351.476 105.676L345.523 120.487L345.868 120.608C347.227 120.006 351.407 118.113 356.034 115.447C357.462 110.888 359.939 104.472 362.055 99.999C358.735 101.788 351.476 105.676 351.476 105.676Z" fill="#00AEAE"/>
<path d="M308.84 87.5371H524C524 87.5371 488.807 83.4611 459.213 72.8755C429.619 62.29 429.619 43.5371 401.623 43.5371C373.627 43.5371 368.834 74.5029 345.631 76.1303C322.428 77.7576 316.978 56.3432 291.669 57.0884C253.968 58.2139 233.004 87.5219 221 87.5219C209.01 87.5371 308.84 87.5371 308.84 87.5371Z" fill="white"/>
</svg>
