<svg width="541" height="377" viewBox="0 0 541 377" fill="none" xmlns="http://www.w3.org/2000/svg">
<path d="M94.8894 144.837C129.093 114.924 104.256 101.901 147.01 77.1097C189.764 52.3184 256.842 0.00014039 323.184 0C389.526 -0.00014039 416.313 49.2408 437.108 70.0998C457.903 90.9587 460.964 107.084 502.427 138.661C554.256 178.132 542.852 276.347 518.072 314.579C493.292 352.811 442.684 383.963 360.142 375.644C277.599 367.325 270.619 334.934 214.078 314.579C157.538 294.224 112.689 328.916 53.7055 314.579C-5.2783 300.242 -15.9233 236.877 22.992 197.406C61.9074 157.935 60.6858 174.75 94.8894 144.837Z" fill="#F1F4F5"/>
<path d="M104.79 138.413C138.236 109.606 115.882 100.742 155.642 79.775C195.403 58.8083 247.962 19.2614 315.368 12.443C382.773 5.62448 440.281 79.775 440.281 79.775C445.685 86.6502 466.629 108.003 507.175 138.413C557.857 176.426 542.84 265.066 518.608 301.885C494.376 338.705 444.889 368.706 364.173 360.694C283.457 352.683 276.631 321.488 221.341 301.885C166.052 282.282 122.196 315.693 64.5171 301.885C6.8385 288.078 -3.57095 227.053 34.4833 189.04C72.5375 151.028 71.343 167.221 104.79 138.413Z" fill="#F9F9F9"/>
</svg>
