<svg width="566" height="362" viewBox="0 0 566 362" fill="none" xmlns="http://www.w3.org/2000/svg">
<path d="M80.7692 95.5992C117.051 63.0557 124.226 19.5685 167.227 4.87124C210.229 -9.82598 267.657 12.0704 309.01 26.4684C350.362 40.8664 363.136 49.8843 407.118 84.2379C462.096 127.18 499.588 110.578 529.351 144.177C562.358 181.437 596.244 246.489 519.15 298.948C433.961 356.915 337.49 373.834 283.496 353.136C235.981 334.922 253.012 305.495 190.445 289.897C127.878 274.299 73.715 327.066 25.7617 289.897C-43.3514 236.327 44.4877 128.143 80.7692 95.5992Z" fill="#F1F4F5"/>
<path d="M80.656 91.2622C115.932 60.8453 121.332 28.8085 171.367 15.3098C221.402 1.81117 278.277 25.9288 310.493 37.2677C342.71 48.6065 363.119 59.1534 405.883 91.2622C459.338 131.398 499.474 118.619 526.471 148.856C557.457 183.561 588.385 250.546 516.212 291.942C442.002 334.507 398.024 355.81 310.493 345.037C240.3 336.398 251.301 286.977 189.545 277.004C131.591 267.645 76.3364 314.971 33.3208 284.203C-36.272 234.424 45.3795 121.679 80.656 91.2622Z" fill="#F9F9F9"/>
</svg>
