<svg width="638" height="486" viewBox="0 0 638 486" fill="none" xmlns="http://www.w3.org/2000/svg">
<path d="M227.017 130.067C228.839 123.907 233.948 110.097 233.948 110.097C233.948 110.097 223.577 99.0847 218.341 92C216.98 101.292 212.77 115.205 212 118.388C218.495 119.671 224.065 124.266 226.581 129.888L227.017 130.067Z" fill="#D23827"/>
<path d="M237.157 110.661L229.045 130.837L229.507 131.017C231.381 130.196 237.054 127.629 243.343 124.009C245.268 117.797 248.657 109.07 251.532 102.986C247.04 105.348 237.157 110.661 237.157 110.661Z" fill="#D23827"/>
<path d="M359.028 27.9372C360.37 23.4129 364.12 13.2805 364.12 13.2805C364.12 13.2805 356.499 5.17801 352.663 0C351.665 6.82947 348.569 17.0479 348.001 19.3874C352.783 20.3336 356.878 23.7053 358.701 27.834L359.028 27.9372Z" fill="#00AEAE"/>
<path d="M366.477 13.6759L360.524 28.4874L360.868 28.6079C362.228 28.0058 366.408 26.1135 371.035 23.447C372.463 18.8883 374.94 12.4717 377.056 7.99902C373.736 9.7881 366.477 13.6759 366.477 13.6759Z" fill="#00AEAE"/>
<path d="M618.672 115.848C622.202 109.513 631.241 95.5421 631.241 95.5421C631.241 95.5421 622.528 80.8197 618.496 71.7559C614.691 81.671 606.628 95.9427 605.001 99.2978C611.861 102.327 616.869 108.737 618.221 115.573L618.672 115.848Z" fill="#D23827"/>
<path d="M637.001 74.9609L631.969 92.8632C631.969 92.8632 627.111 84.9011 626.686 81.9967L637.001 74.9609Z" fill="#D23827"/>
<path d="M428.275 341.987C415.255 326.252 402.663 308.325 398.486 286.208C391.264 247.906 411.273 198.132 377.404 173.214C363.776 163.191 346.921 162.168 331.454 166.224C331.296 166.26 331.15 166.309 330.991 166.346C272.838 182.007 261.938 247.431 238.969 305.341C223.685 343.874 196.819 374.065 171.889 403.55C154.169 424.509 123.795 453.921 110.289 479.387C109.254 481.335 108.146 483.43 107.001 485.646H449.38C467.076 458.33 480.034 427.761 464.275 392.516C455.445 372.701 441.294 357.721 428.275 341.987Z" fill="#FFEEE3"/>
<path d="M417.094 355.895C404.075 340.16 391.482 322.233 387.305 300.116C380.083 261.814 400.092 212.04 366.224 187.123C352.596 177.1 335.74 176.077 320.273 180.132C320.115 180.169 319.969 180.217 319.811 180.254C261.657 195.916 250.757 261.34 227.788 319.249C212.504 357.783 191.837 392.93 166.907 422.427C149.601 442.912 130.067 461.07 116.573 485.634H446.53C459.415 461.922 466.235 435.799 453.094 406.424C444.265 386.622 430.113 371.642 417.094 355.895Z" fill="#FBE1CF"/>
<path opacity="0.6" d="M250.764 421H117C117 421 138.89 418.497 157.285 412C175.681 405.503 175.681 394 193.088 394C210.494 394 213.478 412.995 227.885 414.005C242.308 415 245.693 401.865 261.446 402.316C284.881 403 297.913 421 305.379 421C312.83 420.984 250.764 421 250.764 421Z" fill="white"/>
<path opacity="0.9" d="M263.293 254H0C0 254 43.0882 249.074 79.272 236.333C115.493 223.556 115.493 201 149.757 201C184.02 201 189.891 238.296 218.248 240.259C246.641 242.222 253.324 216.407 284.302 217.333C330.454 218.667 356.078 254 370.773 254C385.468 254 263.293 254 263.293 254Z" fill="white"/>
<path d="M503.49 267.562C503.502 267.575 506.863 263.799 506.876 263.811C507.144 264.092 507.18 264.53 507.204 264.92C507.314 266.625 509.616 267.745 509.458 269.426C508.885 275.564 508.459 279.461 508.398 284.308C508.386 285.368 508.422 286.439 508.739 287.45C509.445 289.667 511.564 290.519 513.586 291.226C516.253 292.163 519.03 292.711 521.782 293.284C524.121 293.771 528.505 294.063 530.186 295.744C525.473 302.406 518.725 308.057 513.233 314.122C508.154 319.797 509.47 336.421 486.817 334.436C464.153 332.451 449.112 336.104 444.155 329.515C439.199 322.927 423.793 300.36 423.61 295.683C423.513 293.345 441.988 291.396 443.437 284.467C444.886 277.537 439.199 270.254 439.199 270.254C455.141 270.729 471.095 271.204 487.037 271.679C492.432 271.837 500.518 262.618 505.877 263.41C506.23 263.483 503.246 267.331 503.49 267.562Z" fill="#C57954"/>
<path d="M592.492 344.252C583.09 321.94 564.688 310.297 543.789 300.226C537.298 297.096 527.47 289.947 520.162 292.845C518.409 293.54 516.789 294.818 515.401 296.864C513.428 299.787 512.551 303.295 511.552 306.68C509.603 313.233 506.644 320.101 500.677 323.463C497.23 325.399 493.187 325.923 489.253 326.325C480.996 327.165 472.678 327.64 464.384 327.238C456.967 326.885 447.894 326.727 441.914 321.697C434.668 315.62 438.797 305.158 437.895 296.158C437.664 293.929 434.461 294.002 432.878 293.601C428.177 292.395 423.975 294.733 417.959 296.828C391.495 306.047 367.965 319.115 359.964 348.064C355.969 362.52 356.919 377.658 356.03 392.479C355.531 400.858 354.8 408.117 351.877 416.082C348.881 424.278 344.68 432.973 347.067 441.888C348.321 446.553 351.329 450.632 355.044 453.714C360.622 458.329 366.662 459.645 373.58 460.85C374.335 460.984 375.127 461.13 375.723 461.618C376.503 462.263 376.746 463.347 376.905 464.358C377.562 468.669 377.404 473.053 377.16 477.401C377.014 480.141 376.832 482.869 376.612 485.61H594.988C602.697 475.964 604.256 458.743 604.475 448.477C604.768 434.824 602.734 421.233 601.699 407.617C600.091 386.232 600.822 364.03 592.492 344.252Z" fill="#BA3025"/>
<path d="M569.401 431.61C567.854 426.495 569.876 420.064 571.069 415.108C572.64 408.543 574.199 401.869 575.173 395.183C575.502 392.906 576.744 390.105 575.015 388.12C573.919 386.865 571.812 385.27 570.546 387.34C566.721 393.612 565.333 404.049 558.72 408.032C550.816 412.794 544.642 406.095 539.673 400.432C536.579 396.901 532.755 393.344 528.066 393.223C527.664 393.21 527.238 393.235 526.946 393.515C526.52 393.905 526.605 394.599 526.763 395.159C528.724 402.064 535.983 407.35 535.422 414.499C535.508 413.403 523.792 405.949 522.489 405.048C518.847 402.527 514.475 400.591 510.091 401.236C505.67 401.882 501.992 405.072 499.41 408.726C498.155 410.492 497.059 412.489 496.901 414.657C496.28 423.73 511.43 428.48 517.434 431.634C527.275 436.798 536.872 442.388 546.213 448.404C553.349 452.996 551.522 462.41 557.21 468.463C560.583 472.055 565.735 474.187 570.558 473.164C573.542 472.53 576.184 470.776 578.389 468.657C582.408 464.785 585.184 459.219 584.368 453.69C583.601 448.538 579.96 444.154 576.586 440.391C573.931 437.431 570.777 435.738 569.498 431.853C569.45 431.78 569.425 431.695 569.401 431.61Z" fill="#C57954"/>
<path d="M474.87 292.651C475.942 292.907 477.05 293.102 478.231 293.199C482.202 293.54 486.233 293.138 490.057 291.981C495.306 290.386 500.117 287.341 503.746 283.225C505.573 281.154 507.095 278.828 508.228 276.319C509.433 273.652 509.75 270.912 510.554 268.147C510.956 266.771 511.431 265.846 511.248 264.36C511.248 264.36 461.401 285.502 461.388 285.502C462.338 286.087 466.954 289.692 467.88 290.106C470.254 291.153 472.471 292.079 474.87 292.651Z" fill="#925037"/>
<path d="M450.988 188.669C446.494 191.775 443.011 198.059 440.539 203.272C437.08 210.567 436.154 218.641 435.57 226.582C434.851 236.422 432.33 245.483 434.778 255.128C438.432 269.536 456.882 290.045 474.152 292.773C485.38 294.551 497.035 286.842 505.049 278.731C506.352 277.415 507.485 276.027 508.41 274.602C514.658 264.957 516.935 268.976 518.433 253.996C519.931 239.016 517.52 218.751 516.594 213.672C515.669 208.581 514.305 197.669 508.276 192.25C502.248 186.83 500.311 183.993 494.794 183.25C480.07 181.228 462.716 180.546 450.988 188.669Z" fill="#C57954"/>
<path d="M509.471 273.019C515.67 253.362 514.232 254.921 514.05 238.979C513.965 231.38 511.504 224.462 509.775 217.143C508.07 209.958 502.139 198.851 496.318 193.334C485.235 182.836 472.24 200.641 458.844 192.128C446.361 184.188 445.654 228.031 444.242 233.268C443.28 236.86 441.915 240.343 441.087 243.961C437.373 260.414 448.918 275.686 459.562 286.696C450.745 284.028 433.89 264.713 432.185 261.047C430.26 256.919 429.225 245.239 429.055 240.648C428.726 231.66 430.492 222.709 432.879 214.038C434.633 207.68 436.739 201.372 440.04 195.66C454.252 171.035 494.198 170.681 514.001 188.852C526.387 200.215 529.237 218.312 527.739 233.962C526.959 242.085 525.011 250.269 521.552 257.747C519.713 261.717 517.168 264.81 514.22 268.123C512.795 269.731 511.005 272.057 509.471 273.019Z" fill="#475151"/>
<path d="M522.745 292.2C523.086 292.176 523.427 292.176 523.768 292.188V292.176C523.427 292.176 523.086 292.188 522.745 292.2Z" fill="#BF3226"/>
<path d="M500.189 323.463C496.742 325.399 492.699 325.923 488.765 326.325C480.508 327.165 472.19 327.64 463.896 327.238C458.915 327.007 451.133 326.105 446.103 324.51L468.938 485.634H478.401L505.438 319.602C504.89 320.381 500.749 323.146 500.189 323.463Z" fill="#8C1D1D"/>
<path d="M459.561 286.708C457.99 291.871 458.197 294.1 456.833 298.448C455.469 302.796 450.208 304.866 449.441 308.921C448.539 313.61 446.725 320.284 446.493 325.972C446.347 329.564 446.335 334.448 446.457 337.444C446.579 340.355 444.995 343.424 444.581 347.735C444.265 351.035 445.166 355.663 444.301 359.341C442.913 365.26 441.415 372.044 441.415 372.044L439.089 379.594L438.443 388.119L439.478 402.49L434.644 420.649C434.644 420.649 439.759 447.758 426.179 446.017C417.338 444.884 424.694 429.71 429.382 417.434C430.332 414.949 429.394 404.877 429.955 399.044C430.369 394.745 432.439 390.86 432.366 387.669C432.269 383.723 430.369 379.582 429.748 375.295C429.346 372.543 430.32 369.705 429.821 366.892C428.98 362.155 428.079 357.38 427.348 352.74C426.813 349.343 428.639 345.311 428.116 342.206C426.435 332.231 425.436 325.911 426.204 320.223C427.081 313.744 429.845 308.824 430.844 301.626C431.501 296.95 430.941 291.993 431.233 287.256C431.964 275.479 431.721 263.592 431.258 251.901C431.246 251.877 446.506 277.805 459.561 286.708Z" fill="#475151"/>
<path d="M429.152 413.999L436.252 417.433L435.923 419.918L428.725 417.263L429.152 413.999Z" fill="#2B3238"/>
<path d="M437.615 261.035C437.761 273.689 446.238 291.75 445.751 295.16C445.263 298.57 435.825 312.38 435.825 312.38L440.331 294.977L437.615 261.035Z" fill="#5A6868"/>
<path d="M441.391 318.688L431.1 335.41L434.084 375.064L435.898 337.176L441.391 318.688Z" fill="#5A6868"/>
<path d="M435.229 387.571L435.85 400.517L431.612 407.252L434.084 399.798L434.511 381.384L435.229 387.571Z" fill="#5A6868"/>
<path d="M304.417 369.425C311.603 368.804 347.493 381.981 352.815 388.704C357.346 394.416 358.235 402.551 355.884 409.456C352.864 418.335 341.051 432.121 331.21 423.474C323.94 417.092 289.462 392.869 283.214 389.045C276.954 385.221 265.701 384.782 259.953 381.506C254.204 378.23 241.149 369.51 236.862 364.882C232.575 360.254 226.242 353.897 227.241 352.533C228.227 351.157 231.783 350.597 232.526 349.452C233.269 348.307 227.509 343.85 228.994 341.56C230.492 339.271 233.622 340.038 235.352 337.992C237.069 335.946 240.248 331.903 243.268 332.718C246.288 333.534 274.372 354.591 274.506 351.303C274.92 340.537 270.049 328.249 275.408 318.177C275.7 317.641 276.065 317.057 276.65 316.898C277.794 316.582 278.623 317.97 279.012 319.091C281.485 326.349 283.811 333.644 285.991 341C287.038 344.544 288.049 348.088 289.023 351.644C289.73 354.214 289.973 358.72 291.52 360.888C292.713 362.556 302.529 369.596 304.417 369.425Z" fill="#C57954"/>
<path d="M358.297 321.807C355.057 306.486 323.685 310.42 314.38 313.355C299.254 318.141 291.984 328.736 288.208 343.643C286.211 351.51 283.946 359.39 283.3 367.477C280.938 397.241 281.851 392.65 271.804 412.197C269.112 417.446 265.702 434.508 268.99 444.531C270.805 450.048 282.131 444.422 287.271 440.975C291.972 437.821 309.46 430.075 311.53 424.692C318.095 407.63 324.671 390.555 331.236 373.493C335.888 361.412 340.528 349.331 345.18 337.249C347.823 330.393 359.332 326.727 358.297 321.807Z" fill="#2B3238"/>
<path d="M359.258 322.221C360.72 323.889 361.865 325.631 362.34 326.69C365.116 332.828 367.93 339.21 367.966 345.957C368.003 353.276 376.394 357.514 378.549 364.931C379.974 369.839 379.049 374.504 378.915 379.46C378.781 383.881 381.972 388.96 380.522 393.222C379.475 396.316 375.87 397.424 373.142 399.226C366.712 403.477 362.559 406.29 354.46 410.26C352.755 416.63 359.49 413.597 358.589 419.309C357.882 423.779 357.249 431.731 356.153 436.116C355.848 437.321 355.544 438.539 354.886 439.587C352.438 443.459 351.452 455.918 347.798 455.321C341.514 454.286 330.005 442.656 323.831 441.06C317.68 439.477 310.958 433.692 305.94 429.649C302.006 426.482 293.603 420.734 298.438 419.114C308.388 415.789 309.509 407.484 312.626 401.443C314.234 398.325 313.491 396.486 310.885 394.233C306.111 390.117 300.228 386.646 297.89 380.8C296.453 377.22 294.967 366.929 300.533 365.833C302.287 365.492 304.101 366.113 305.648 367.002C309.752 369.377 312.151 373.432 315.452 368.719C322.893 358.087 325.511 338.114 332.953 327.482C337.313 321.271 350.465 312.173 359.258 322.221Z" fill="#C57954"/>
<path d="M357.541 415.802C357.541 415.802 356.067 445.043 350.855 446.078C345.642 447.125 298.438 419.126 298.438 419.126C284.664 425.934 271.62 435.823 261.926 447.758C254.436 456.978 248.664 466.343 245.863 478.059C245.266 480.556 244.608 483.089 243.95 485.634H403.796C403.759 485.269 403.723 484.903 403.686 484.538C402.553 473.395 401.384 462.056 397.061 451.607C393.042 441.913 386.502 433.485 379.353 425.8C373.52 419.516 366.541 415.741 357.541 415.802Z" fill="#008787"/>
</svg>
