<svg width="206" height="165" viewBox="0 0 206 165" fill="none" xmlns="http://www.w3.org/2000/svg">
<g clip-path="url(#clip0)">
<path d="M174.778 29.7277C193.678 43.1525 212.971 74.0573 203.521 90.4484C194.072 106.698 155.432 113.296 128.921 125.026C102.269 136.897 80.1035 160.968 59.7942 158.567C39.4849 156.166 23.5218 122.301 14.9235 93.1852C6.32525 64.0696 0.0644989 29.5688 17.2728 16.5618C34.481 3.55487 73.5197 12.0653 102.286 15.1729C131.059 18.1391 156.02 16.3029 174.778 29.7277Z" fill="#D6ECEB"/>
<path d="M174.778 29.1391C193.678 42.5639 206.511 71.1145 197.061 87.5056C187.611 103.755 156.019 107.999 129.508 119.729C102.856 131.6 81.2779 150.963 60.9687 148.562C40.6594 146.161 21.7597 121.712 13.1614 92.5966C4.56313 63.481 6.52476 29.5688 23.733 16.5618C40.9413 3.55485 73.5195 11.4767 102.286 14.5843C131.059 17.5506 156.019 15.7143 174.778 29.1391Z" fill="#C1E6E4"/>
<path opacity="0.8" d="M125.268 37.4612H180.023C180.023 37.4612 171.067 36.443 163.537 33.7886C156.008 31.1402 156.008 26.4435 148.884 26.4435C141.76 26.4435 140.538 34.1947 134.636 34.6008C128.733 35.0069 127.347 29.6453 120.904 29.8336C111.308 30.1161 105.975 37.4553 102.921 37.4553C99.8609 37.4612 125.268 37.4612 125.268 37.4612Z" fill="white"/>
<path d="M112.294 43.3408C119.665 39.1916 128.51 40.4982 133.702 46.0129C139.921 43.7234 146.599 45.5303 149.436 50.6153C152.654 56.3713 149.741 64.152 142.917 67.9952C139.346 70.0022 135.417 70.5319 132.016 69.755C130.965 70.7143 129.79 71.5736 128.492 72.3093C119.906 77.1413 109.316 74.5811 104.841 66.5827C100.372 58.5784 103.707 48.1787 112.294 43.3408Z" fill="#6DAA8A"/>
<path d="M126.613 93.5382C126.613 93.5382 128.269 84.4039 126.202 80.2547C124.134 76.1054 122.519 72.5741 118.79 72.1562C115.066 71.7442 113.24 67.4184 113.24 65.7587C113.24 64.099 112.541 67.3831 119.16 69.8726C125.779 72.3622 127.024 74.0219 127.024 74.0219C127.024 74.0219 124.604 65.3761 124.187 61.6388C123.776 57.9015 124.986 49.9973 125.05 52.0749C125.115 54.1289 125.303 59.7614 125.785 63.8223C126.395 69.0134 128.68 58.6666 129.508 57.0069C130.336 55.3472 127.852 62.4039 128.269 65.7234C128.68 69.0487 129.508 73.1979 129.097 82.7442C128.927 86.6934 129.784 93.038 129.784 93.038C129.232 94.7036 126.613 93.5382 126.613 93.5382Z" fill="#3F4551"/>
<path d="M138.166 69.4136V113.831H144.661C167.008 106.004 189.367 100.736 197.055 87.5056C200.338 81.8085 200.926 74.634 199.505 67.1418L170.074 40.2039L138.166 69.4136Z" fill="#EEA320"/>
<path d="M198.605 63.2515L170.08 33.306L130.289 75.0754L135.434 79.9957L170.08 43.6233L200.232 75.2755C200.32 71.4323 199.739 67.3595 198.605 63.2515Z" fill="#35515F"/>
<path d="M185.373 73.4805H152.918V82.9561H185.373V73.4805Z" fill="#C1E6E4"/>
<path d="M185.373 70.4023H152.918V74.5811H185.373V70.4023Z" fill="#AF8552"/>
<path d="M157.087 102.927V70.4036H152.917V102.927H157.087Z" fill="#AF8552"/>
<path d="M185.37 94.6187V70.4057H181.2V94.6187H185.37Z" fill="#AF8552"/>
<path d="M197.061 87.5115C198.13 85.6576 198.899 83.6389 199.422 81.5083C197.219 81.4377 195.293 80.19 193.108 79.831C189.608 79.2542 185.485 79.4602 182.078 80.4136C178.96 81.2847 176.675 81.885 173.445 81.42C170.403 80.9786 167.349 80.4548 164.277 80.9433C162.333 81.2494 160.371 81.7673 158.433 81.473C155.15 80.9727 152.695 79.1129 149.248 79.2954C145.777 79.4778 142.358 80.5902 138.923 79.4425C136.832 78.7421 134.383 78.8598 132.257 79.3954C130.495 79.8427 128.974 81.2435 127.041 80.9139C126.09 80.7491 125.268 80.1605 124.357 79.8368C122.325 79.1188 118.326 79.4307 116.387 80.4842C114.749 81.373 112.241 81.5907 112.241 81.5907L104.218 81.6908L95.9608 85.4575L80.7494 86.3992C70.8707 81.4495 59.8469 78.3066 49.657 74.0455C49.0345 73.7983 48.406 73.5452 47.7365 73.4923C46.8144 73.4099 45.9099 73.7042 45.0348 73.9925C39.8489 75.6993 34.6805 77.5297 29.4593 79.1129C25.3481 80.3607 21.8419 78.4596 17.8423 79.1718C16.3211 79.4425 14.9527 80.5196 13.4081 80.4195C12.6915 80.3724 12.0161 80.0723 11.3113 79.9251C10.9002 79.8368 10.5126 79.8192 10.1367 79.8368C10.9237 84.1333 11.928 88.412 13.1673 92.5907C21.7714 121.706 40.6652 146.155 60.9745 148.556C81.2838 150.957 102.862 131.594 129.514 119.723C156.019 108.005 187.611 103.761 197.061 87.5115Z" fill="#5C9677"/>
<path d="M39.3853 137.656C46.0806 143.736 53.4279 147.673 60.9631 148.562C72.6976 149.951 84.855 144.071 98.1694 136.567C97.2238 136.573 96.29 135.849 95.3033 135.855C91.6326 135.867 87.6036 137.268 83.4631 137.297C81.8773 137.309 79.8629 136.291 78.2419 136.308C72.6272 136.361 66.6248 138.38 61.0101 138.492C58.238 138.545 56.153 137.05 53.5101 137.12C50.3621 137.209 47.3551 138.297 44.5184 138.409C42.7329 138.486 41.0004 137.574 39.3853 137.656Z" fill="#6DAA8A"/>
<path d="M6.74221 64.5051H60.0878C60.0878 64.5051 51.3662 63.5104 44.0248 60.9267C36.6893 58.343 36.6893 53.7758 29.7473 53.7758C22.8052 53.7758 21.6188 61.3269 15.8632 61.7271C10.1075 62.1273 8.72733 57.3542 4.95678 58.3489C1.18623 59.3435 3.57072 64.5051 0.598918 64.5051C-2.37876 64.5051 6.74221 64.5051 6.74221 64.5051Z" fill="white"/>
<path d="M99.4319 41.2338H42.1807V98.6057H99.4319V41.2338Z" fill="#7C5123"/>
<path d="M45.4754 46.5485H49.3517C49.8861 46.5485 50.3207 46.984 50.3207 47.5196V98.8529C50.3207 99.3885 49.8861 99.824 49.3517 99.824H45.4754C44.941 99.824 44.5063 99.3885 44.5063 98.8529V47.5196C44.5063 46.984 44.941 46.5485 45.4754 46.5485Z" fill="#4E7FA0"/>
<path d="M51.3956 56.4066H56.4817C57.0749 56.4066 57.5565 56.8892 57.5565 57.4837V98.7469C57.5565 99.3413 57.0749 99.824 56.4817 99.824H51.3956C50.8024 99.824 50.3208 99.3413 50.3208 98.7469V57.4837C50.3208 56.8892 50.8024 56.4066 51.3956 56.4066Z" fill="#E0371B"/>
<path d="M73.6607 51.8277L78.6587 50.8743C79.2402 50.7624 79.8157 51.2097 79.9391 51.863L88.5961 97.5227C88.7194 98.1819 88.3494 98.8058 87.7679 98.9176L82.7699 99.8711C82.1885 99.9829 81.6129 99.5356 81.4896 98.8823L72.8326 53.2226C72.7034 52.5634 73.0793 51.9395 73.6607 51.8277Z" fill="#4E7FA0"/>
<path d="M82.2469 57.931L87.6972 56.8951C88.3315 56.7715 88.9364 57.1423 89.048 57.7191L96.6009 97.558C96.7125 98.1348 96.2837 98.6998 95.6436 98.8175L90.1933 99.8534C89.559 99.977 88.9541 99.6062 88.8425 99.0294L81.2896 59.1905C81.1839 58.6196 81.6068 58.0546 82.2469 57.931Z" fill="#EEA320"/>
<path d="M68.651 63.5575H73.7371C74.3303 63.5575 74.8119 63.9577 74.8119 64.458V98.9235C74.8119 99.4179 74.3303 99.824 73.7371 99.824H68.651C68.0578 99.824 67.5762 99.4237 67.5762 98.9235V64.458C67.5762 63.9636 68.0578 63.5575 68.651 63.5575Z" fill="#0B9992"/>
<path d="M64.064 54.0642H66.9653C67.306 54.0642 67.5761 54.5704 67.5761 55.2001V98.6881C67.5761 99.3178 67.3001 99.824 66.9653 99.824H64.064C63.7234 99.824 63.4532 99.3178 63.4532 98.6881V55.2001C63.4473 54.5704 63.7234 54.0642 64.064 54.0642Z" fill="#EEA320"/>
<path d="M58.4317 53.0872H62.5723C63.0539 53.0872 63.4474 53.6051 63.4474 54.2467V98.6645C63.4474 99.3061 63.0539 99.824 62.5723 99.824H58.4317C57.9501 99.824 57.5566 99.3061 57.5566 98.6645V54.2467C57.5566 53.6051 57.9501 53.0872 58.4317 53.0872Z" fill="#0B9992"/>
<path d="M50.3207 48.5436H44.5063V50.274H50.3207V48.5436Z" fill="#305F7F"/>
<path d="M50.3207 70.6083H44.5063V72.3387H50.3207V70.6083Z" fill="#305F7F"/>
<path d="M49.0992 51.969H45.7222V68.8486H49.0992V51.969Z" fill="#305F7F"/>
<path d="M62.1788 88.2884H58.8018V92.9556H62.1788V88.2884Z" fill="#00756F"/>
<path d="M67.5761 56.3419H63.4473V57.3954H67.5761V56.3419Z" fill="#CE8817"/>
<path d="M67.5761 58.6137H63.4473V59.6672H67.5761V58.6137Z" fill="#CE8817"/>
<path d="M67.5761 91.2959H63.4473V92.3494H67.5761V91.2959Z" fill="#CE8817"/>
<path d="M67.5761 93.5677H63.4473V94.6212H67.5761V93.5677Z" fill="#CE8817"/>
<path d="M78.4031 54.1309L75.0854 54.7628L77.4857 67.4194L80.8033 66.7875L78.4031 54.1309Z" fill="#305F7F"/>
<path d="M71.3469 130.699L65.2036 121.1L87.3512 98.9058L99.4322 102.555L71.3469 130.699Z" fill="#915F23"/>
<path d="M77.5545 122.701L68.921 129.811L43.4258 104.262L53.8095 98.9058L77.5545 122.701Z" fill="#915F23"/>
<path d="M45.2054 95.1156L35.4736 104.874V34.5067L45.2054 44.2649V95.1156Z" fill="#A06928"/>
<path d="M35.4676 34.5067H25.7358V104.868H35.4676V34.5067Z" fill="#B78B49"/>
<path d="M115.419 34.5067H105.687V104.868H115.419V34.5067Z" fill="#B78B49"/>
<path d="M105.687 104.874L95.9551 95.1156V44.2649L105.687 34.5067V104.874Z" fill="#A06928"/>
<path d="M106.051 34.5067L95.9551 44.2649H45.2054L35.4736 34.5067H106.051Z" fill="#AD752B"/>
<path d="M95.9551 95.1156L105.687 104.874H35.4736L45.2054 95.1156H95.9551Z" fill="#AD752B"/>
<path d="M38.3985 49.1616H32.543V62.557H38.3985V49.1616Z" fill="#2B3238"/>
<path d="M38.3985 81.5907H32.543V94.9861H38.3985V81.5907Z" fill="#2B3238"/>
<path d="M37.1238 56.4066C37.4255 56.4066 37.67 56.1615 37.67 55.8592C37.67 55.5569 37.4255 55.3119 37.1238 55.3119C36.8222 55.3119 36.5776 55.5569 36.5776 55.8592C36.5776 56.1615 36.8222 56.4066 37.1238 56.4066Z" fill="#848484"/>
<path d="M37.1238 52.016C37.4255 52.016 37.67 51.771 37.67 51.4687C37.67 51.1664 37.4255 50.9213 37.1238 50.9213C36.8222 50.9213 36.5776 51.1664 36.5776 51.4687C36.5776 51.771 36.8222 52.016 37.1238 52.016Z" fill="#848484"/>
<path d="M37.1238 60.8031C37.4255 60.8031 37.67 60.558 37.67 60.2557C37.67 59.9534 37.4255 59.7084 37.1238 59.7084C36.8222 59.7084 36.5776 59.9534 36.5776 60.2557C36.5776 60.558 36.8222 60.8031 37.1238 60.8031Z" fill="#848484"/>
<path d="M33.8231 56.4066C34.1247 56.4066 34.3693 56.1615 34.3693 55.8592C34.3693 55.5569 34.1247 55.3119 33.8231 55.3119C33.5214 55.3119 33.2769 55.5569 33.2769 55.8592C33.2769 56.1615 33.5214 56.4066 33.8231 56.4066Z" fill="#848484"/>
<path d="M33.8231 52.016C34.1247 52.016 34.3693 51.771 34.3693 51.4687C34.3693 51.1664 34.1247 50.9213 33.8231 50.9213C33.5214 50.9213 33.2769 51.1664 33.2769 51.4687C33.2769 51.771 33.5214 52.016 33.8231 52.016Z" fill="#848484"/>
<path d="M33.8231 60.8031C34.1247 60.8031 34.3693 60.558 34.3693 60.2557C34.3693 59.9534 34.1247 59.7084 33.8231 59.7084C33.5214 59.7084 33.2769 59.9534 33.2769 60.2557C33.2769 60.558 33.5214 60.8031 33.8231 60.8031Z" fill="#848484"/>
<path d="M37.1238 88.8358C37.4255 88.8358 37.67 88.5907 37.67 88.2884C37.67 87.9861 37.4255 87.7411 37.1238 87.7411C36.8222 87.7411 36.5776 87.9861 36.5776 88.2884C36.5776 88.5907 36.8222 88.8358 37.1238 88.8358Z" fill="#848484"/>
<path d="M37.1238 84.4452C37.4255 84.4452 37.67 84.2001 37.67 83.8978C37.67 83.5955 37.4255 83.3505 37.1238 83.3505C36.8222 83.3505 36.5776 83.5955 36.5776 83.8978C36.5776 84.2001 36.8222 84.4452 37.1238 84.4452Z" fill="#848484"/>
<path d="M37.1238 93.2322C37.4255 93.2322 37.67 92.9872 37.67 92.6849C37.67 92.3826 37.4255 92.1375 37.1238 92.1375C36.8222 92.1375 36.5776 92.3826 36.5776 92.6849C36.5776 92.9872 36.8222 93.2322 37.1238 93.2322Z" fill="#848484"/>
<path d="M33.8231 88.8358C34.1247 88.8358 34.3693 88.5907 34.3693 88.2884C34.3693 87.9861 34.1247 87.7411 33.8231 87.7411C33.5214 87.7411 33.2769 87.9861 33.2769 88.2884C33.2769 88.5907 33.5214 88.8358 33.8231 88.8358Z" fill="#848484"/>
<path d="M33.8231 84.4452C34.1247 84.4452 34.3693 84.2001 34.3693 83.8978C34.3693 83.5955 34.1247 83.3505 33.8231 83.3505C33.5214 83.3505 33.2769 83.5955 33.2769 83.8978C33.2769 84.2001 33.5214 84.4452 33.8231 84.4452Z" fill="#848484"/>
<path d="M33.8231 93.2322C34.1247 93.2322 34.3693 92.9872 34.3693 92.6849C34.3693 92.3826 34.1247 92.1375 33.8231 92.1375C33.5214 92.1375 33.2769 92.3826 33.2769 92.6849C33.2769 92.9872 33.5214 93.2322 33.8231 93.2322Z" fill="#848484"/>
<path d="M110.685 62.5864H102.686C101.834 62.5864 101.135 61.8861 101.135 61.0327V60.3676C101.135 59.5142 101.834 58.8138 102.686 58.8138H110.685C111.537 58.8138 112.235 59.5142 112.235 60.3676V61.0327C112.235 61.8861 111.542 62.5864 110.685 62.5864Z" fill="#7F5522"/>
<path d="M102.856 71.5206V89.4419C102.856 90.054 102.357 90.5602 101.74 90.5602H101.264C100.654 90.5602 100.148 90.0599 100.148 89.4419V71.5206C100.148 70.9085 100.648 70.4023 101.264 70.4023H101.74C102.357 70.4023 102.856 70.9085 102.856 71.5206Z" fill="#2B3238"/>
<path d="M108.811 61.8036C109.418 61.8036 109.909 61.3108 109.909 60.703C109.909 60.0952 109.418 59.6024 108.811 59.6024C108.205 59.6024 107.713 60.0952 107.713 60.703C107.713 61.3108 108.205 61.8036 108.811 61.8036Z" fill="#66431D"/>
<path d="M118.784 34.5067H22.7349L30.0469 0H111.478L118.784 34.5067Z" fill="#DA3510"/>
<path d="M76.1393 104.874H65.0215V163.552H76.1393V104.874Z" fill="#A56B2B"/>
<path d="M65.5673 163.27C65.5673 163.27 64.9565 162.24 68.3453 157.608C71.7341 152.976 83.8503 139.787 92.7658 136.52C84.0148 142.017 73.9013 162.405 73.9013 162.405L65.5673 163.27Z" fill="#387057"/>
<path d="M64.6279 163.252C64.6279 163.252 65.4149 144.907 73.7019 134.578C81.9889 124.249 80.0449 127.139 80.0449 127.139C80.0449 127.139 70.5539 140.899 70.5539 149.492C70.5539 158.09 71.3409 163.829 71.3409 163.829L64.6279 163.252Z" fill="#498264"/>
<path d="M72.0044 161.339C72.0044 161.339 72.6622 144.842 80.7436 137.98C77.7424 146.072 74.4887 156.189 74.2949 160.633C74.0952 165.071 72.997 163.829 72.997 163.829L72.0044 161.339Z" fill="#387057"/>
<path d="M89.4651 133.395C89.2889 136.143 77.7952 162.805 76.3915 163.611C73.9483 165.006 71.0234 164.129 71.0234 164.129C71.0234 164.129 79.4925 143.377 81.7478 141.017C84.0031 138.651 89.6354 130.682 89.4651 133.395Z" fill="#77BC9B"/>
<path d="M64.1168 163.564C57.4449 158.555 54.5964 141.287 46.3564 135.284C54.7491 138.851 66.1548 153.264 69.3439 158.32C72.5389 163.376 73.3728 163.605 71.9574 164.506C70.3012 165.571 65.7025 164.753 64.1168 163.564Z" fill="#77BC9B"/>
</g>
<defs>
<clipPath id="clip0">
<rect width="206" height="165" fill="white"/>
</clipPath>
</defs>
</svg>
