<svg width="269" height="272" viewBox="0 0 269 272" fill="none" xmlns="http://www.w3.org/2000/svg">
<g clip-path="url(#clip0)">
<path d="M23.1445 72.685C36.8384 55.7475 58.1473 52.3466 74.2793 50.1128C90.3778 47.9122 123.043 33.1086 141.012 19.0051C158.981 4.90168 166.529 25.5067 145.12 45.845C123.711 66.1834 109.082 65.0164 77.853 65.5832C46.6244 66.15 23.1445 72.685 23.1445 72.685Z" fill="#4B6978"/>
<path d="M94.3554 265.599C57.0815 253.229 53.8417 234.525 50.5686 204.45C47.2954 174.376 24.6505 155.872 16.6012 137.234C8.55196 118.596 20.509 113.628 20.509 113.628C20.509 113.628 52.0048 120.63 78.023 155.305C104.041 189.98 94.3554 265.599 94.3554 265.599Z" fill="#4B6978"/>
<path d="M23.1456 72.6847C8.8172 84.3208 0.934901 119.029 16.5993 137.234C32.2637 155.438 59.7515 169.642 62.9579 191.214C66.1642 212.786 55.2092 250.595 94.3534 265.599C133.498 280.602 183.029 266.899 198.727 248.661C214.425 230.423 206.91 190.98 231.024 172.342C255.105 153.705 268.733 136.567 269 89.4221C269.233 49.779 250.563 23.7727 223.676 10.7695C196.79 -2.23373 170.705 -4.86771 148.828 10.7695C126.951 26.4066 107.646 56.3807 82.697 57.681C57.7475 58.9813 40.7472 58.3478 23.1456 72.6847Z" fill="#273D47"/>
<path d="M31.0629 93.1564C31.561 93.1564 31.9647 92.7534 31.9647 92.2562C31.9647 91.759 31.561 91.356 31.0629 91.356C30.5649 91.356 30.1611 91.759 30.1611 92.2562C30.1611 92.7534 30.5649 93.1564 31.0629 93.1564Z" fill="#BADBD9"/>
<path d="M63.4925 117.029C64.6177 117.029 65.5298 116.119 65.5298 114.995C65.5298 113.872 64.6177 112.962 63.4925 112.962C62.3672 112.962 61.4551 113.872 61.4551 114.995C61.4551 116.119 62.3672 117.029 63.4925 117.029Z" fill="#BADBD9"/>
<path d="M73.0798 91.3896C73.7439 91.3896 74.2822 90.8522 74.2822 90.1893C74.2822 89.5264 73.7439 88.989 73.0798 88.989C72.4158 88.989 71.8774 89.5264 71.8774 90.1893C71.8774 90.8522 72.4158 91.3896 73.0798 91.3896Z" fill="#BADBD9"/>
<path d="M244.684 76.4523C245.348 76.4523 245.886 75.915 245.886 75.252C245.886 74.5891 245.348 74.0518 244.684 74.0518C244.02 74.0518 243.481 74.5891 243.481 75.252C243.481 75.915 244.02 76.4523 244.684 76.4523Z" fill="#BADBD9"/>
<path d="M201.267 26.4401C201.931 26.4401 202.47 25.9027 202.47 25.2398C202.47 24.5769 201.931 24.0396 201.267 24.0396C200.603 24.0396 200.065 24.5769 200.065 25.2398C200.065 25.9027 200.603 26.4401 201.267 26.4401Z" fill="#BADBD9"/>
<path d="M214.961 65.8166C215.459 65.8166 215.863 65.4135 215.863 64.9163C215.863 64.4192 215.459 64.0161 214.961 64.0161C214.463 64.0161 214.06 64.4192 214.06 64.9163C214.06 65.4135 214.463 65.8166 214.961 65.8166Z" fill="#BADBD9"/>
<path d="M170.538 244.16C171.423 244.16 172.141 243.444 172.141 242.56C172.141 241.676 171.423 240.96 170.538 240.96C169.652 240.96 168.935 241.676 168.935 242.56C168.935 243.444 169.652 244.16 170.538 244.16Z" fill="#BADBD9"/>
<path d="M131.027 253.829C131.525 253.829 131.929 253.426 131.929 252.929C131.929 252.432 131.525 252.029 131.027 252.029C130.529 252.029 130.125 252.432 130.125 252.929C130.125 253.426 130.529 253.829 131.027 253.829Z" fill="#BADBD9"/>
<path d="M211.687 131.233L168.368 160.54C168.368 160.54 105.711 68.2839 99.7655 59.4817C93.8204 50.6795 97.5611 31.5415 99.2979 25.1066C100.166 21.8391 104.375 19.0385 108.884 19.0385C113.393 19.0385 138.041 23.1728 143.152 30.2745C152.303 42.9777 211.687 131.233 211.687 131.233Z" fill="#DA3510"/>
<path d="M204.904 135.8L174.811 156.172C174.811 156.172 127.417 86.3549 122.909 79.72C118.4 73.085 120.537 59.0482 121.573 54.3804C122.107 52.0132 125.046 50.046 128.219 50.1794C131.425 50.3127 149.161 54.047 153.002 59.4483C159.949 69.0507 204.904 135.8 204.904 135.8Z" fill="#BADBD9"/>
<path opacity="0.61" d="M204.905 135.8L191.479 144.902C191.479 144.902 125.047 50.0125 128.22 50.1459C131.426 50.2793 149.162 54.0135 153.002 59.4148C159.95 69.0505 204.905 135.8 204.905 135.8Z" fill="#EBF2F2"/>
<path d="M153.74 100.025C158.517 100.025 162.39 96.1586 162.39 91.3894C162.39 86.6201 158.517 82.7539 153.74 82.7539C148.962 82.7539 145.089 86.6201 145.089 91.3894C145.089 96.1586 148.962 100.025 153.74 100.025Z" fill="#34515F"/>
<path d="M225.047 108.127L205.074 121.697C205.074 121.697 165.129 63.016 161.455 57.6147C157.781 52.2134 158.716 45.6784 158.716 40.9773C158.716 37.4764 161.989 35.5426 165.329 36.0761C169.804 36.8096 177.453 38.2099 181.027 43.4446C184.6 48.7125 225.047 108.127 225.047 108.127Z" fill="#BADBD9"/>
<path d="M160.787 148.47L140.814 162.007C140.814 162.007 100.868 103.326 97.1938 97.9245C93.5199 92.5232 94.4551 85.9882 94.4551 81.2871C94.4551 77.7862 97.7282 75.8524 101.068 76.3859C105.544 77.1194 113.192 78.5198 116.766 83.7544C120.34 88.989 160.787 148.47 160.787 148.47Z" fill="#BADBD9"/>
<path d="M196.689 66.5834L176.717 80.02L166.296 64.683L186.436 51.2797L196.689 66.5834Z" fill="#C59E57"/>
<path d="M123.01 92.8907L102.782 106.419L113.044 121.71L133.272 108.181L123.01 92.8907Z" fill="#C59E57"/>
<path d="M176.415 93.6233L241.176 119.163L216.26 137.234L199.894 128.398L176.415 93.6233Z" fill="#D3BC97"/>
<path d="M145.089 112.395L146.425 183.545L173.412 164.574L170.039 149.104L168.269 146.503L145.089 112.395Z" fill="#D3BC97"/>
<path d="M169.269 147.97L173.745 166.875L218.099 138.168L199.896 128.399L169.269 147.97Z" fill="#E8D6BA"/>
<path d="M146.424 183.546L173.411 164.574L178.521 172.176L150.466 191.247L146.424 183.546Z" fill="#E8D6BA"/>
<path d="M236.238 133.235L216.259 146.597L227.933 163.993L247.912 150.631L236.238 133.235Z" fill="#B6862D"/>
<path d="M182.075 169.486L162.097 182.848L173.771 200.244L193.75 186.882L182.075 169.486Z" fill="#B6862D"/>
<path d="M216.263 137.234L220.304 144.169L245.755 126.798L241.179 119.163L216.263 137.234Z" fill="#E8D6BA"/>
<path d="M223.677 147.103L179.322 175.81L173.745 166.875L218.099 138.168L223.677 147.103Z" fill="#DA3510"/>
<path d="M227.653 163.707L226.751 178.811L263.09 153.671L247.626 150.371L227.653 163.707Z" fill="#BADBD9"/>
<path d="M173.711 200.016L171.34 216.92L210.217 189.214L193.684 186.646L173.711 200.016Z" fill="#BADBD9"/>
<path d="M180.291 175.176L183.53 180.011L226.115 152.604L222.775 147.636L180.291 175.176Z" fill="#00A3A6"/>
<path opacity="0.2" d="M203.505 147.636L209.25 156.372L216.965 151.471L211.221 142.635L203.505 147.636Z" fill="white"/>
<path opacity="0.1" d="M146.491 86.6882C148.027 84.321 150.699 82.7539 153.738 82.7539C157.913 82.7539 161.387 85.7213 162.222 89.6556L146.491 86.6882Z" fill="white"/>
<path d="M169.267 147.97L199.894 128.398L198.726 126.631L168.265 146.503" fill="#C59E57"/>
<path d="M84.1675 168.341L91.983 191.247L142.316 188.913L143.285 167.208L84.1675 168.341Z" fill="#B3B3B3"/>
<path d="M66.1328 212.819C69.4728 215.42 72.7125 215.153 77.8227 215.42C82.9328 215.686 83.6008 212.852 84.536 210.652C85.4712 208.451 82.4986 208.318 80.6282 208.318C78.7578 208.318 66.1328 212.819 66.1328 212.819Z" fill="#868686"/>
<path d="M90.0774 228.156C90.0774 228.156 86.6373 233.091 85.3681 236.692C84.1323 240.326 84.3995 243.927 90.0774 243.36C95.7219 242.793 101.968 239.159 103.137 236.391C104.306 233.624 106.477 229.89 106.477 229.89L90.0774 228.156Z" fill="#868686"/>
<path d="M124.747 219.754C124.747 219.754 124.312 226.256 130.124 229.59C135.935 232.924 140.778 235.091 143.15 234.358C145.521 233.624 149.496 231.324 146.39 226.389C143.283 221.455 141.012 218.887 141.012 218.887L124.747 219.754Z" fill="#868686"/>
<path d="M166.831 209.652C166.53 214.386 163.624 218.354 169.002 218.654C174.379 218.954 174.813 219.821 177.418 215.887C180.023 211.952 182.929 210.152 181.192 207.318C179.456 204.484 175.381 202.083 175.381 202.083L166.831 209.652Z" fill="#868686"/>
<path d="M86.7392 220.188C85.8708 222.788 82.965 229.023 89.7785 229.89C96.5921 230.757 106.913 233.524 109.651 229.89C112.423 226.256 113.726 228.156 113.292 222.222C112.858 216.287 86.7392 220.188 86.7392 220.188Z" fill="#868686"/>
<path d="M74.2476 166.608C70.9744 166.041 68.9037 163.274 64.0941 168.342C59.318 173.409 52.6381 181.111 54.9427 188.346C57.2472 195.582 59.5852 199.649 59.8858 203.483C60.1864 207.318 59.0174 214.186 62.7915 213.853C66.5657 213.519 74.448 212.819 77.8213 211.652C81.1947 210.485 85.2694 210.919 87.3068 210.218C89.3442 209.485 87.0062 208.485 82.6643 194.148C78.3223 179.811 74.2476 166.608 74.2476 166.608Z" fill="#C9D6D6"/>
<path d="M85.7045 207.018C85.7045 207.018 85.1367 209.918 85.3037 215.42C85.4373 220.921 87.1741 222.088 99.5319 223.955C111.856 225.822 115.33 222.655 116.666 220.488C118.002 218.32 117.835 216.72 119.004 217.454C120.173 218.187 122.644 221.788 129.725 222.088C136.806 222.388 141.215 224.555 143.319 221.521C145.389 218.487 146.993 218.254 147.427 213.886C147.861 209.518 150.032 203.317 147.995 203.517C145.957 203.684 85.7045 207.018 85.7045 207.018Z" fill="#B3B3B3"/>
<path d="M78.6897 144.302C78.6897 144.302 73.9804 143.269 71.8094 144.302C69.6384 145.336 68.6031 160.106 69.4714 162.874C70.3398 165.641 79.3243 162.874 79.3243 162.874L78.6897 144.302Z" fill="#B6862D"/>
<path d="M74.2476 166.608C70.9744 166.041 68.9037 163.274 64.0941 168.342C59.318 173.409 52.6381 181.111 54.9427 188.346C55.7442 190.88 57.4142 197.015 61.0214 197.615C67.7013 198.716 77.8881 193.014 79.2909 196.315C80.1259 198.282 80.7939 186.279 79.2909 182.712C73.5796 168.842 74.2476 166.608 74.2476 166.608Z" fill="#EBF2F2"/>
<path d="M158.714 159.073C165.828 160.073 163.924 175.01 169.301 182.979C174.679 190.947 177.585 199.95 178.887 203.484C180.19 207.018 180.557 206.918 178.52 208.318C176.482 209.752 177.818 211.686 174.478 213.853C171.138 216.02 167.197 216.72 163.724 215.42C160.25 214.12 160.183 209.619 157.979 207.585C155.808 205.551 152.335 204.717 150.431 201.283C148.56 197.882 150.297 191.047 152.168 184.846C154.071 178.644 156.676 158.806 158.714 159.073Z" fill="#EBF2F2"/>
<path d="M82.6963 199.849C82.9969 201.983 86.0362 207.618 87.3388 210.219C88.6414 212.819 90.5452 213.553 100.966 213.853C111.386 214.153 143.483 212.119 146.389 208.918C149.295 205.717 152.769 195.048 152.769 195.048L91.9814 200.383L82.6963 199.849Z" fill="#DAE0E0"/>
<path d="M79.2915 161.173C79.2915 161.173 70.9082 160.573 70.7746 163.874C70.641 167.175 75.5842 185.279 77.1539 191.214C78.7571 197.149 82.7985 203.25 95.8577 203.384C108.917 203.517 142.283 204.117 150.132 198.182C157.981 192.248 158.281 165.241 158.682 161.574C159.083 157.906 146.191 157.306 146.191 157.306L141.548 168.342C141.548 168.342 139.678 182.679 139.678 184.412C139.678 186.146 129.658 188.313 116.599 188.48C103.54 188.647 93.2525 186.88 91.0482 185.579C88.8772 184.279 83.3663 164.074 83.3663 164.074L79.2915 161.173Z" fill="#C59E57"/>
<path d="M148.028 142.636C148.028 142.636 155.677 141.669 157.246 142.636C158.85 143.602 161.455 158.94 160.586 160.84C159.718 162.707 147.394 160.973 147.394 160.973L148.028 142.636Z" fill="#B6862D"/>
<path d="M23.1459 160.34C35.929 160.34 46.2918 149.995 46.2918 137.234C46.2918 124.473 35.929 114.129 23.1459 114.129C10.3628 114.129 0 124.473 0 137.234C0 149.995 10.3628 160.34 23.1459 160.34Z" fill="white"/>
<path d="M90.9477 124.764C84.1676 128.965 76.4523 140.401 78.0221 155.338C79.6253 170.242 92.6845 182.712 110.086 186.179C127.487 189.647 144.02 174.143 147.36 160.973C150.699 147.803 148.362 131.999 135.603 124.764C122.844 117.529 103.439 116.995 90.9477 124.764Z" fill="#EBF2F2"/>
<path d="M84.5684 147.07C84.5684 147.07 89.9457 135.734 111.989 135.934C134.167 136.1 136.605 141.168 141.014 144.269C137.44 136.8 131.127 130.266 112.691 130.699C94.2542 131.132 86.3051 137.201 84.5684 147.07Z" fill="#C59E57"/>
<path d="M84.5664 147.07C83.6312 151.271 82.9632 171.542 99.7965 178.211C116.63 184.879 135.2 179.944 140.41 167.641C145.621 155.338 142.882 145.036 138.54 140.835C134.198 136.634 130.09 133.633 115.762 132.766C101.166 131.899 86.7373 137.367 84.5664 147.07Z" fill="#273D47"/>
<path d="M88.3086 168.342C88.3086 168.342 95.3559 176.877 107.346 178.911V182.979C107.346 182.979 92.6171 178.344 88.3086 168.342Z" fill="#EFAD43"/>
<path d="M107.347 178.911C107.347 178.911 110.687 178.911 114.595 178.911C118.503 178.911 121.709 178.911 121.709 178.911L122.444 182.979C122.444 182.979 119.538 183.545 114.895 183.545C110.253 183.545 107.347 182.979 107.347 182.979V178.911Z" fill="#C59E57"/>
<path d="M121.708 178.911C121.708 178.911 135.502 175.31 141.012 166.174C138.541 173.71 131.995 179.378 122.442 182.979L121.708 178.911Z" fill="#EFAD43"/>
<path d="M91.4484 149.937C91.4484 149.937 92.7844 154.272 94.3207 155.105C95.8905 155.939 102.637 151.971 102.637 151.971L100.934 144.202C100.967 144.169 91.248 146.003 91.4484 149.937Z" fill="#34515F"/>
<path d="M97.8276 157.305C97.8276 157.305 99.0634 159.839 100.333 160.506C101.602 161.206 102.671 159.073 102.671 159.073C102.671 159.073 101.836 156.805 101.836 156.172C101.802 155.505 97.8276 157.305 97.8276 157.305Z" fill="#34515F"/>
<path opacity="0.7" d="M127.587 147.236C128.085 147.236 128.489 146.833 128.489 146.336C128.489 145.839 128.085 145.436 127.587 145.436C127.089 145.436 126.686 145.839 126.686 146.336C126.686 146.833 127.089 147.236 127.587 147.236Z" fill="#BADBD9"/>
<path opacity="0.7" d="M117.098 160.54C117.338 160.54 117.532 160.346 117.532 160.106C117.532 159.867 117.338 159.673 117.098 159.673C116.858 159.673 116.664 159.867 116.664 160.106C116.664 160.346 116.858 160.54 117.098 160.54Z" fill="#BADBD9"/>
<path opacity="0.7" d="M113.024 153.872C113.263 153.872 113.458 153.678 113.458 153.438C113.458 153.199 113.263 153.005 113.024 153.005C112.784 153.005 112.589 153.199 112.589 153.438C112.589 153.678 112.784 153.872 113.024 153.872Z" fill="#BADBD9"/>
</g>
<defs>
<clipPath id="clip0">
<rect width="269" height="272" fill="white"/>
</clipPath>
</defs>
</svg>
