<svg width="257" height="257" viewBox="0 0 257 257" fill="none" xmlns="http://www.w3.org/2000/svg">
<g clip-path="url(#clip0)">
<path d="M86.7976 129.892L38.2939 243.496C38.2939 243.496 52.9652 257 73.8022 257C94.6392 257 110.702 247.892 126.638 237.708C140.297 228.979 145.04 230.529 154.304 228.188C146.21 191.121 130.369 129.892 130.369 129.892H86.7976Z" fill="#34515F"/>
<path d="M199.961 210.193C221.051 173.79 239.137 135.047 248.086 115.312C262.03 84.6339 260.164 62.3685 238.41 38.7116C216.656 15.0547 199.961 25.7762 199.961 25.7762V210.193Z" fill="#E2EDEC"/>
<path d="M2.945 117.368C1.52214 95.8299 -3.78987 65.8793 4.71567 43.1079C13.2212 20.3366 43.5755 -3.35197 103.367 12.4931C163.159 28.3382 2.945 117.368 2.945 117.368Z" fill="#E2EDEC"/>
<path d="M44.2056 21.317C44.2056 21.317 58.7504 10.1527 89.0731 10.0894C122.653 10.0894 142.826 -4.42732 182.508 1.32877C215.044 6.04118 237.24 25.7447 245.177 69.8326C249.761 95.2606 231.169 99.3721 216.498 163.353C214 174.233 158.92 71.0344 158.92 71.0344L77.9115 59.1743L44.2056 21.317Z" fill="#9DC6C2"/>
<path d="M154.302 228.22L150.824 46.8396L130.398 56.8653V129.892L154.302 228.22Z" fill="#9DC6C2"/>
<path d="M86.7989 56.8653L40.9512 25.7761C40.9512 25.7761 23.2129 35.6121 15.4979 71.7932C7.7828 107.974 13.8853 136.755 22.0114 168.382C30.1375 200.009 30.9912 216.486 31.3706 228.062C31.7501 239.637 38.3268 243.496 38.3268 243.496L86.7989 129.892V56.8653Z" fill="#D1E5E4"/>
<path d="M150.824 46.8396H220.165C220.165 46.8396 258.961 58.8894 242.045 94.9124C223.453 134.509 218.521 160.601 218.521 160.601L175.455 222.021C175.455 222.021 159.14 226.955 154.302 228.22C153.828 203.266 150.824 46.8396 150.824 46.8396Z" fill="#BADBD9"/>
<path d="M150.824 46.8396V36.1497H220.102L220.165 46.8396H150.824Z" fill="#E8D6BA"/>
<path d="M150.824 36.1497L130.398 56.8653L150.824 46.8395V36.1497Z" fill="#C59E57"/>
<path d="M38.6724 24.1632C38.6724 24.1632 43.0674 21.4749 46.3242 20.5261C55.2092 27.8636 86.7966 56.8338 86.7966 56.8338L38.6724 24.1632Z" fill="#C59E57"/>
<path d="M71.6511 165.598V74.3865L36.3325 50.698L38.6407 241.598L71.6511 165.598Z" fill="white"/>
<path d="M71.6537 74.2917H62.6738V165.599H71.6537V74.2917Z" fill="#E8D6BA"/>
<path d="M62.6701 74.6083L36.5527 57.34V50.0342L71.9661 74.6083H62.6701Z" fill="#C59E57"/>
<path d="M178.557 107.784C178.557 107.784 177.45 111.864 177.134 112.149C176.818 112.434 186.778 113.066 187.284 113.066C187.789 113.066 184.912 105.507 184.912 105.507L178.557 107.784Z" fill="#93343D"/>
<path d="M179.218 111.58C179.218 111.58 172.294 108.291 166.286 109.841C160.278 111.39 159.931 113.288 159.551 117.305C159.172 121.321 161.385 135.933 163.219 147.951C165.053 159.969 171.44 178.091 171.977 181.381C172.515 184.67 173.084 185.935 173.432 187.579C173.811 189.224 176.151 187.674 176.151 182.488C176.151 177.301 180.009 163.891 178.206 156.901C176.404 149.912 173.4 139.159 173.4 133.244C173.4 127.33 178.459 112.908 179.218 111.58Z" fill="#93343D"/>
<path d="M181.497 112.149L178.145 111.232C178.145 111.232 175.963 115.059 175.521 118.063C175.078 121.068 172.074 130.145 170.873 134.256C169.703 138.336 166.604 143.175 169.039 148.267C171.505 153.359 173.845 152.916 175.236 157.376C176.596 161.835 174.066 174.834 171.315 185.745C168.564 196.656 167.584 199.218 168.944 203.298C171.126 202.665 181.939 198.933 190.571 198.554C199.203 198.174 213.495 198.649 214.475 198.649C215.456 198.649 215.013 195.549 214.918 191.564C214.823 187.548 211.282 162.815 210.997 156.838C210.713 150.86 206.824 119.74 205.907 117.747C205.053 115.691 181.497 112.149 181.497 112.149Z" fill="#DA3510"/>
<path d="M200.784 121.321C203.852 112.118 214.317 127.868 216.879 135.142C219.44 142.416 223.139 158.071 226.238 166.516C229.337 174.96 232.245 181.95 230.791 191.153C230.253 194.537 226.238 193.999 223.234 193.999C220.23 193.999 211.598 190.71 206.792 189.002C201.986 187.263 201.607 186.915 195.061 186.441C188.516 185.998 183.046 186.251 175.774 181.254C168.501 176.257 168.849 173.157 168.786 171.418C168.723 169.678 169.608 165.156 170.62 164.587C171.632 164.049 173.434 163.132 179.252 165.124C185.07 167.117 192.437 167.749 196.895 167.939C201.354 168.129 205.432 169.678 207.614 170.754C202.713 162.752 201.259 158.736 198.887 151.746C196.516 144.756 195.978 140.012 195.947 138.747C195.883 137.514 200.152 123.219 200.784 121.321Z" fill="#DA3510"/>
<path d="M179.221 165.156C185.039 167.148 192.406 167.781 196.865 167.971C201.323 168.16 205.402 169.71 207.583 170.785C202.683 162.784 201.228 158.767 198.857 151.778C196.485 144.788 195.948 140.044 195.916 138.779C195.916 138.779 194.778 142.226 194.778 146.591C194.778 150.418 197.371 154.782 198.604 157.218C200.88 161.772 204.453 166.737 205.528 168.761C201.165 166.579 194.303 166.294 192.881 166.484C187.916 167.117 177.862 163.385 175.553 162.847L175.458 163.986C176.881 164.587 179.221 165.156 179.221 165.156Z" fill="#93343D"/>
<path d="M170.399 202.823C170.21 204.089 165.973 219.839 166.542 224.741C179.221 221.262 181.308 219.238 187.474 218.289C193.639 217.309 200.88 215.791 205.022 213.26C209.164 210.762 214.951 206.903 215.046 197.826C200.374 194.822 197.687 195.802 191.616 195.802C185.545 195.802 170.399 202.823 170.399 202.823Z" fill="#448269"/>
<path d="M169.101 84.634C168.469 85.9307 167.742 86.8163 167.615 90.8645C167.489 94.9128 167.742 95.3555 166.92 96.7155C166.098 98.0755 164.801 100.447 165.054 101.207C165.307 101.966 167.236 101.396 167.963 102.377C168.659 103.357 169.449 106.994 170.145 109.967C170.84 112.94 171.884 114.806 174.635 113.699C177.386 112.592 180.674 109.271 182.287 109.082C183.899 108.892 186.081 108.038 187.029 107.279C188.01 106.52 186.397 91.845 182.476 88.4925C178.555 85.1717 169.101 84.634 169.101 84.634Z" fill="#A07C4D"/>
<path d="M167.806 88.5552C167.806 88.5552 163.853 87.1636 163.569 84.0642C163.316 80.9648 164.328 79.0355 167.047 76.0942C166.857 80.016 166.225 80.9015 167.237 82.3247C168.28 83.7479 169.102 84.6335 169.102 84.6335C169.102 84.6335 167.964 86.2465 167.806 88.5552Z" fill="#34515F"/>
<path d="M169.103 84.6338C169.103 84.6338 167.585 83.6534 166.732 81.2181C165.878 78.7828 165.372 76.2843 169.103 74.102C172.834 71.9198 176.122 73.1216 179.569 71.5403C183.047 69.9273 184.059 67.8715 188.201 68.0613C192.343 68.2511 198.667 72.0463 201.07 73.849C203.441 75.6518 203.821 76.4108 204.105 83.0525C204.39 89.6941 204.169 93.2047 208.342 96.8734C212.516 100.542 215.235 102.345 216.816 110.568C218.397 118.791 221.116 126.318 218.555 128.311C215.994 130.303 213.401 128.627 210.777 126.571C208.153 124.515 206.477 122.586 204.074 123.155C201.702 123.725 199.521 128.88 194.746 129.639C190.003 130.398 185.545 129.354 184.185 125.306C182.826 121.258 186.936 116.387 185.735 109.682C184.533 102.977 182.004 103.199 180.012 101.143C178.02 99.0873 175.458 95.9878 173.783 92.0661C172.107 88.1444 172.455 85.6142 169.103 84.6338Z" fill="#273D47"/>
<path d="M211.185 99.4038C213.778 101.839 215.612 104.401 216.813 110.568C218.426 118.791 221.113 126.318 218.552 128.311C215.991 130.303 213.398 128.627 210.774 126.571C208.15 124.516 206.474 122.586 204.071 123.156C202.3 123.598 200.624 126.603 197.873 128.406C197.873 128.406 192.846 120.088 198.854 114.015C203.47 109.366 207.201 112.466 210.679 108.228C212.766 105.729 211.185 99.4038 211.185 99.4038Z" fill="#34515F"/>
<path d="M190.857 68.5355C194.683 69.674 199.141 72.3939 201.07 73.8171C202.999 75.272 203.6 76.0627 203.916 79.8263C203.979 80.7118 199.521 80.2058 195.916 77.1063C192.754 74.3864 189.909 68.2824 190.857 68.5355Z" fill="#34515F"/>
<path d="M130.401 56.8652H86.7983V129.923H130.401V56.8652Z" fill="#172D36"/>
<path d="M96.7313 109.495C95.1658 120.901 98.2968 136.266 96.7313 142.593C95.1658 148.877 89.7499 168.976 89.3691 182.749C88.9883 196.521 89.0306 202.848 93.2618 204.01C97.4929 205.172 100.582 208.744 100.582 209.906C100.582 211.069 96.689 217.008 96.689 224.884C96.689 232.76 98.5083 237.107 104.94 238.269C111.413 239.432 112.936 233.535 112.936 226.434C112.936 219.332 110.99 212.661 110.99 209.089C110.99 205.516 112.133 205.559 115.264 205.559C118.395 205.559 121.864 205.947 121.06 193.724C120.299 181.5 119.918 173.237 117.971 160.626C116.025 148.016 116.829 143.669 117.21 129.509C117.591 115.349 117.21 101.146 117.21 99.9837C117.252 98.8216 96.7313 109.495 96.7313 109.495Z" fill="#172D36"/>
<path d="M70.7033 172.209L36.3018 165.219L38.2938 243.496L70.7033 172.209Z" fill="#34515F"/>
<path d="M67.8567 163.132L73.7062 162.626C73.7062 162.626 78.5756 164.302 79.3977 171.165C80.2198 178.06 76.6468 178.566 74.6548 179.04C72.6628 179.515 69.2795 179.515 69.2795 179.515C69.2795 179.515 66.4338 176.953 65.9595 173.411C65.5169 169.9 67.8567 163.132 67.8567 163.132Z" fill="#273D47"/>
<path d="M69.2634 179.521C72.4991 179.238 74.8321 175.693 74.4741 171.604C74.1162 167.515 71.2029 164.43 67.9672 164.713C64.7315 164.997 62.3986 168.541 62.7565 172.63C63.1144 176.72 66.0277 179.805 69.2634 179.521Z" fill="#273D47"/>
<path d="M39.0186 168.319L47.2079 166.832L57.2944 143.713L65.5153 142.448L67.2544 143.302L70.6693 172.209L53.0574 176.636C53.0574 176.636 50.6544 171.956 47.9984 170.849C45.374 169.773 39.0186 168.319 39.0186 168.319Z" fill="#00A3A6"/>
<path d="M57.896 175.435L61.8484 150.987L64.8206 150.734L64.536 173.759L57.896 175.435Z" fill="#038989"/>
<path d="M52.678 177.079C53.1206 182.234 49.3263 186.757 44.1724 187.231C41.8326 187.453 39.3979 187.295 37.6273 185.998C35.5404 184.448 33.9595 180.779 33.7065 177.996C33.4852 175.434 34.3073 172.809 35.8566 170.975C37.4059 169.141 39.9671 168.824 42.5282 168.603C47.6821 168.129 52.2353 171.924 52.678 177.079Z" fill="#273D47"/>
<path d="M47.1168 178.882C47.5594 183.974 45.9469 186.978 42.2474 187.295C38.548 187.611 34.0264 183.942 33.5838 178.85C33.1411 173.758 35.0383 170.564 38.7377 170.026C43.196 169.362 46.6741 173.758 47.1168 178.882Z" fill="#34515F"/>
<path d="M40.8671 184.17C42.7677 183.891 43.9631 181.311 43.5371 178.408C43.1111 175.504 41.2251 173.377 39.3245 173.656C37.424 173.935 36.2286 176.515 36.6546 179.418C37.0806 182.321 38.9666 184.449 40.8671 184.17Z" fill="#273D47"/>
<path d="M39.9999 180.008C40.3801 179.952 40.6183 179.431 40.5321 178.843C40.4459 178.256 40.0679 177.825 39.6878 177.88C39.3076 177.936 39.0694 178.458 39.1556 179.045C39.2418 179.633 39.6198 180.064 39.9999 180.008Z" fill="#DA3510"/>
<path d="M41.8356 167.813C41.8356 167.813 36.1758 160.064 35.6066 156.617C35.0691 153.17 33.6462 153.106 33.6462 153.106C33.6462 153.106 31.7175 154.118 31.5594 153.296C31.4013 152.474 32.8558 148.109 32.8558 148.109C32.8558 148.109 34.8161 147.761 35.9228 147.856C36.9979 147.919 37.7883 149.532 37.6619 151.367C37.5354 153.201 38.9582 159.242 41.2981 161.804C43.6063 164.365 47.2425 166.832 47.2425 166.832L41.8356 167.813Z" fill="#DA3510"/>
<path d="M35.9219 147.824C35.9219 147.824 48.1901 138.4 48.8225 137.957C49.4549 137.482 51.1307 137.577 52.68 138.368C54.261 139.159 57.328 143.713 57.328 143.713L56.3478 145.99C56.3478 145.99 51.6998 139.317 50.7196 139.38C49.7394 139.475 37.2183 148.837 37.2183 148.837L35.9219 147.824Z" fill="#D3BC97"/>
<path d="M52.8143 141.115C53.5101 141.054 54.015 140.327 53.9418 139.492C53.8687 138.657 53.2454 138.029 52.5495 138.09C51.8537 138.151 51.3488 138.878 51.4219 139.713C51.495 140.548 52.1184 141.176 52.8143 141.115Z" fill="#DA3510"/>
<path d="M28.2048 175.369C31.7363 175.06 34.2324 170.62 33.78 165.452C33.3277 160.284 30.0981 156.345 26.5666 156.654C23.0352 156.963 20.5391 161.404 20.9915 166.572C21.4438 171.74 24.6734 175.678 28.2048 175.369Z" fill="#34515F"/>
<path d="M29.1875 177.858C33.6932 177.464 36.879 171.812 36.3033 165.234C35.7275 158.657 31.6082 153.645 27.1026 154.039C22.5969 154.434 19.4111 160.086 19.9868 166.663C20.5626 173.241 24.6819 178.253 29.1875 177.858Z" fill="#273D47"/>
<path d="M31.5584 153.296L25.5508 165.662C26.4677 166.738 32.5386 153.549 32.5386 153.549L31.5584 153.296Z" fill="#D3BC97"/>
<path d="M34.4346 152.727L31.9683 157.755L32.6639 159.179L35.225 152.98L34.4346 152.727Z" fill="#D3BC97"/>
<path d="M31.6225 142.954L30.5475 149.058C30.5475 149.058 30.5159 149.817 31.4328 149.817C32.3498 149.817 33.1403 143.239 33.1403 143.239C33.1403 143.239 32.413 141.974 31.6225 142.954Z" fill="#B6862D"/>
<path d="M31.6206 142.954C31.6206 142.954 31.7155 140.613 32.2846 140.297C32.8221 140.013 34.1501 140.234 34.2134 141.183C34.2766 142.132 34.5612 149.026 34.5612 149.026L33.0751 149.153L32.9802 142.479L31.6206 142.954Z" fill="#D3BC97"/>
<path d="M86.798 56.8653L38.6737 24.1631C38.6737 24.1631 15.5286 35.612 7.81351 71.7932C0.0984478 107.974 2.02721 136.755 10.1217 168.382C18.2162 200.008 13.0939 204.341 25.5518 228.188C30.9271 238.467 38.2943 243.495 38.2943 243.495L38.0097 218.763L36.5553 49.7492L71.6208 74.3866V137.039L86.7348 129.923V56.8653H86.798Z" fill="#D1E5E4"/>
<path d="M38.293 243.496L36.5855 49.7495L31.811 41.5581L33.4552 238.752L38.293 243.496Z" fill="#E8D6BA"/>
<path d="M31.811 41.5581L75.3505 71.9515L71.6511 74.3868L36.5855 50.0341L31.811 41.5581Z" fill="#E8D6BA"/>
<path d="M75.3503 71.9512V156.711L72.884 162.689L71.6509 162.784V74.3864L75.3503 71.9512Z" fill="#C59E57"/>
</g>
<defs>
<clipPath id="clip0">
<rect width="257" height="257" fill="white"/>
</clipPath>
</defs>
</svg>
