<svg width="211" height="153" viewBox="0 0 211 153" fill="none" xmlns="http://www.w3.org/2000/svg">
<g clip-path="url(#clip0)">
<path d="M50.3683 7.9662C66.3869 5.93522 76.5088 29.0178 99.9378 27.0796C123.367 25.1414 194.805 18.4827 207.072 38.9223C219.339 59.3619 202.123 111.908 164.978 127.209C127.833 142.511 114.211 158.175 79.4433 151.368C44.6852 144.561 8.89635 95.4094 11.3758 65.8721C13.8552 36.3349 34.229 10.0064 50.3683 7.9662Z" fill="#D6ECEB"/>
<path d="M50.3683 7.9662C66.3869 5.93522 76.5088 29.0178 99.9378 27.0796C123.367 25.1414 194.805 18.4827 207.072 38.9223C219.339 59.3619 202.123 111.908 164.978 127.209C127.833 142.511 114.211 158.175 79.4433 151.368C44.6852 144.561 8.89635 95.4094 11.3758 65.8721C13.8552 36.3349 34.229 10.0064 50.3683 7.9662Z" fill="#D6ECEB"/>
<path d="M50.3684 14.8474C66.387 12.8164 76.5089 29.0271 99.9472 27.0796C123.385 25.1321 186.466 16.5445 198.743 36.9934C206.627 50.1252 204.667 68.7563 200.748 82.7877C194.471 105.314 176.279 121.571 156.231 132.254C133.154 144.551 106.178 156.608 79.4619 151.368C44.7039 144.561 13.8367 95.4094 16.3161 65.8722C18.7955 36.3349 34.2291 16.8877 50.3684 14.8474Z" fill="#B3DDD7"/>
<path d="M33.4022 119.596L64.9287 130.993L91.5057 69.2664C91.5057 69.2664 85.3861 53.3896 79.4523 50.3292C72.9891 46.9999 61.0935 40.0074 61.0935 40.0074C55.429 41.4634 43.0784 44.7556 38.1289 55.5782C34.6001 63.3033 27.1898 90.2809 23.2339 105.082C26.2055 110.053 29.6228 114.949 33.4022 119.596Z" fill="#34515F"/>
<path d="M92.6574 13.6047C93.0474 14.8011 91.348 17.9171 91.3016 21.673C91.2552 25.7813 92.4252 29.4074 91.6638 32.2266C91.2087 33.9145 89.0172 34.0814 88.5808 35.7229C85.7671 46.1745 85.5813 43.9024 79.3875 41.7323C70.3985 38.5885 69.4327 58.045 69.4327 58.045L61.103 39.9981L68.7548 2.40193C68.7455 2.40193 87.6429 -1.78985 92.6574 13.6047Z" fill="#B28160"/>
<path d="M87.1321 3.72808C89.5836 5.1748 94.5424 2.98617 94.6167 4.51635C94.691 6.04654 95.2389 13.7438 92.6573 14.6156C90.0758 15.4873 77.038 13.4563 75.6637 14.9587C74.28 16.4611 73.9365 21.9234 73.9365 21.9234C73.9365 21.9234 74.3265 20.3561 71.8471 19.4844C69.3677 18.6126 68.1233 22.2665 69.2655 25.1229C70.4077 27.9792 63.1088 35.8805 63.1088 35.8805C63.1088 35.8805 62.078 36.3164 61.3166 34.6193C60.5551 32.9222 51.4454 15.3853 60.1465 6.25984C65.5603 0.593514 75.4501 -3.17167 87.1321 3.72808Z" fill="#2B3238"/>
<path d="M122.215 61.4022C128.363 62.0792 137.798 63.2477 140.518 68.8955C143.239 74.5432 147.177 135.055 147.177 135.055L68.105 133.08C68.105 133.08 79.5548 81.2668 86.6959 71.3716C93.8369 61.4764 111.091 60.3542 111.091 60.3542L122.215 61.4022Z" fill="#D1A282"/>
<path d="M132.922 16.6651L127.183 10.1085C127.183 10.1085 118.696 17.4163 112.418 27.7196C106.531 37.3829 102.835 50.051 102.891 50.6353C103.002 51.8594 101.563 58.8519 101.563 58.8519C101.488 59.2414 107.543 61.7453 108.137 62.0421C110.821 63.3775 113.7 64.3327 116.653 64.8521C117.6 65.019 122.624 65.9928 122.438 64.0916C122.067 60.345 121.714 55.6617 121.742 54.6786C121.955 53.5565 122.512 51.7759 123.116 51.3864C123.719 50.9969 131.659 52.0634 133.154 51.6276C134.649 51.1917 136.079 49.9119 135.959 48.4003C135.838 46.8886 135.791 44.6443 136.2 42.9843C136.609 41.3243 139.218 38.0043 139.413 36.7338C139.608 35.454 136.859 32.3101 136.469 29.5836C136.079 26.8571 136.469 24.2326 136.256 22.8879C135.949 20.9682 132.922 16.6651 132.922 16.6651Z" fill="#9B5E43"/>
<path d="M196.625 99.8608L194.805 76.7133L150.9 67.1427L142.06 62.9787C136.302 63.0158 127.713 67.3745 124.843 73.2263C121.974 79.0781 113.588 148.901 113.588 148.901L131.641 142.938C141.075 138.375 151.476 132.764 164.987 127.2C178.201 121.766 188.89 111.611 196.625 99.8608Z" fill="#46827B"/>
<path d="M133.247 17.6852C134.064 15.3482 129.839 11.5274 128.223 10.3403C120.441 4.66474 108.824 8.54121 103.717 15.7748C94.4772 28.8602 86.3797 49.1885 90.7813 65.2508C91.8306 69.0717 110.245 70.945 112.019 67.3653C114.619 62.1163 113.282 55.0403 114.572 49.3183C115.287 46.1467 116.374 42.4001 115.027 39.2006C113.811 36.3164 109.474 32.4585 112.269 29.8989C114.201 28.1276 118.361 33.627 118.361 33.627C118.361 33.627 131.455 22.8137 133.247 17.6852Z" fill="#602D29"/>
<path d="M13.0937 79.5789C13.0194 79.6624 12.8615 79.7644 12.6387 79.8849C15.9167 94.0368 24.8407 110.016 36.5784 123.351C36.7084 123.5 37.5256 124.418 37.7113 124.613C43.7287 131.188 52.8384 122.396 52.8384 122.396L63.9168 90.5313C63.9168 90.5313 46.3753 77.1862 39.0392 77.4181C31.6846 77.6407 13.0937 79.5789 13.0937 79.5789Z" fill="#008C88"/>
<path d="M48.9291 32.5048C49.5977 34.5265 50.2292 36.5297 50.9813 38.5235C51.4271 39.7199 52.2907 41.2686 52.2907 42.5855C52.2907 43.8004 51.2878 46.1374 51.2878 47.0184C51.2878 47.9087 51.0649 49.7913 52.2907 50.7836C53.5072 51.7851 55.6151 54.9475 55.6244 56.8765C55.6244 58.2212 52.0678 58.5365 51.8542 58.8704C51.6406 59.2042 49.4491 69.6837 48.5205 70.509C47.1554 71.7239 41.4909 70.5276 39.7079 70.1937C39.1601 70.0917 38.64 71.8816 38.5193 72.1969C38.2964 72.7904 38.1386 73.4118 37.9157 74.0053C37.6464 74.7286 37.1821 75.7024 37.3678 76.4814C37.4793 76.9451 38.8722 77.1398 38.9465 77.5943C39.03 78.0858 38.7608 78.5309 38.6772 79.0039C38.575 79.5882 38.4636 80.1724 38.3522 80.7567C38.1293 81.9344 37.9157 83.1122 37.6836 84.29C37.3121 86.2375 36.9314 88.185 36.5506 90.1325C36.5135 90.3458 36.0771 91.6441 36.2163 91.8111C36.2163 91.8111 24.7294 81.0812 19.0648 75.7673C13.4003 70.4441 22.5378 52.2859 25.5373 43.8838C28.5367 35.4817 34.0805 24.5015 38.5286 25.1692C42.8095 25.8091 47.4433 27.9977 48.8919 32.3472C48.8919 32.4028 48.9105 32.4492 48.9291 32.5048Z" fill="#E2AD96"/>
<path d="M85.2375 123.379C81.4023 120.718 76.0721 119.651 76.0721 119.651C76.0721 119.651 58.0662 108.226 52.4109 111.527C48.6593 113.716 41.8526 120.375 37.6924 124.613C49.8015 137.995 64.7151 148.484 79.4429 151.368C84.4667 152.351 89.0355 152.852 93.3072 152.963C93.5858 148.688 94.1058 139.507 93.6786 135.918C93.1122 131.179 88.2369 125.457 85.2375 123.379Z" fill="#DA3510"/>
<path d="M87.5779 75.2944C88.2001 76.6298 92.2117 81.6191 91.4131 86.7754C90.6145 91.9409 90.3638 89.8636 90.3638 90.6426C90.3638 91.4216 90.4009 92.5437 91.1067 93.3691C91.8124 94.1945 94.9883 97.7464 94.9883 98.5254C94.9883 99.3136 95.8519 100.009 93.0475 101.706C93.2518 104.21 92.5367 107.224 92.156 110.266C92.091 110.785 92.026 115.061 91.0138 115.701C90.0016 116.34 84.2721 119.401 78.0596 118.807C76.8338 120.467 76.416 122.47 76.1931 124.483C75.8495 127.59 75.7474 130.604 71.81 129.954C66.5819 129.092 62.2082 125.336 58.698 121.608C56.8315 119.614 55.1228 117.472 53.507 115.265C51.6312 112.677 52.142 111.481 53.6463 108.754C55.4107 105.536 51.5941 100.158 50.2569 97.125C48.9754 94.2223 46.6167 90.3551 46.6167 87.0814C46.6167 83.9932 47.2389 78.1693 50.5076 74.2835C53.7763 70.3978 56.8686 66.2524 63.3225 65.8072C69.7764 65.3621 82.4148 68.0979 83.8263 69.6002C85.2657 71.0933 87.5779 75.2944 87.5779 75.2944Z" fill="#492F2C"/>
<path d="M87.5779 75.2943C87.2622 72.6513 84.8292 67.1704 83.4549 67.3281C82.0805 67.4765 81.5326 67.2446 80.1676 66.4935C78.7932 65.733 76.7131 66.0298 75.1995 65.7515C73.6859 65.4733 72.0143 64.4347 70.8814 64.5923C69.7485 64.7407 67.7613 63.4145 66.2384 64.583C64.7154 65.7515 63.7961 66.0019 61.976 65.7515C60.1559 65.5012 58.6423 66.9293 58.2244 67.1519C57.8065 67.3745 57.2308 67.4023 55.6521 68.8212C54.0735 70.2401 51.4641 69.1551 51.3062 70.5183C51.1948 71.4828 51.6127 72.132 50.7955 72.9017C50.4798 73.1985 50.4055 74.2742 50.0062 74.3577C49.579 74.4504 49.1797 74.6173 48.7897 74.8121C47.9168 75.248 46.9882 75.9342 46.691 76.908C46.6167 77.1677 46.5796 77.4366 46.5517 77.7055C46.2824 80.2559 45.9853 82.8062 45.8274 85.3565C45.781 86.1726 45.9574 87.6471 45.521 88.3427C45.4188 88.5003 45.2795 88.6301 45.1681 88.7785C44.8152 89.2608 44.8988 89.8728 45.0845 90.4107C45.4467 91.4772 46.1153 92.2377 46.9789 92.9239C47.7589 93.5453 48.5482 94.3521 48.2232 95.4372C47.6103 97.4681 48.539 98.312 48.8733 98.8314C49.4304 99.7124 49.6904 100.983 50.5076 101.651C50.8605 101.938 51.3248 102.077 51.6684 102.374C52.012 102.671 52.207 103.125 52.2627 103.58C52.2998 103.932 52.0491 104.488 52.1234 104.776C52.207 105.091 52.597 105.258 52.8849 105.462C53.4513 105.88 53.9806 106.362 54.6678 106.557C55.9679 106.927 57.7415 106.566 58.3266 105.221C59.2366 103.088 64.3997 100.797 64.799 99.1281C65.1983 97.4496 61.846 98.8221 61.3817 93.805C60.9267 88.7785 63.7868 87.2947 65.8019 88.3241C68.1142 89.5019 70.3614 92.757 72.3951 90.3829C73.6951 88.8713 78.4404 81.9344 79.6568 82.0921C80.8733 82.2405 82.0991 81.6377 82.2477 80.5712C82.3963 79.5047 83.622 77.0749 84.5321 76.9173C85.4328 76.7596 87.5779 75.2943 87.5779 75.2943Z" fill="#231717"/>
<path d="M183.977 23.5277C184.014 23.6112 184.033 23.7317 184.014 23.8987C183.958 24.3994 183.113 25.2712 182.826 25.7071C182.064 26.8663 181.293 28.0255 180.523 29.1848C174.747 37.8929 168.878 46.5547 162.935 55.1515C167.392 56.0418 171.877 56.8301 176.409 57.2103C178.35 57.3773 180.337 57.4793 182.12 58.2397C184.506 59.2506 186.252 61.3094 187.914 63.3033C188.917 64.5089 189.929 65.7145 190.932 66.9201C192.084 68.3019 193.254 69.7022 193.978 71.3437C195.297 74.3299 195.018 77.8354 193.83 80.8772C192.641 83.919 190.626 86.5528 188.49 89.0197C185.519 92.4417 182.268 95.6226 178.777 98.5161C177.514 99.564 176.13 100.612 174.505 100.835C172.731 101.085 170.986 100.315 169.407 99.462C164.541 96.8282 160.149 93.1651 157.224 88.4818C154.986 84.8928 153.667 80.8401 152.246 76.8802C151.531 74.8956 150.816 72.9017 149.888 71.0006C149.108 69.3962 148.337 67.5043 146.712 66.5862C145.96 66.1596 145.068 65.9741 144.399 65.427C143.527 64.7222 142.561 64.0266 142.069 62.9972C141.521 61.8473 141.251 60.5953 141.084 59.3433C140.184 52.6012 142.681 45.9148 144.873 39.6364C146.368 35.3519 148.105 31.0952 150.853 27.4784C153.602 23.8616 157.465 20.9218 161.922 20.1057C166.677 19.2339 171.404 20.8012 175.954 21.9975C178.303 22.6189 180.671 23.1475 183.104 23.3144C183.522 23.3237 183.866 23.2773 183.977 23.5277Z" fill="#59AAC6"/>
<path d="M184.358 38.0227C184.525 39.3953 186.336 24.5015 184.525 23.5184C182.714 22.5354 180.077 30.1121 180.987 29.8339C181.906 29.5557 183.438 30.6686 184.358 38.0227Z" fill="#5096B5"/>
<path d="M183.615 31.0859C184.386 33.9608 184.897 38.1155 184.535 39.9702C184.386 40.7214 183.151 41.9549 184.386 45.516C186.921 49.2812 186.633 50.2549 186.355 50.8299C186.085 51.4049 183.662 52.3601 183.262 52.7032C182.863 53.0464 182.427 56.3664 182.427 57.5998C182.427 58.8333 182.52 60.9848 181.907 61.94C181.294 62.8952 175.676 63.3033 170.262 60.4376C164.848 57.5627 162.935 55.1701 162.935 55.1701C162.935 55.1701 179.799 30.1492 181.08 28.3779C182.445 28.3779 183.262 29.7876 183.615 31.0859Z" fill="#96685F"/>
<path d="M180.104 29.7875C180.699 29.5093 182.324 29.1662 182.909 29.4815C182.602 29.0271 181.971 28.2388 181.08 28.3779C180.272 29.5093 180.104 29.7875 180.104 29.7875Z" fill="#2B2019"/>
<path d="M170.921 115.413C162.192 111.518 152.516 109.858 149.693 109.654C145.635 109.367 128.121 106.9 128.121 106.9C124.751 107.521 100.402 108.448 95.2484 125.883C91.5247 138.486 89.1753 148.224 88.1631 152.657C100.328 153.835 109.911 151.934 119.504 148.289C125.781 146.388 131.901 143.995 137.89 141.315C143.796 138.681 149.554 135.741 155.283 132.746C159.23 130.678 163.028 128.285 167.021 126.264C169.946 124.78 172.862 123.342 175.583 121.515C174.376 118.529 172.853 116.276 170.921 115.413Z" fill="#376049"/>
<path d="M159.908 61.2259C160.084 62.0606 164.272 67.866 164.272 71.2417C164.272 74.6081 162.582 76.6947 162.684 77.483C162.833 78.6515 164.012 80.024 164.588 81.0164C165.433 82.4816 166.807 84.2993 166.399 86.0892C166.12 87.2948 163.938 87.9532 163.938 89.0475C163.938 90.0398 163.176 96.921 162.684 97.6166C162.192 98.3121 161.291 99.7959 159.908 99.7959C158.515 99.7959 150.278 98.9705 149.164 98.3585C148.709 98.5161 148.328 102.671 148.244 103.172C148.086 104.127 147.845 105.147 147.845 106.121C147.845 107.465 148.792 108.717 149.693 109.663C151.03 111.064 149.581 111.537 148.3 111.852C146.601 112.269 144.864 112.547 143.118 112.668C138.457 113.011 133.73 112.279 129.338 110.702C128.632 110.452 124.676 109.422 124.787 108.458C124.806 108.281 124.955 108.142 125.085 108.022C126.208 107.039 127.833 106.723 128.585 105.36C129.003 104.609 129.161 103.747 129.282 102.893C129.913 98.4141 130.099 93.907 130.879 89.437C131.111 88.0923 131.362 86.7383 131.65 85.4029C132.43 81.8603 133.516 78.3362 135.309 75.1553C141.28 64.5738 150.668 55.0496 151.327 55.0959C152.414 55.1701 159.629 59.9369 159.908 61.2259Z" fill="#663B3B"/>
<path d="M159.908 61.2259C159.499 58.9075 153.389 53.9738 143.675 52.9444C133.962 51.915 127.155 60.586 126.505 62.0791C125.855 63.5722 124.639 71.0191 123.71 72.1413C122.781 73.2634 121.379 72.1413 119.698 71.3993C118.018 70.6574 115.13 69.7208 115.13 70.9357C115.13 72.1505 113.542 72.7162 112.706 72.6235C111.87 72.5215 109.623 71.4086 109.623 73.3654C109.623 75.3222 110.18 78.2064 109.623 79.3285C109.066 80.4506 107.571 80.8216 108.221 82.4074C108.871 83.9932 111.582 84.8279 111.397 86.1355C111.211 87.4431 110.18 88.6487 111.582 88.7414C112.985 88.8342 112.511 89.5761 113.449 90.3273C114.378 91.0692 113.635 92.0058 115.501 91.1619C117.368 90.3273 116.058 90.42 118.203 90.6982C120.349 90.9764 119.977 92.655 121.565 90.9764C123.153 89.2979 123.339 92.3953 124.082 90.4386C124.824 88.4818 126.357 86.8681 126.357 85.4771C126.357 84.086 129.068 92.3675 130.378 91.7184C130.963 91.4216 133.08 89.0568 134.491 87.2298C136.2 85.0041 132.105 78.1971 136.265 76.6947C137.797 76.1383 139.302 81.1833 141.437 81.1833C143.573 81.1833 160.103 62.3295 159.908 61.2259Z" fill="#3A2121"/>
<path d="M50.3682 36.8264L43.4408 33.7846C43.4408 33.7846 42.6422 47.7417 37.6926 49.2441C36.0861 49.7356 32.6967 46.2765 30.3101 48.3816C27.6172 50.7557 31.7402 57.7019 31.0066 59.4268C29.2608 63.4795 32.3902 69.2107 31.2852 73.5416C30.1801 77.8725 24.2649 76.3794 24.0791 82.2776C23.8934 88.5096 16.4088 88.8249 14.0315 90.1511C3.56602 95.9658 0.938036 88.0552 0.241575 83.919C-0.241305 81.0905 -0.315594 77.1862 2.68383 70.982C5.68326 64.7778 3.85389 62.5057 4.3182 58.2861C5.17252 50.6259 7.97694 44.9503 9.62988 40.4339C14.2451 27.8215 23.457 25.1877 28.2765 23.2495C34.8325 20.5972 49.4582 23.6575 50.3682 36.8264Z" fill="#F4D8C1"/>
</g>
<defs>
<clipPath id="clip0">
<rect width="211" height="153" fill="white"/>
</clipPath>
</defs>
</svg>
