<svg width="304" height="232" viewBox="0 0 304 232" fill="none" xmlns="http://www.w3.org/2000/svg">
<g clip-path="url(#clip0)">
<path d="M303.375 45.5439C305.88 67.9701 300.737 87.5312 284.614 108.969C268.523 130.408 262.424 138.344 249.828 159.058C237.233 179.771 229.716 206.149 184.907 221.594C140.098 237.039 105.346 232.033 87.3104 226.929C69.2418 221.791 303.375 45.5439 303.375 45.5439Z" fill="#E4F2F1"/>
<path d="M221.803 1.48242C198.624 6.25744 171.356 7.44296 135.186 4.8414C99.0161 2.23984 61.6261 6.75141 39.0733 21.5704C16.5206 36.3895 8.17877 64.348 4.61782 79.0024C1.05686 93.6568 221.803 1.48242 221.803 1.48242Z" fill="#E4F2F1"/>
<path d="M124.797 11.2956C124.797 11.2956 139.634 14.8522 157.999 14.5229C176.365 14.1936 214.381 -0.921847 241.451 0.0331565C268.521 0.98816 290.447 12.2506 300.438 34.4791C310.428 56.7077 293.678 82.1305 272.708 104.655H124.797V11.2956Z" fill="#D1E5E4"/>
<path d="M251.279 21.6033C235.452 21.6033 222.231 37.7725 218.802 59.4741C206.569 62.6026 192.259 78.4424 197.93 94.6775C199.315 98.5963 201.36 101.889 203.832 104.656H272.711C274.953 102.252 277.129 99.8477 279.206 97.3779C282.635 89.672 284.613 80.4842 284.613 70.6048C284.646 43.5354 269.71 21.6033 251.279 21.6033Z" fill="#71BC9A"/>
<path opacity="0.7" d="M253.224 63.722C251.246 67.6408 245.113 86.4775 243.662 74.2271C242.508 64.6441 244.519 56.8065 244.388 51.9656C244.256 47.0589 239.64 65.8625 240.596 74.6881C241.585 83.5136 247.322 103.931 247.322 103.931C247.322 103.931 244.388 100.012 228.693 94.1175C218.9 90.4292 216.362 87.169 215.834 86.1481C215.9 86.3787 215.933 86.7409 215.933 87.2349C215.933 91.1537 215.933 96.0604 224.769 97.0484C229.221 97.5423 233.177 100.539 236.639 104.655H252.334C251.938 95.1713 250.916 89.3425 250.257 84.304C249.3 76.4664 255.202 59.8032 253.224 63.722Z" fill="#2F3743"/>
<path opacity="0.7" d="M215.867 86.148C215.768 85.7199 215.636 85.7528 215.867 86.148V86.148Z" fill="#2F3743"/>
<path opacity="0.2" d="M251.311 119.606C251.311 119.606 249.266 110.287 247.354 103.931C244.749 95.2373 241.518 81.6697 241.518 79.4962C241.518 77.3227 241.947 83.415 245.87 84.2712C249.794 85.1274 248.937 92.5369 250.223 99.5184C251.541 106.5 252.432 119.573 252.432 119.573L251.311 119.606Z" fill="white"/>
<path d="M129.25 65.8958C146.56 56.2141 167.299 59.2437 179.466 72.1198C194.04 66.785 209.701 71.0002 216.394 82.8554C223.945 96.2913 217.12 114.469 201.096 123.427C192.721 128.136 183.489 129.354 175.542 127.543C173.07 129.782 170.333 131.791 167.266 133.503C147.121 144.799 122.293 138.805 111.775 120.133C101.257 101.461 109.071 77.1912 129.25 65.8958Z" fill="#5F9B7E"/>
<path d="M109.006 11.2956V115.918L124.799 104.985V11.2956C124.799 11.2956 115.336 9.81368 109.006 11.2956Z" fill="#BADBD9"/>
<path d="M109.006 115.918H262.391C262.391 115.918 269.48 108.179 272.711 104.656H124.799L109.006 115.918Z" fill="#BADBD9"/>
<path d="M109.007 11.2959C109.007 11.2959 76.0679 14.9183 51.4379 28.2225C22.8844 43.7002 -1.31694 68.5961 0.0678721 111.407C1.05703 141.901 5.77199 152.142 17.1473 170.946C28.5225 189.75 221.77 174.799 221.77 174.799C221.77 174.799 237.234 151.319 249.796 133.602C262.359 115.885 262.359 115.885 262.359 115.885H152.398H109.007V11.2959Z" fill="#9DC6C2"/>
<path d="M17.146 170.946L69.0436 133.602H249.828C249.828 133.602 230.803 164.195 221.802 174.799H19.4211L17.146 170.946Z" fill="#D3BC97"/>
<path d="M19.4189 174.799C19.4189 174.799 22.9799 180.595 24.8923 183.163H213.722C213.722 183.163 217.909 179.706 221.767 174.799H19.4189Z" fill="#E8D6BA"/>
<path d="M24.894 183.197C24.894 183.197 43.8199 208.949 63.57 219.223C87.0789 231.441 134.13 234.372 164.101 217.972C194.072 201.572 209.734 186.951 213.724 183.197H24.894Z" fill="#C59E57"/>
<path d="M32.7075 192.779C32.7075 192.779 39.7305 201.967 53.9084 212.999H98.0576V192.779H32.7075Z" fill="#D3BC97"/>
<path d="M104.489 192.779V212.999H172.807L175.445 211.418V192.779H104.489Z" fill="#D3BC97"/>
<path d="M59.0181 203.548C59.0181 201.934 60.3369 201.275 61.9526 201.275C63.5682 201.275 64.8871 201.934 64.8871 203.548C64.8871 205.161 63.5682 206.479 61.9526 206.479C60.3369 206.479 59.0181 205.161 59.0181 203.548Z" fill="#E8D6BA"/>
<path d="M135.186 203.548C135.186 201.934 136.504 201.275 138.12 201.275C139.736 201.275 141.055 201.934 141.055 203.548C141.055 205.161 139.736 206.479 138.12 206.479C136.504 206.479 135.186 205.161 135.186 203.548Z" fill="#E8D6BA"/>
<path d="M58.6245 64.7756C58.6245 64.7756 65.6475 73.8976 68.5161 83.3488C71.3846 92.8001 72.2419 106.96 72.2419 106.96" stroke="#5F9B7E" stroke-width="1.88177" stroke-miterlimit="10"/>
<path d="M56.6138 77.7507C56.6138 77.7507 59.0537 78.9033 65.648 86.6092C72.2424 94.3151 75.5396 106.928 75.5396 106.928" stroke="#5F9B7E" stroke-width="1.88177" stroke-miterlimit="10"/>
<path d="M73.6577 106.928L76.2295 76.8943" stroke="#5F9B7E" stroke-width="1.88177" stroke-miterlimit="10"/>
<path d="M79.1001 106.928C79.1001 106.928 81.1114 91.1867 82.5292 81.0439C83.947 70.9011 86.5517 61.4498 87.409 59.5728" stroke="#5F9B7E" stroke-width="1.88177" stroke-miterlimit="10"/>
<path d="M82.6914 106.928C82.6914 106.928 87.2745 88.618 89.5825 80.7475C91.8906 72.8769 97.4628 62.4377 97.4628 62.4377" stroke="#5F9B7E" stroke-width="1.88177" stroke-miterlimit="10"/>
<path d="M86.123 106.928C86.123 106.928 93.146 87.0373 97.4324 78.7387C101.719 70.44 108.313 61.845 110.885 59.5728" stroke="#5F9B7E" stroke-width="1.88177" stroke-miterlimit="10"/>
<path d="M90.0459 106.17C90.0459 106.17 95.1236 94.7761 100.135 86.6421C105.147 78.5081 111.016 74.0624 113.027 73.0415" stroke="#5F9B7E" stroke-width="1.88177" stroke-miterlimit="10"/>
<path d="M65.1196 105.94C65.1196 105.94 69.8676 103.207 81.5726 103.371C93.2776 103.536 98.0255 105.94 98.0255 105.94C98.0255 105.94 92.4862 109.299 81.5726 108.937C70.6589 108.575 65.1196 105.94 65.1196 105.94Z" fill="#273D47"/>
<path d="M84.9683 110.517C84.9683 110.517 85.1001 103.503 87.4082 96.9167C89.7162 90.3305 93.7058 88.0583 96.0138 89.0462C98.3218 90.0341 98.0251 96.1923 96.0138 101.922C94.0025 107.652 91.4307 109.957 89.4195 110.517C87.4082 111.077 84.9683 110.517 84.9683 110.517Z" fill="#5F9B7E"/>
<path d="M82.2001 110.781C82.2001 110.781 75.2101 109.167 70.3962 101.725C65.5823 94.2821 69.9676 90.1657 72.8031 89.1119C75.6387 88.0581 83.2882 90.6597 84.8379 95.797C86.3546 100.934 85.2995 107.751 84.8379 109.167C84.3433 110.583 82.2001 110.781 82.2001 110.781Z" fill="#71BC9A"/>
<path d="M73.2289 109.562C69.1404 108.014 66.9642 105.018 64.6892 101.659C62.4141 98.2996 64.5243 97.2458 68.3161 97.9703C72.1078 98.6948 78.4714 105.874 79.8562 108.475C81.241 111.077 78.7681 111.637 73.2289 109.562Z" fill="#5F9B7E"/>
<path d="M71.2854 154.217C76.1322 155.831 85.1335 156.16 90.6068 154.217C90.6068 154.217 91.2663 129.782 91.8927 121.549C92.5192 113.317 98.0255 105.94 98.0255 105.94C98.0255 105.94 91.53 109.266 82.199 108.476C72.868 107.685 65.1196 105.94 65.1196 105.94C65.1196 105.94 71.5491 114.634 71.5491 121.549C71.5491 128.465 71.2854 154.217 71.2854 154.217Z" fill="#34515F"/>
<path d="M56.086 77.7509C56.086 77.7509 53.9429 78.5412 50.7116 76.8947C47.4804 75.2481 46.4253 71.1646 46.4253 71.1646C46.4253 71.1646 49.1619 70.3743 50.6787 70.9341C52.1624 71.5598 57.9654 74.8529 56.086 77.7509Z" fill="#93343D"/>
<path d="M52.1624 75.1494C49.9533 72.3173 48.9971 67.5752 48.9971 67.5752C48.9971 67.5752 52.4261 66.0275 55.7563 69.3864C59.0865 72.7784 57.8006 76.5984 57.273 77.2241C56.2509 78.4096 53.9428 77.4216 52.1624 75.1494Z" fill="#DA3510"/>
<path d="M49.9517 59.5726C49.9517 59.5726 50.5781 54.9623 51.4354 53.3486C53.4796 54.0073 56.0185 54.2048 56.4471 54.8635C56.9087 55.5221 55.4909 59.5726 49.9517 59.5726Z" fill="#00A3A6"/>
<path d="M56.0507 60.1326C54.5999 57.5969 53.6767 56.1479 54.2372 52.9536C57.996 52.9536 60.6667 56.1809 61.1283 58.9471C61.557 61.7462 61.458 63.755 60.2711 64.3149C59.0511 64.8747 57.2047 62.1414 56.0507 60.1326Z" fill="#06C4C4"/>
<path d="M49.6904 54.8635C49.6904 54.8635 48.8332 60.2972 52.0644 63.261C55.2956 66.2248 57.4388 65.1381 60.2414 64.2818C56.4826 58.6506 55.5594 57.2016 53.5152 56.1149C51.4709 55.0282 49.6904 54.8635 49.6904 54.8635Z" fill="#00A3A6"/>
<path d="M78.4729 67.2127C78.4729 67.2127 80.4842 64.7758 81.5723 64.3806C82.6603 68.3653 83.2868 69.1227 81.5723 71.823C79.8577 74.4905 79.1983 75.676 77.0551 76.0053C74.9449 76.3346 78.4729 67.2127 78.4729 67.2127Z" fill="#06C4C4"/>
<path d="M74.9433 76.3346C72.6023 73.3379 71.4483 70.868 72.2066 68.1677C72.965 65.4673 73.4266 64.3806 73.4266 64.3806C73.4266 64.3806 75.339 64.4135 76.1962 68.6946C77.0535 72.9756 76.5919 78.4751 74.9433 76.3346Z" fill="#00A3A6"/>
<path d="M90.6402 52.3278C90.4094 49.0676 88.1673 45.9721 86.1231 45.5439C84.9691 47.5857 83.881 49.3969 83.9799 52.9535C84.0788 57.6955 85.6615 58.6835 87.409 59.6055C90.0137 60.9557 90.6402 52.3278 90.6402 52.3278Z" fill="#00A3A6"/>
<path d="M73.9238 70.6049C73.9238 66.5215 75.5724 64.5785 78.4739 62.4709C80.0896 65.7311 80.8479 68.8596 79.595 72.5149C78.342 76.1374 76.7594 79.0682 74.913 76.3679C74.946 74.8201 73.9568 74.6884 73.9238 70.6049Z" fill="#00A3A6"/>
<path d="M88.7932 59.5728C91.2331 59.0459 95.2227 54.7319 94.6951 50.4508C94.1676 46.1698 93.8708 46.3674 91.7606 47.026C89.6504 47.6846 87.0786 49.1336 86.0895 53.1183C85.1333 57.1359 85.3641 60.3302 88.7932 59.5728Z" fill="#06C4C4"/>
<path d="M102.113 48.3103C100.729 49.1665 99.0799 49.6934 97.4313 54.1062C95.7828 58.5189 96.4092 63.6891 98.5194 62.4378C100.63 61.1864 103.762 58.6177 103.63 54.3038C103.531 50.0557 102.113 48.3103 102.113 48.3103Z" fill="#DA3510"/>
<path d="M108.049 60.6596C108.049 60.6596 106.301 54.9625 106.829 51.4389C107.356 47.8823 109.499 46.6968 109.499 46.6968C109.499 46.6968 112.5 50.4839 112.17 52.9537C111.906 55.3906 108.049 60.6596 108.049 60.6596Z" fill="#00A3A6"/>
<path d="M108.247 62.4377C108.247 62.4377 106.995 54.7647 110.885 50.8789C114.776 47.0259 117.578 48.3102 117.578 48.3102C117.578 48.3102 120.909 52.4925 118.106 56.4772C115.303 60.4618 111.281 61.8779 108.247 62.4377Z" fill="#06C4C4"/>
<path d="M111.014 74.3591C111.014 74.3591 110.454 72.4161 113.652 69.9463C116.85 67.4435 121.796 67.7728 121.796 67.7728C121.796 67.7728 120.411 70.0451 116.916 72.5149C113.388 74.9189 112.234 75.0836 111.014 74.3591Z" fill="#06C4C4"/>
<path d="M116.391 71.0656C116.424 71.0656 121.568 69.5837 125.458 72.4817C123.084 75.1491 120.315 75.1491 117.281 75.1491C114.248 75.1491 113.028 74.8198 111.017 74.3587C113.028 73.0415 116.391 71.0656 116.391 71.0656Z" fill="#06C4C4"/>
<path d="M120.609 163.141C120.576 161.264 120.148 136.236 120.609 133.602C121.071 130.967 131.523 108.344 132.248 106.928C135.117 106.928 200.566 106.928 200.566 106.928C200.566 106.928 209.171 126.522 210.029 129.519C210.886 132.515 210.754 136.665 210.589 144.831C210.424 152.998 210.589 162.581 210.589 163.997C210.589 165.413 208.281 166.303 205.446 166.303C202.577 166.303 126.676 166.303 124.797 166.303C122.917 166.303 120.675 166.171 120.609 163.141Z" fill="#DA3510"/>
<path d="M123.777 120.66H125.92L131.261 108.97C131.261 108.97 125.491 108.97 124.766 108.97C124.041 108.97 123.777 120.66 123.777 120.66Z" fill="#93343D"/>
<path d="M134.392 102.35C134.392 102.35 134.392 80.3192 134.392 78.4751C134.392 76.631 135.974 76.1699 139.403 76.1699C142.832 76.1699 192.554 76.598 194.532 77.1579C196.543 77.7177 196.115 79.7265 196.379 83.2501C196.675 86.7408 196.873 102.317 196.115 102.284C195.422 102.284 134.392 102.35 134.392 102.35Z" fill="white"/>
<path d="M179.928 102.021C179.928 102.021 180.357 100.21 183.225 100.21C186.094 100.21 186.391 102.35 186.391 102.35L179.928 102.021Z" fill="#9DC6C2"/>
<path d="M143.327 102.021C143.327 102.021 143.756 100.21 146.624 100.21C149.493 100.21 149.79 102.35 149.79 102.35L143.327 102.021Z" fill="#9DC6C2"/>
<path d="M134.393 102.35C134.393 102.35 133.206 104.886 132.25 106.928C131.293 108.969 157.44 108.41 165.551 108.442C173.629 108.475 201.128 108.475 200.567 106.928C200.007 105.347 198.556 102.482 197.402 102.35C196.248 102.219 135.811 101.231 134.393 102.35Z" fill="#D1E5E4"/>
<path d="M149.262 108.97C149.262 108.97 148.833 103.8 149.262 103.371C149.69 102.943 151.405 102.383 151.405 104.656C151.405 106.961 151.405 108.97 151.405 108.97H149.262Z" fill="#273D47"/>
<path d="M178.939 108.97C178.939 108.97 178.51 103.8 178.939 103.371C179.367 102.943 181.082 102.383 181.082 104.656C181.082 106.961 181.082 108.97 181.082 108.97H178.939Z" fill="#273D47"/>
<path d="M124.797 108.97L130.369 103.371L134.392 102.351L131.259 108.97H124.797Z" fill="#DA3510"/>
<path d="M197.402 102.35C197.402 102.35 200.831 101.79 201.985 104.655C203.139 107.52 203.205 113.053 203.205 113.053C203.205 113.053 200.106 105.61 199.512 104.655C198.919 103.7 197.402 102.35 197.402 102.35Z" fill="#DA3510"/>
<path d="M206.436 106.171H202.447L203.205 113.053L204.755 116.643H206.898L206.436 106.171Z" fill="#93343D"/>
<path d="M128.656 118.816C127.667 120.397 123.347 130.605 122.919 132.12C122.49 133.635 127.271 132.976 127.535 133.635C127.799 134.293 124.501 137.718 123.776 143.448C123.051 149.178 134.953 150.463 142.24 150.891C149.56 151.319 191.5 152.471 199.677 148.586C207.854 144.7 206.107 141.275 205.975 135.841C205.843 130.408 206.074 126.983 204.656 123.821C203.238 120.66 203.172 119.376 200.271 118.816C197.369 118.256 173.168 116.774 165.485 116.642C157.869 116.511 128.656 118.816 128.656 118.816Z" fill="#273D47"/>
<path d="M172.971 120.891H158.826C158.134 120.891 157.606 120.331 157.606 119.672C157.606 118.981 158.166 118.454 158.826 118.454H172.971C173.663 118.454 174.191 119.014 174.191 119.672C174.191 120.331 173.63 120.891 172.971 120.891Z" fill="#34515F"/>
<path d="M139.503 150.66C139.503 150.66 137.524 154.085 137.359 155.534C137.195 156.983 136.041 158.86 139.503 158.992C142.965 159.124 188.861 158.992 190.84 158.992C192.818 158.992 190.378 151.187 189.949 150.463C186.355 150.463 167.397 151.352 164.561 151.352C161.726 151.352 139.503 150.66 139.503 150.66Z" fill="#93343D"/>
<path d="M125.855 147.334C125.492 147.071 124.075 146.281 123.778 151.352C123.481 156.423 124.767 166.303 124.767 166.303" stroke="#93343D" stroke-width="1.25451" stroke-miterlimit="10"/>
<path d="M204.687 145.128C204.687 145.128 206.072 145.622 206.237 150.463C206.435 155.304 206.402 166.303 206.402 166.303" stroke="#93343D" stroke-width="1.25451" stroke-miterlimit="10"/>
<path d="M131.82 122.208C131.919 121.714 133.468 121.648 134.754 121.714C136.04 121.78 136.667 121.977 136.93 122.471C137.194 122.965 136.733 125.6 135.842 126.291C134.952 126.983 133.567 126.785 132.974 126.291C131.787 125.336 131.556 123.361 131.82 122.208Z" fill="#D1E5E4"/>
<path d="M131.756 122.801C131.756 122.801 132.91 123.887 134.393 124.217C135.877 124.513 136.866 124.315 136.866 124.217C136.899 124.118 136.734 126.851 134.393 126.719C132.118 126.621 131.657 124.381 131.756 122.801Z" fill="#5895A8"/>
<path d="M138.416 122.208C138.515 121.714 140.065 121.648 141.351 121.714C142.637 121.78 143.263 121.977 143.527 122.471C143.791 122.965 143.329 125.6 142.439 126.291C141.549 126.983 140.164 126.785 139.57 126.291C138.383 125.336 138.153 123.361 138.416 122.208Z" fill="#D1E5E4"/>
<path d="M138.349 122.801C138.349 122.801 139.503 123.887 140.987 124.217C142.47 124.513 143.459 124.315 143.459 124.217C143.492 124.118 143.327 126.851 140.987 126.719C138.711 126.621 138.25 124.381 138.349 122.801Z" fill="#5895A8"/>
<path d="M145.01 122.208C145.109 121.714 146.658 121.648 147.944 121.714C149.23 121.78 149.857 121.977 150.12 122.471C150.384 122.965 149.922 125.6 149.032 126.291C148.142 126.983 146.757 126.785 146.164 126.291C144.977 125.336 144.746 123.361 145.01 122.208Z" fill="#D1E5E4"/>
<path d="M144.946 122.801C144.946 122.801 146.1 123.887 147.584 124.217C149.067 124.513 150.057 124.315 150.057 124.217C150.09 124.118 149.925 126.851 147.584 126.719C145.309 126.621 144.847 124.381 144.946 122.801Z" fill="#5895A8"/>
<path d="M151.603 122.208C151.702 121.714 153.252 121.648 154.537 121.714C155.823 121.78 156.45 121.977 156.714 122.471C156.977 122.965 156.516 125.6 155.626 126.291C154.735 126.983 153.35 126.785 152.757 126.291C151.57 125.336 151.339 123.361 151.603 122.208Z" fill="#D1E5E4"/>
<path d="M151.539 122.801C151.539 122.801 152.693 123.887 154.176 124.217C155.66 124.513 156.649 124.315 156.649 124.217C156.682 124.118 156.517 126.851 154.176 126.719C151.901 126.621 151.44 124.381 151.539 122.801Z" fill="#5895A8"/>
<path d="M158.2 122.208C158.299 121.714 159.848 121.648 161.134 121.714C162.42 121.78 163.047 121.977 163.31 122.471C163.574 122.965 163.112 125.6 162.222 126.291C161.332 126.983 159.947 126.785 159.354 126.291C158.167 125.336 157.936 123.361 158.2 122.208Z" fill="#D1E5E4"/>
<path d="M158.132 122.801C158.132 122.801 159.286 123.887 160.77 124.217C162.253 124.513 163.243 124.315 163.243 124.217C163.276 124.118 163.111 126.851 160.77 126.719C158.495 126.621 158.033 124.381 158.132 122.801Z" fill="#5895A8"/>
<path d="M164.793 122.208C164.892 121.714 166.441 121.648 167.727 121.714C169.013 121.78 169.64 121.977 169.903 122.471C170.167 122.965 169.706 125.6 168.815 126.291C167.925 126.983 166.54 126.785 165.947 126.291C164.76 125.336 164.529 123.361 164.793 122.208Z" fill="#D1E5E4"/>
<path d="M164.729 122.801C164.729 122.801 165.883 123.887 167.366 124.217C168.85 124.513 169.839 124.315 169.839 124.217C169.872 124.118 169.707 126.851 167.366 126.719C165.091 126.621 164.63 124.381 164.729 122.801Z" fill="#5895A8"/>
<path d="M171.386 122.537C171.485 122.043 173.034 121.977 174.32 122.043C175.606 122.109 176.233 122.307 176.496 122.801C176.76 123.295 176.298 125.929 175.408 126.621C174.518 127.312 173.133 127.115 172.54 126.621C171.353 125.666 171.122 123.69 171.386 122.537Z" fill="#D1E5E4"/>
<path d="M171.322 123.13C171.322 123.13 172.476 124.217 173.96 124.546C175.443 124.842 176.433 124.645 176.433 124.546C176.466 124.447 176.301 127.18 173.96 127.049C171.685 126.95 171.223 124.711 171.322 123.13Z" fill="#5895A8"/>
<path d="M178.212 122.405C178.311 121.911 179.861 121.846 181.147 121.911C182.433 121.977 183.059 122.175 183.323 122.669C183.587 123.163 183.125 125.797 182.235 126.489C181.345 127.18 179.96 126.983 179.366 126.489C178.146 125.567 177.915 123.591 178.212 122.405Z" fill="#D1E5E4"/>
<path d="M178.112 123.031C178.112 123.031 179.266 124.118 180.75 124.447C182.233 124.743 183.223 124.546 183.223 124.447C183.256 124.348 183.091 127.082 180.75 126.95C178.475 126.851 178.013 124.579 178.112 123.031Z" fill="#5895A8"/>
<path d="M185.006 122.735C185.105 122.241 186.655 122.175 187.941 122.241C189.227 122.306 189.853 122.504 190.117 122.998C190.381 123.492 189.919 126.126 189.029 126.818C188.139 127.51 186.754 127.312 186.16 126.818C184.94 125.896 184.743 123.92 185.006 122.735Z" fill="#D1E5E4"/>
<path d="M184.907 123.36C184.907 123.36 186.061 124.447 187.544 124.776C189.028 125.073 190.017 124.875 190.017 124.776C190.05 124.678 189.885 127.411 187.544 127.279C185.269 127.18 184.841 124.908 184.907 123.36Z" fill="#5895A8"/>
<path d="M191.6 122.735C191.699 122.241 193.248 122.175 194.534 122.241C195.82 122.306 196.446 122.504 196.71 122.998C196.974 123.492 196.512 126.126 195.622 126.818C194.732 127.51 193.347 127.312 192.754 126.818C191.534 125.896 191.336 123.92 191.6 122.735Z" fill="#D1E5E4"/>
<path d="M191.5 123.36C191.5 123.36 192.654 124.447 194.138 124.776C195.621 125.073 196.611 124.875 196.611 124.776C196.643 124.678 196.479 127.411 194.138 127.279C191.863 127.18 191.434 124.908 191.5 123.36Z" fill="#5895A8"/>
<path d="M128.854 128.465C128.953 127.971 130.503 127.905 131.789 127.971C133.075 128.037 133.701 128.234 133.965 128.728C134.229 129.222 133.767 131.857 132.877 132.548C131.987 133.24 130.602 133.042 130.008 132.548C128.821 131.593 128.591 129.617 128.854 128.465Z" fill="#D1E5E4"/>
<path d="M128.787 129.058C128.787 129.058 129.941 130.144 131.424 130.474C132.908 130.77 133.897 130.572 133.897 130.474C133.93 130.375 133.765 133.108 131.424 132.976C129.149 132.878 128.688 130.638 128.787 129.058Z" fill="#5895A8"/>
<path d="M135.448 128.465C135.547 127.971 137.096 127.905 138.382 127.971C139.668 128.037 140.295 128.234 140.558 128.728C140.822 129.222 140.36 131.857 139.47 132.548C138.58 133.24 137.195 133.042 136.602 132.548C135.415 131.593 135.184 129.617 135.448 128.465Z" fill="#D1E5E4"/>
<path d="M135.384 129.058C135.384 129.058 136.538 130.144 138.022 130.474C139.505 130.77 140.495 130.572 140.495 130.474C140.528 130.375 140.363 133.108 138.022 132.976C135.747 132.878 135.285 130.638 135.384 129.058Z" fill="#5895A8"/>
<path d="M142.041 128.465C142.14 127.971 143.69 127.905 144.975 127.971C146.261 128.037 146.888 128.234 147.152 128.728C147.415 129.222 146.954 131.857 146.063 132.548C145.173 133.24 143.788 133.042 143.195 132.548C142.008 131.593 141.777 129.617 142.041 128.465Z" fill="#D1E5E4"/>
<path d="M141.977 129.058C141.977 129.058 143.131 130.144 144.615 130.474C146.099 130.77 147.088 130.572 147.088 130.474C147.121 130.375 146.956 133.108 144.615 132.976C142.34 132.878 141.878 130.638 141.977 129.058Z" fill="#5895A8"/>
<path d="M148.638 128.465C148.737 127.971 150.286 127.905 151.572 127.971C152.858 128.037 153.484 128.234 153.748 128.728C154.012 129.222 153.55 131.857 152.66 132.548C151.77 133.24 150.385 133.042 149.792 132.548C148.605 131.593 148.374 129.617 148.638 128.465Z" fill="#D1E5E4"/>
<path d="M148.57 129.058C148.57 129.058 149.724 130.144 151.208 130.474C152.691 130.77 153.681 130.572 153.681 130.474C153.714 130.375 153.549 133.108 151.208 132.976C148.933 132.878 148.471 130.638 148.57 129.058Z" fill="#5895A8"/>
<path d="M155.231 128.465C155.33 127.971 156.879 127.905 158.165 127.971C159.451 128.037 160.078 128.234 160.341 128.728C160.605 129.222 160.144 131.857 159.253 132.548C158.363 133.24 156.978 133.042 156.385 132.548C155.198 131.593 154.967 129.617 155.231 128.465Z" fill="#D1E5E4"/>
<path d="M155.167 129.058C155.167 129.058 156.321 130.144 157.805 130.474C159.289 130.77 160.278 130.572 160.278 130.474C160.311 130.375 160.146 133.108 157.805 132.976C155.53 132.878 155.068 130.638 155.167 129.058Z" fill="#5895A8"/>
<path d="M161.824 128.465C161.923 127.971 163.473 127.905 164.759 127.971C166.045 128.037 166.671 128.234 166.935 128.728C167.199 129.222 166.737 131.857 165.847 132.548C164.956 133.24 163.572 133.042 162.978 132.548C161.791 131.593 161.56 129.617 161.824 128.465Z" fill="#D1E5E4"/>
<path d="M161.76 129.058C161.76 129.058 162.914 130.144 164.398 130.474C165.881 130.77 166.871 130.572 166.871 130.474C166.904 130.375 166.739 133.108 164.398 132.976C162.123 132.878 161.661 130.638 161.76 129.058Z" fill="#5895A8"/>
<path d="M168.421 128.794C168.52 128.3 170.069 128.234 171.355 128.3C172.641 128.366 173.268 128.564 173.531 129.058C173.795 129.552 173.334 132.186 172.443 132.878C171.553 133.569 170.168 133.372 169.575 132.878C168.388 131.923 168.157 129.947 168.421 128.794Z" fill="#D1E5E4"/>
<path d="M168.353 129.387C168.353 129.387 169.507 130.474 170.991 130.803C172.475 131.099 173.464 130.902 173.464 130.803C173.497 130.704 173.332 133.438 170.991 133.306C168.716 133.207 168.254 130.968 168.353 129.387Z" fill="#5895A8"/>
<path d="M175.243 128.662C175.342 128.168 176.892 128.102 178.178 128.168C179.464 128.234 180.09 128.432 180.354 128.925C180.618 129.419 180.156 132.054 179.266 132.745C178.376 133.437 176.991 133.239 176.397 132.745C175.177 131.823 174.947 129.848 175.243 128.662Z" fill="#D1E5E4"/>
<path d="M175.147 129.288C175.147 129.288 176.301 130.375 177.784 130.704C179.268 131.001 180.257 130.803 180.257 130.704C180.29 130.606 180.125 133.339 177.784 133.207C175.509 133.108 175.048 130.836 175.147 129.288Z" fill="#5895A8"/>
<path d="M182.038 128.992C182.136 128.498 183.686 128.432 184.972 128.498C186.258 128.564 186.884 128.761 187.148 129.255C187.412 129.749 186.95 132.384 186.06 133.075C185.17 133.767 183.785 133.569 183.192 133.075C181.972 132.153 181.774 130.177 182.038 128.992Z" fill="#D1E5E4"/>
<path d="M181.938 129.617C181.938 129.617 183.092 130.704 184.576 131.033C186.059 131.33 187.048 131.132 187.048 131.033C187.081 130.935 186.917 133.668 184.576 133.536C182.301 133.437 181.872 131.165 181.938 129.617Z" fill="#5895A8"/>
<path d="M188.631 128.992C188.73 128.498 190.279 128.432 191.565 128.498C192.851 128.564 193.478 128.761 193.741 129.255C194.005 129.749 193.544 132.384 192.653 133.075C191.763 133.767 190.378 133.569 189.785 133.075C188.565 132.153 188.367 130.177 188.631 128.992Z" fill="#D1E5E4"/>
<path d="M188.531 129.617C188.531 129.617 189.685 130.704 191.169 131.033C192.653 131.33 193.642 131.132 193.642 131.033C193.675 130.935 193.51 133.668 191.169 133.536C188.894 133.437 188.465 131.165 188.531 129.617Z" fill="#5895A8"/>
<path d="M195.228 128.992C195.327 128.498 196.877 128.432 198.163 128.498C199.448 128.564 200.075 128.761 200.339 129.255C200.602 129.749 200.141 132.384 199.251 133.075C198.36 133.767 196.976 133.569 196.382 133.075C195.162 132.153 194.964 130.177 195.228 128.992Z" fill="#D1E5E4"/>
<path d="M195.128 129.617C195.128 129.617 196.282 130.704 197.766 131.033C199.249 131.33 200.238 131.132 200.238 131.033C200.271 130.935 200.107 133.668 197.766 133.536C195.491 133.437 195.062 131.165 195.128 129.617Z" fill="#5895A8"/>
<path d="M131.82 135.051C131.919 134.557 133.468 134.491 134.754 134.557C136.04 134.623 136.667 134.821 136.93 135.315C137.194 135.809 136.733 138.443 135.842 139.135C134.952 139.826 133.567 139.629 132.974 139.135C131.787 138.18 131.556 136.204 131.82 135.051Z" fill="#D1E5E4"/>
<path d="M131.756 135.644C131.756 135.644 132.91 136.73 134.393 137.06C135.877 137.356 136.866 137.158 136.866 137.06C136.899 136.961 136.734 139.694 134.393 139.562C132.118 139.464 131.657 137.224 131.756 135.644Z" fill="#5895A8"/>
<path d="M138.416 135.051C138.515 134.557 140.065 134.491 141.351 134.557C142.637 134.623 143.263 134.821 143.527 135.315C143.791 135.809 143.329 138.443 142.439 139.135C141.549 139.826 140.164 139.629 139.57 139.135C138.383 138.18 138.153 136.204 138.416 135.051Z" fill="#D1E5E4"/>
<path d="M138.349 135.644C138.349 135.644 139.503 136.73 140.987 137.06C142.47 137.356 143.459 137.158 143.459 137.06C143.492 136.961 143.327 139.694 140.987 139.562C138.711 139.464 138.25 137.224 138.349 135.644Z" fill="#5895A8"/>
<path d="M145.01 135.051C145.109 134.557 146.658 134.491 147.944 134.557C149.23 134.623 149.857 134.821 150.12 135.315C150.384 135.809 149.922 138.443 149.032 139.135C148.142 139.826 146.757 139.629 146.164 139.135C144.977 138.18 144.746 136.204 145.01 135.051Z" fill="#D1E5E4"/>
<path d="M144.946 135.644C144.946 135.644 146.1 136.73 147.584 137.06C149.067 137.356 150.057 137.158 150.057 137.06C150.09 136.961 149.925 139.694 147.584 139.562C145.309 139.464 144.847 137.224 144.946 135.644Z" fill="#5895A8"/>
<path d="M151.603 135.051C151.702 134.557 153.252 134.491 154.537 134.557C155.823 134.623 156.45 134.821 156.714 135.315C156.977 135.809 156.516 138.443 155.626 139.135C154.735 139.826 153.35 139.629 152.757 139.135C151.57 138.18 151.339 136.204 151.603 135.051Z" fill="#D1E5E4"/>
<path d="M151.539 135.644C151.539 135.644 152.693 136.73 154.176 137.06C155.66 137.356 156.649 137.158 156.649 137.06C156.682 136.961 156.517 139.694 154.176 139.562C151.901 139.464 151.44 137.224 151.539 135.644Z" fill="#5895A8"/>
<path d="M158.2 135.051C158.299 134.557 159.848 134.491 161.134 134.557C162.42 134.623 163.047 134.821 163.31 135.315C163.574 135.809 163.112 138.443 162.222 139.135C161.332 139.826 159.947 139.629 159.354 139.135C158.167 138.18 157.936 136.204 158.2 135.051Z" fill="#D1E5E4"/>
<path d="M158.132 135.644C158.132 135.644 159.286 136.73 160.77 137.06C162.253 137.356 163.243 137.158 163.243 137.06C163.276 136.961 163.111 139.694 160.77 139.562C158.495 139.464 158.033 137.224 158.132 135.644Z" fill="#5895A8"/>
<path d="M164.793 135.051C164.892 134.557 166.441 134.491 167.727 134.557C169.013 134.623 169.64 134.821 169.903 135.315C170.167 135.809 169.706 138.443 168.815 139.135C167.925 139.826 166.54 139.629 165.947 139.135C164.76 138.18 164.529 136.204 164.793 135.051Z" fill="#D1E5E4"/>
<path d="M164.729 135.644C164.729 135.644 165.883 136.73 167.366 137.06C168.85 137.356 169.839 137.158 169.839 137.06C169.872 136.961 169.707 139.694 167.366 139.562C165.091 139.464 164.63 137.224 164.729 135.644Z" fill="#5895A8"/>
<path d="M171.386 135.38C171.485 134.886 173.034 134.82 174.32 134.886C175.606 134.952 176.233 135.15 176.496 135.644C176.76 136.138 176.298 138.772 175.408 139.464C174.518 140.155 173.133 139.958 172.54 139.464C171.353 138.509 171.122 136.533 171.386 135.38Z" fill="#D1E5E4"/>
<path d="M171.322 135.973C171.322 135.973 172.476 137.06 173.96 137.389C175.443 137.685 176.433 137.488 176.433 137.389C176.466 137.29 176.301 140.023 173.96 139.892C171.685 139.793 171.223 137.554 171.322 135.973Z" fill="#5895A8"/>
<path d="M178.212 135.248C178.311 134.755 179.861 134.689 181.147 134.755C182.433 134.82 183.059 135.018 183.323 135.512C183.587 136.006 183.125 138.64 182.235 139.332C181.345 140.023 179.96 139.826 179.366 139.332C178.146 138.41 177.915 136.434 178.212 135.248Z" fill="#D1E5E4"/>
<path d="M178.112 135.874C178.112 135.874 179.266 136.961 180.75 137.29C182.233 137.587 183.223 137.389 183.223 137.29C183.256 137.192 183.091 139.925 180.75 139.793C178.475 139.694 178.013 137.422 178.112 135.874Z" fill="#5895A8"/>
<path d="M185.006 135.578C185.105 135.084 186.655 135.018 187.941 135.084C189.227 135.15 189.853 135.347 190.117 135.841C190.381 136.335 189.919 138.97 189.029 139.661C188.139 140.353 186.754 140.155 186.16 139.661C184.94 138.739 184.743 136.763 185.006 135.578Z" fill="#D1E5E4"/>
<path d="M184.907 136.203C184.907 136.203 186.061 137.29 187.544 137.619C189.028 137.916 190.017 137.718 190.017 137.619C190.05 137.521 189.885 140.254 187.544 140.122C185.269 140.023 184.841 137.751 184.907 136.203Z" fill="#5895A8"/>
<path d="M191.6 135.578C191.699 135.084 193.248 135.018 194.534 135.084C195.82 135.15 196.446 135.347 196.71 135.841C196.974 136.335 196.512 138.97 195.622 139.661C194.732 140.353 193.347 140.155 192.754 139.661C191.534 138.739 191.336 136.763 191.6 135.578Z" fill="#D1E5E4"/>
<path d="M191.5 136.203C191.5 136.203 192.654 137.29 194.138 137.619C195.621 137.916 196.611 137.718 196.611 137.619C196.643 137.521 196.479 140.254 194.138 140.122C191.863 140.023 191.434 137.751 191.5 136.203Z" fill="#5895A8"/>
<path d="M128.854 141.308C128.953 140.814 130.503 140.748 131.789 140.814C133.075 140.88 133.701 141.077 133.965 141.571C134.229 142.065 133.767 144.7 132.877 145.391C131.987 146.083 130.602 145.885 130.008 145.391C128.821 144.436 128.591 142.46 128.854 141.308Z" fill="#D1E5E4"/>
<path d="M128.787 141.901C128.787 141.901 129.941 142.988 131.424 143.317C132.908 143.613 133.897 143.416 133.897 143.317C133.93 143.218 133.765 145.951 131.424 145.82C129.149 145.721 128.688 143.482 128.787 141.901Z" fill="#5895A8"/>
<path d="M135.448 141.308C135.547 140.814 137.096 140.748 138.382 140.814C139.668 140.88 140.295 141.077 140.558 141.571C140.822 142.065 140.36 144.7 139.47 145.391C138.58 146.083 137.195 145.885 136.602 145.391C135.415 144.436 135.184 142.46 135.448 141.308Z" fill="#D1E5E4"/>
<path d="M135.384 141.901C135.384 141.901 136.538 142.988 138.022 143.317C139.505 143.613 140.495 143.416 140.495 143.317C140.528 143.218 140.363 145.951 138.022 145.82C135.747 145.721 135.285 143.482 135.384 141.901Z" fill="#5895A8"/>
<path d="M142.041 141.308C142.14 140.814 143.69 140.748 144.975 140.814C146.261 140.88 146.888 141.077 147.152 141.571C147.415 142.065 146.954 144.7 146.063 145.391C145.173 146.083 143.788 145.885 143.195 145.391C142.008 144.436 141.777 142.46 142.041 141.308Z" fill="#D1E5E4"/>
<path d="M141.977 141.901C141.977 141.901 143.131 142.988 144.615 143.317C146.099 143.613 147.088 143.416 147.088 143.317C147.121 143.218 146.956 145.951 144.615 145.82C142.34 145.721 141.878 143.482 141.977 141.901Z" fill="#5895A8"/>
<path d="M148.638 141.308C148.737 140.814 150.286 140.748 151.572 140.814C152.858 140.88 153.484 141.077 153.748 141.571C154.012 142.065 153.55 144.7 152.66 145.391C151.77 146.083 150.385 145.885 149.792 145.391C148.605 144.436 148.374 142.46 148.638 141.308Z" fill="#D1E5E4"/>
<path d="M148.57 141.901C148.57 141.901 149.724 142.988 151.208 143.317C152.691 143.613 153.681 143.416 153.681 143.317C153.714 143.218 153.549 145.951 151.208 145.82C148.933 145.721 148.471 143.482 148.57 141.901Z" fill="#5895A8"/>
<path d="M155.231 141.308C155.33 140.814 156.879 140.748 158.165 140.814C159.451 140.88 160.078 141.077 160.341 141.571C160.605 142.065 160.144 144.7 159.253 145.391C158.363 146.083 156.978 145.885 156.385 145.391C155.198 144.436 154.967 142.46 155.231 141.308Z" fill="#D1E5E4"/>
<path d="M155.167 141.901C155.167 141.901 156.321 142.988 157.805 143.317C159.289 143.613 160.278 143.416 160.278 143.317C160.311 143.218 160.146 145.951 157.805 145.82C155.53 145.721 155.068 143.482 155.167 141.901Z" fill="#5895A8"/>
<path d="M161.824 141.308C161.923 140.814 163.473 140.748 164.759 140.814C166.045 140.88 166.671 141.077 166.935 141.571C167.199 142.065 166.737 144.7 165.847 145.391C164.956 146.083 163.572 145.885 162.978 145.391C161.791 144.436 161.56 142.46 161.824 141.308Z" fill="#D1E5E4"/>
<path d="M161.76 141.901C161.76 141.901 162.914 142.988 164.398 143.317C165.881 143.613 166.871 143.416 166.871 143.317C166.904 143.218 166.739 145.951 164.398 145.82C162.123 145.721 161.661 143.482 161.76 141.901Z" fill="#5895A8"/>
<path d="M168.421 141.637C168.52 141.143 170.069 141.077 171.355 141.143C172.641 141.209 173.268 141.407 173.531 141.901C173.795 142.395 173.334 145.029 172.443 145.721C171.553 146.412 170.168 146.215 169.575 145.721C168.388 144.766 168.157 142.79 168.421 141.637Z" fill="#D1E5E4"/>
<path d="M168.353 142.23C168.353 142.23 169.507 143.317 170.991 143.646C172.475 143.942 173.464 143.745 173.464 143.646C173.497 143.547 173.332 146.281 170.991 146.149C168.716 146.05 168.254 143.811 168.353 142.23Z" fill="#5895A8"/>
<path d="M175.243 141.506C175.342 141.012 176.892 140.946 178.178 141.012C179.464 141.078 180.09 141.275 180.354 141.769C180.618 142.263 180.156 144.898 179.266 145.589C178.376 146.281 176.991 146.083 176.397 145.589C175.177 144.667 174.947 142.691 175.243 141.506Z" fill="#D1E5E4"/>
<path d="M175.147 142.131C175.147 142.131 176.301 143.218 177.784 143.547C179.268 143.844 180.257 143.646 180.257 143.547C180.29 143.449 180.125 146.182 177.784 146.05C175.509 145.951 175.048 143.679 175.147 142.131Z" fill="#5895A8"/>
<path d="M182.038 141.835C182.136 141.341 183.686 141.275 184.972 141.341C186.258 141.407 186.884 141.604 187.148 142.098C187.412 142.592 186.95 145.227 186.06 145.918C185.17 146.61 183.785 146.412 183.192 145.918C181.972 144.996 181.774 143.02 182.038 141.835Z" fill="#D1E5E4"/>
<path d="M181.938 142.461C181.938 142.461 183.092 143.547 184.576 143.877C186.059 144.173 187.048 143.976 187.048 143.877C187.081 143.778 186.917 146.511 184.576 146.379C182.301 146.281 181.872 144.008 181.938 142.461Z" fill="#5895A8"/>
<path d="M188.631 141.835C188.73 141.341 190.279 141.275 191.565 141.341C192.851 141.407 193.478 141.604 193.741 142.098C194.005 142.592 193.544 145.227 192.653 145.918C191.763 146.61 190.378 146.412 189.785 145.918C188.565 144.996 188.367 143.02 188.631 141.835Z" fill="#D1E5E4"/>
<path d="M188.531 142.461C188.531 142.461 189.685 143.547 191.169 143.877C192.653 144.173 193.642 143.976 193.642 143.877C193.675 143.778 193.51 146.511 191.169 146.379C188.894 146.281 188.465 144.008 188.531 142.461Z" fill="#5895A8"/>
<path d="M195.228 141.835C195.327 141.341 196.877 141.275 198.163 141.341C199.448 141.407 200.075 141.604 200.339 142.098C200.602 142.592 200.141 145.227 199.251 145.918C198.36 146.61 196.976 146.412 196.382 145.918C195.162 144.996 194.964 143.02 195.228 141.835Z" fill="#D1E5E4"/>
<path d="M195.128 142.461C195.128 142.461 196.282 143.547 197.766 143.877C199.249 144.173 200.238 143.976 200.238 143.877C200.271 143.778 200.107 146.511 197.766 146.379C195.491 146.281 195.062 144.008 195.128 142.461Z" fill="#5895A8"/>
</g>
<defs>
<clipPath id="clip0">
<rect width="304" height="232" fill="white"/>
</clipPath>
</defs>
</svg>
