<svg width="1920" height="467" viewBox="0 0 1920 467" fill="none" xmlns="http://www.w3.org/2000/svg">
<path d="M0 -31H1920V368C784.5 673.5 429 151.5 0 368V-31Z" fill="#D6ECEB"/>
<path d="M1405.92 422H1878C1878 422 1800.78 413.201 1735.86 390.333C1670.92 367.466 1670.92 327 1609.5 327C1548.08 327 1537.54 393.85 1486.66 397.368C1435.76 400.885 1423.8 354.633 1368.24 356.259C1285.51 358.679 1239.52 421.987 1213.2 421.987C1186.87 421.987 1405.92 422 1405.92 422Z" fill="white"/>
<path d="M123 237H580C580 237 451.172 227.432 401.003 200.086C350.834 172.741 327.778 175.488 304.722 179.577C281.666 183.682 253.191 223.327 123 237Z" fill="white"/>
<path opacity="0.4" d="M1059 311H1330C1330 311 1253.61 305.259 1223.86 288.852C1194.11 272.444 1180.43 274.093 1166.76 276.546C1153.09 279.009 1136.2 302.796 1059 311Z" fill="white"/>
<path d="M1620 256H2143C2143 256 1995.57 244.997 1938.15 213.549C1880.74 182.102 1854.35 185.261 1827.97 189.964C1801.58 194.684 1768.99 240.276 1620 256Z" fill="white"/>
<path d="M1142.88 218.281C1149.05 208.433 1164.87 186.712 1164.87 186.712C1164.87 186.712 1149.62 163.84 1142.56 149.709C1135.91 165.134 1121.78 187.344 1118.93 192.52C1130.93 197.235 1139.7 207.211 1142.09 217.835L1142.88 218.281Z" fill="#DA3510"/>
<path d="M1174.99 154.726L1166.2 182.586C1166.2 182.586 1157.67 170.194 1156.95 165.681L1174.99 154.726Z" fill="#DA3510"/>
<path opacity="0.9" d="M1030.93 241H1256C1256 241 1219.19 236.739 1188.23 225.667C1157.27 214.594 1157.27 195 1127.99 195C1098.7 195 1093.68 227.37 1069.42 229.073C1045.16 230.776 1039.46 208.38 1012.97 209.167C973.522 210.339 951.596 240.994 939.047 240.994C926.498 240.994 1030.93 241 1030.93 241Z" fill="white"/>
<path opacity="0.7" d="M571.472 354H902C902 354 847.938 347.887 802.478 332C757.009 316.113 757.009 288 714.006 288C671.003 288 663.625 334.443 628 336.887C592.366 339.33 583.993 307.197 545.093 308.327C487.165 310.009 454.966 353.991 436.537 353.991C418.108 353.991 571.472 354 571.472 354Z" fill="white"/>
<path d="M674.199 419.377C681.045 409.835 698.151 389.019 698.151 389.019C698.151 389.019 686.84 363.749 682.033 348.387C674.09 363.651 658.483 385.139 655.25 390.202C665.719 396.34 672.601 407.602 673.528 418.827L674.199 419.377Z" fill="#008C8C"/>
<path d="M703.361 391.911L677.262 421.914L677.957 422.488C681.667 422.195 693.026 421.146 706.094 418.657C713.159 409.078 724.263 396.022 732.865 387.213C723.64 388.665 703.361 391.911 703.361 391.911Z" fill="#008C8C"/>
<path d="M840.619 218.944C843.727 208.445 852.444 184.874 852.444 184.874C852.444 184.874 834.751 166.063 825.816 154C823.48 169.882 816.296 193.592 815 199.034C826.103 201.241 835.612 209.058 839.867 218.677L840.619 218.944Z" fill="#00B7B7"/>
<path d="M857.929 185.814L844.105 220.23L844.897 220.527C848.073 219.132 857.761 214.738 868.518 208.544C871.823 197.946 877.602 183.043 882.5 172.643C874.801 176.76 857.929 185.814 857.929 185.814Z" fill="#00B7B7"/>
<path d="M1060.64 395.089C1064.7 388.867 1074.93 375.127 1074.93 375.127C1074.93 375.127 1066.84 360.889 1063.24 352.076C1058.68 361.801 1049.43 375.828 1047.53 379.1C1054.43 381.97 1059.22 388.175 1060.19 394.812L1060.64 395.089Z" fill="#007771"/>
<path d="M1077.98 377.801L1062.69 397.005L1063.15 397.284C1065.45 396.843 1072.5 395.404 1080.58 393.01C1084.67 386.972 1091.16 378.634 1096.24 372.927C1090.53 374.448 1077.98 377.801 1077.98 377.801Z" fill="#007771"/>
<path d="M1563.27 362.427C1568.42 355.246 1581.3 339.579 1581.3 339.579C1581.3 339.579 1572.79 320.561 1569.17 309C1563.18 320.488 1551.43 336.659 1549 340.47C1556.88 345.089 1562.06 353.565 1562.76 362.013L1563.27 362.427Z" fill="#00E2D6"/>
<path d="M1585.22 341.756L1565.57 364.337L1566.09 364.768C1568.89 364.548 1577.44 363.758 1587.28 361.885C1592.6 354.676 1600.96 344.85 1607.44 338.22C1600.49 339.313 1585.22 341.756 1585.22 341.756Z" fill="#00E2D6"/>
<path d="M423.733 254.083C427.608 248.32 437.345 235.715 437.345 235.715C437.345 235.715 430.211 220.991 427.088 212C422.663 221.155 413.822 234.135 412 237.18C418.305 240.62 422.566 247.154 423.318 253.765L423.733 254.083Z" fill="#00B7B7"/>
<path d="M440.479 237.334L425.594 255.528L426.018 255.856C428.206 255.615 434.897 254.796 442.581 253.09C446.591 247.308 452.916 239.397 457.842 234.029C452.405 235.06 440.479 237.334 440.479 237.334Z" fill="#00B7B7"/>
</svg>
