<svg width="287" height="237" viewBox="0 0 287 237" fill="none" xmlns="http://www.w3.org/2000/svg">
<g clip-path="url(#clip0)">
<path d="M239.535 42.9369C315.161 68.8549 286.578 107.86 248.814 158.494C231.327 184.722 219.011 211.665 196.53 226.758C151.277 251.774 45.2699 222.233 14.5631 177.864C-18.7683 128.237 8.73431 26.43 60.4126 2.23511C86.6423 -8.72239 124.433 23.8938 155.667 28.5684C186.9 33.243 214.201 31.8027 239.535 42.9369Z" fill="#4A727D"/>
<path d="M235.489 38.5897C303.617 64.8612 279.74 109.248 244.381 156.939C212.419 215.05 181.273 248.823 109.809 233.191C77.8378 226.652 37.0184 210.649 19.9181 183.962C-11.6928 133.708 11.7016 32.4571 66.3733 8.90729C91.5057 -1.5907 125.197 20.342 155.114 24.8222C185.048 29.2935 211.208 27.9238 235.489 38.5897Z" fill="#3B5F66"/>
<path d="M152.762 88.4815H131.922V38.943H108.546V64.6313H89.1981V84.9026H75.3809V25.688H52.3026V67.4148H48.1329V37.6794H32.6391C3.62656 78.3105 -4.07207 145.823 19.9192 183.962C37.0195 210.64 77.8389 226.652 109.81 233.191C126.05 236.743 140.2 237.733 152.753 236.478V88.4815H152.762Z" fill="#263C43"/>
<path d="M18.4707 35.364H20.8057C20.8057 58.8343 20.8057 159.82 20.8057 185.234L18.4707 181.443V35.364Z" fill="#122123"/>
<path d="M55.0485 48.0447C49.7903 51.3849 18.0038 68.263 20.7953 72.7786C20.7953 72.7786 28.9066 67.1673 37.4391 61.556C46.4896 55.6001 56.0142 49.653 56.8393 50.3952C58.4545 51.8356 55.0485 48.0447 55.0485 48.0447Z" fill="#122123"/>
<path d="M68.5066 51.0229C68.5066 51.0229 80.8402 44.2452 79.1635 38.9432C71.184 36.6545 55.0493 45.2703 55.0493 45.2703C55.0493 45.2703 57.4019 55.7682 68.5066 51.0229Z" fill="#EEA420"/>
<path d="M55.0493 45.2702C55.0493 45.2702 63.5731 33.977 79.1635 38.9432C70.3061 40.5249 58.2095 43.715 55.0493 45.2702Z" fill="#122123"/>
<path d="M152.762 95.3121V172.695L201.885 132.93L152.762 95.3121ZM131.913 79.353V88.4813H143.834L131.913 79.353ZM52.3021 66.4426L52.1792 67.4147H52.3021V66.4426ZM79.1639 38.9429C79.9188 41.3111 77.8735 43.9798 75.3717 46.1978V84.9025H89.1888V64.6311H108.536V61.4411L79.1639 38.9429Z" fill="#657472"/>
<path d="M55.0497 45.2698L54.6546 48.2919C54.7951 48.2036 54.9268 48.124 55.0497 48.0445C55.0497 48.0445 57.4549 50.722 57.2706 50.722C57.2355 50.722 57.1038 50.6248 56.8492 50.3951C56.8053 50.3509 56.7263 50.3332 56.621 50.3332C56.2172 50.3332 55.4008 50.6513 54.2772 51.208L52.302 66.4425V67.4145H52.1791L34.8945 200.53C48.8785 212.212 67.5149 220.934 85.8442 226.873L152.762 172.704V95.3208L143.843 88.49H131.922V79.3529L108.545 61.4498V64.6398H89.1975V84.9112H75.3804V46.2065C72.2904 48.9547 68.5157 51.0313 68.5157 51.0313C66.4703 51.9061 64.7234 52.2596 63.2311 52.2596C56.621 52.2596 55.0497 45.2698 55.0497 45.2698Z" fill="#505555"/>
<path d="M55.0484 48.0449C54.9343 48.1156 54.8026 48.204 54.6533 48.2924L54.2759 51.2085C55.3995 50.6517 56.2159 50.3336 56.6197 50.3336C56.725 50.3336 56.7953 50.3513 56.8479 50.3955C57.1025 50.6252 57.2342 50.7224 57.2693 50.7224C57.4536 50.7224 55.0484 48.0449 55.0484 48.0449Z" fill="#3E413C"/>
<path d="M79.163 38.9429L55.0488 45.2699C55.0488 45.2699 56.6202 52.2598 63.2215 52.2598C64.7138 52.2598 66.4607 51.9063 68.5061 51.0315C68.5061 51.0315 72.2808 48.9548 75.3708 46.2066C77.8726 43.9798 79.918 41.3111 79.163 38.9429Z" fill="#EFAF41"/>
<path d="M94.1025 109.911C94.1025 109.911 96.1479 118.031 95.9811 119.869C95.8143 121.708 93.7602 124.403 94.8311 126.011C99.3257 128.494 103.144 145.301 107.446 148.112C121.351 146.185 118.743 148.553 120.315 159.325L169.719 140.097C169.719 140.097 150.907 135.431 150.442 127.531C149.977 119.631 154.024 94.8705 153.12 91.433C152.215 87.9956 94.1025 109.911 94.1025 109.911Z" fill="#0C252D"/>
<path d="M67.5212 112.358C66.3186 106.756 91.5125 97.5125 91.3457 95.2238C91.1701 92.9351 91.0121 72.2308 93.3647 69.7123C95.7173 67.1938 119.77 57.0493 132.929 58.9227C150.933 77.9304 131.059 76.1189 165.286 71.5768C169.737 70.7285 167.586 78.3546 166.734 79.2913C165.883 80.228 153.137 91.424 153.137 91.424C139.679 93.6155 77.906 120.276 67.5212 112.358Z" fill="#0C252D"/>
<path d="M151.102 144.762L120.439 157.867C110.01 167.429 90.0397 212.46 83.7192 225.441L86.6512 227.129C94.5693 229.665 102.426 231.68 109.809 233.191C120.395 235.506 130.087 236.735 139.041 236.956L151.102 144.762Z" fill="#0C252D"/>
<path d="M235.49 38.5897C211.209 27.9238 185.049 29.2935 155.124 24.8221C149.058 23.912 142.843 22.286 136.566 20.3596V236.867C189.658 239.28 216.722 207.22 244.382 156.939C279.742 109.248 303.619 64.8612 235.49 38.5897Z" fill="#152E36"/>
<path d="M182.545 99.4565H143.587V118.128H182.545V99.4565Z" fill="#19383F"/>
<path d="M236.875 168.657H212.217V149.985H249.077L236.875 168.657Z" fill="#19383F"/>
<path d="M206.948 76.1721H167.99V94.844H206.948V76.1721Z" fill="#19383F"/>
</g>
<defs>
<clipPath id="clip0">
<rect width="287" height="237" fill="white"/>
</clipPath>
</defs>
</svg>
