<svg width="266" height="207" viewBox="0 0 266 207" fill="none" xmlns="http://www.w3.org/2000/svg">
<path d="M101.638 27.5028C108.993 23.0597 112.545 20.808 112.545 20.808C112.545 20.808 106.391 29.4995 111.244 29.8194C116.097 30.1392 140.176 28.8383 140.176 28.8383C140.176 28.8383 138.125 63.1982 134.43 66.9195C130.735 70.6407 132.248 71.9805 132.894 80.9919C133.541 90.0033 143.975 108.67 150.221 99.6587C153.465 94.9823 155.802 89.0914 155.1 83.7105C154.354 78.0097 152.064 72.309 151.53 66.5564C150.411 54.4807 149.249 42.2365 146.742 30.325C144.956 21.8366 142.115 11.2823 135.557 5.14503C121.566 -7.95065 101.889 6.31629 98.307 21.5514C96.0691 31.0684 95.7438 40.9874 92.5561 50.3014C91.1466 54.4159 90.1751 57.5148 87.6293 61.007C84.8103 64.8795 82.1821 68.9076 80.0873 73.221C78.1617 77.1842 76.6784 81.476 76.7782 85.8758C76.8823 90.4787 76.9907 94.8007 79.4237 98.6473C81.3494 101.69 84.1597 107.071 88.3276 107.062C94.356 107.049 113.499 75.5635 111.249 71.1983C108.993 66.8287 98.0684 62.4375 101.638 27.5028Z" fill="#2B3238"/>
<path d="M38.3997 37.2523C39.4059 33.8639 42.2293 26.2615 42.2293 26.2615C42.2293 26.2615 36.5001 20.1891 33.6074 16.2949C32.8527 21.4208 30.5238 29.0708 30.1074 30.8255C33.6984 31.5386 36.7777 34.0627 38.1569 37.1659L38.3997 37.2523Z" fill="#D63826"/>
<path d="M43.9992 26.5645L39.5234 37.6721L39.7793 37.7672C40.8072 37.3177 43.9428 35.9001 47.4254 33.9033C48.4967 30.4846 50.3659 25.6742 51.9532 22.3203C49.4638 23.6428 43.9992 26.5645 43.9992 26.5645Z" fill="#D63826"/>
<path d="M199.834 81.5271C200.48 79.3575 202.289 74.4822 202.289 74.4822C202.289 74.4822 198.62 70.5924 196.764 68.0986C196.278 71.3834 194.79 76.2845 194.521 77.4082C196.824 77.8664 198.798 79.4828 199.683 81.4709L199.834 81.5271Z" fill="#00ACAC"/>
<path d="M203.425 74.677L200.559 81.791L200.723 81.8515C201.383 81.5619 203.391 80.6543 205.624 79.375C206.309 77.1837 207.511 74.1021 208.526 71.9541C206.925 72.8055 203.425 74.677 203.425 74.677Z" fill="#00ACAC"/>
<path d="M4.0811 79.1026C5.13065 77.2183 7.83258 73.0648 7.83258 73.0648C7.83258 73.0648 5.2304 68.6909 4.02905 65.9854C2.89277 68.9373 0.485742 73.1815 0 74.1756C2.04705 75.0745 3.54331 76.9892 3.94665 79.0162L4.0811 79.1026Z" fill="#EBA123"/>
<path d="M9.55539 66.9453L8.05479 72.2743C8.05479 72.2743 6.6019 69.9059 6.48047 69.0415L9.55539 66.9453Z" fill="#EBA123"/>
<path d="M245.587 178.12C239.424 170.695 233.456 162.236 231.478 151.795C228.057 133.72 237.533 110.23 221.495 98.4696C215.041 93.737 207.057 93.2572 199.736 95.1719C199.662 95.1892 199.589 95.2108 199.515 95.2281C171.975 102.614 166.814 133.495 155.937 160.823C148.698 179.006 135.974 193.256 124.173 207.172C115.781 217.065 101.399 230.943 95.0023 242.959C94.5122 243.879 93.9874 244.869 93.4453 245.911H255.583C263.962 233.018 270.095 218.591 262.64 201.964C258.45 192.616 251.749 185.545 245.587 178.12Z" fill="#FFDAC1"/>
<path d="M240.29 184.685C234.127 177.26 228.16 168.802 226.182 158.36C222.76 140.285 232.236 116.795 216.198 105.035C209.745 100.302 201.76 99.8227 194.44 101.737C194.366 101.755 194.292 101.776 194.218 101.794C166.679 109.18 161.518 140.061 150.64 167.389C143.402 185.571 133.614 202.163 121.813 216.076C113.616 225.74 104.365 234.311 97.9766 245.906H254.234C260.336 234.717 263.562 222.386 257.343 208.525C253.154 199.181 246.457 192.11 240.29 184.685Z" fill="#F6C8A8"/>
<path opacity="0.4" d="M200.559 124.575H251.037C251.037 124.575 236.807 123.529 231.269 120.538C225.726 117.551 223.18 117.849 220.634 118.295C218.084 118.744 214.94 123.075 200.559 124.575Z" fill="white"/>
<path d="M60.835 245.997C60.835 245.997 63.1076 221.854 64.1224 213.305C65.0809 205.232 67.3448 196.225 66.9632 188.138C65.9873 188.648 65.2154 189.738 64.2395 190.49C56.7236 196.316 48.6655 196.316 40.8415 191.017C37.5931 188.817 34.5789 186.055 32.9786 182.481C30.7971 177.619 31.5084 171.978 32.7878 166.809C36.2357 152.875 43.3873 140.19 49.702 127.289C52.7986 120.957 55.8432 114.453 60.2452 108.886C64.5778 103.41 69.9513 100.505 75.9711 97.2639C85.6729 92.0386 95.8388 87.7382 105.562 82.582H139.039C145.181 84.0429 151.309 85.5901 157.411 87.2023C165.491 89.333 178.705 90.8933 184.478 97.2985C186.729 99.7966 188.238 102.857 189.713 105.878C198.794 124.428 207.872 142.982 216.953 161.532C218.072 163.818 219.204 166.148 219.612 168.659C220.215 172.363 218.515 175.868 216.515 178.881C212.807 184.46 209.576 191.16 204.142 195.261C198.976 199.16 192.631 201.39 186.534 203.361C183.389 204.376 176.88 206.395 174.672 202.587C176.268 214.157 179.855 245.997 179.855 245.997H120.345H60.835Z" fill="#9AC3BF"/>
<path d="M174.667 202.591C171.792 201.71 160.971 193.398 159.665 190.088C158.503 187.14 158.603 186.379 158.603 186.379L155.129 186.008C155.129 186.008 155.502 203.719 158.377 207.907C161.253 212.095 174.415 226.181 177.529 227.758C177.226 221.137 174.667 202.591 174.667 202.591Z" fill="#86B7B1"/>
<path d="M66.9629 188.138C66.9629 188.138 79.6963 172.462 80.4336 166.044C81.0017 161.1 71.6208 147.546 71.6208 147.546L103.593 142.429L101.073 159.285L66.9629 188.138Z" fill="#86B7B1"/>
<path d="M109.471 70.1954C110.008 75.5547 105.559 82.5866 105.559 82.5866L122.056 127.315L139.031 82.5866C139.031 82.5866 132.738 78.5671 132.738 70.1954C132.738 61.8236 109.471 70.1954 109.471 70.1954Z" fill="#966A4D"/>
<path d="M160.29 166.048C160.243 166.044 160.199 166.044 160.151 166.044C159.579 166.048 159.028 166.251 158.499 166.472C155.372 167.76 152.488 169.588 149.881 171.727C149.881 171.727 115.784 176.629 115.173 177.415C114.353 178.465 113.425 179.758 114.817 180.678C116.495 181.789 119.909 181.828 121.891 182.234C126.904 183.263 131.922 184.296 136.936 185.324C142.019 186.37 147.292 186.137 152.362 185.134C159.08 183.803 166.145 181.266 167.186 173.499C167.438 171.615 166.366 170.068 165 168.888C163.964 167.993 161.747 166.156 160.29 166.048Z" fill="#966A4D"/>
<path d="M111.24 71.1937C113.556 72.7756 117.655 74.8588 121.419 74.9755C124.975 75.0835 128.224 73.2942 129.703 72.2829C132.747 70.1953 111.24 71.1937 111.24 71.1937Z" fill="#7F4E36"/>
<path d="M120.269 73.6872C112.81 73.2074 106.109 69.3565 102.613 62.6963C99.031 55.8675 99.1308 46.5709 99.7379 39.1327C100.384 31.2148 102.141 23.1672 106.196 16.2477C108.173 12.8765 110.819 9.75173 114.332 8.0186C128.531 1.01263 136.945 18.0802 140.176 28.8377C142.613 36.9415 144.166 45.4731 143.077 53.8665C141.568 65.5316 133.068 74.2058 120.798 73.7131C120.621 73.7088 120.443 73.7001 120.269 73.6872Z" fill="#966A4D"/>
<path d="M144.712 95.9413L144.49 93.75L94.0254 98.0547V98.5474L144.712 95.9413Z" fill="#35515F"/>
<path d="M96.1895 98.919L147.99 97.3242L150.215 175.708L100.553 178.37C99.3252 178.435 98.2756 177.502 98.2106 176.279L94.0254 98.9882L96.1895 98.919Z" fill="#35515F"/>
<path d="M67.0802 142.986C67.3577 142.498 67.5659 141.975 67.7741 141.452C68.5938 139.377 69.4091 137.307 70.2288 135.233C71.0442 133.167 71.3651 131.14 73.2951 129.8C75.1643 128.503 77.2764 127.596 79.3755 126.74C81.4659 125.888 83.088 125.257 85.3432 125.737C87.2298 126.139 88.9082 126.969 90.7427 127.548C93.0543 128.283 96.3678 128.883 98.1373 130.677C98.944 131.494 99.3083 132.86 98.649 133.798C97.1441 135.933 100.926 135.717 100.223 137.908C99.9328 138.811 97.9291 140.255 98.1329 140.475C98.3368 140.691 100.505 141.992 100.258 143.077C100.015 144.127 95.444 144.698 94.633 144.884C92.2433 144.884 88.4788 146.007 86.2626 146.867C86.3494 146.833 89.5804 147.827 89.9707 147.879C91.8313 148.134 93.6875 148.436 95.5351 148.791C95.9688 148.873 96.4155 148.968 96.7711 149.227C97.2092 149.547 97.439 150.066 97.6515 150.563C97.7947 150.891 97.9378 151.237 97.9118 151.591C97.786 153.433 88.5742 152.966 87.2905 153.022C85.0396 153.126 82.7887 153.216 80.5422 153.359C80.0824 153.389 77.7621 153.242 77.4586 153.696C76.6128 154.967 76.821 156.834 75.8842 158.122C74.44 160.106 70.8837 159.293 68.7412 158.805C67.722 158.571 66.6985 158.243 65.8701 157.612C62.2444 154.846 62.5914 148.294 65.315 145.13C65.8528 144.508 66.4643 143.946 66.9154 143.259C66.9717 143.172 67.0281 143.081 67.0802 142.986Z" fill="#966A4D"/>
<path d="M94.0254 98.9842V98.2279L96.1895 98.3965L143.254 94.8438L146.607 97.3678L94.0254 98.9842Z" fill="#EFEFE8"/>
<path d="M96.1895 99.4204V98.0806V98.0547L94.0254 98.1757V98.9839L94.0471 99.4204H96.1895Z" fill="#35515F"/>
</svg>
