<svg width="265" height="274" viewBox="0 0 265 274" fill="none" xmlns="http://www.w3.org/2000/svg">
<g clip-path="url(#clip0)">
<path d="M247.661 214.789C240.311 200.087 242.649 204.431 234.631 153.641C226.613 102.85 254.342 89.1839 216.924 40.7995C189.195 4.84533 112.855 -5.5132 85.4601 5.17948C58.0648 15.8722 161.198 93.8953 186.589 125.973C211.98 158.051 247.661 214.789 247.661 214.789Z" fill="#D6ECEB"/>
<path d="M145.866 251.445C132.335 230.895 136.344 223.878 116.8 215.859C97.2558 207.839 48.2783 213.152 42.2647 208.14C36.251 203.128 8.1875 195.442 8.1875 151.335C8.1875 125.038 26.7629 131.019 26.7629 109.934C26.7629 95.9001 13.9338 94.2293 17.8761 58.4423C20.8829 31.0423 51.5858 7.88595 80.5179 2.84034C142.358 -7.95259 178.406 12.6642 206.837 54.4325C235.435 96.4347 219.533 126.675 232.562 153.741C245.592 180.807 253.109 185.318 262.129 205.366C271.15 225.415 256.617 249.474 250.603 250.476C244.589 251.479 145.866 251.445 145.866 251.445Z" fill="#C1E6E4"/>
<path d="M16.8711 97.9717C16.3699 107.996 14.5658 106.125 10.5568 125.171C6.54768 144.218 6.04654 167.741 16.0692 187.289C26.0919 206.837 45.135 204.832 45.135 204.832L51.1487 198.817C51.1487 198.817 48.1418 199.819 33.1078 169.746C18.0738 139.673 19.076 137.167 20.0783 118.622C21.0806 100.077 16.8711 97.9717 16.8711 97.9717Z" fill="#D6ECEB"/>
<path d="M243.154 112.607C225.046 108.297 218.999 110.302 206.07 109.734C193.14 109.166 187.394 103.118 190.267 93.9286C193.14 84.7395 208.107 85.0069 212.417 89.3173C214.422 78.09 219.333 73.7796 227.084 72.9108C234.835 72.042 238.309 77.2213 240.882 81.2644C243.454 85.2742 243.154 112.607 243.154 112.607Z" fill="white"/>
<path d="M100.596 95.7997C100.596 95.7997 99.8279 105.356 88.97 106.492C75.9739 107.829 73.3012 100.812 74.27 94.1624C67.8555 86.5773 64.3142 83.0019 66.9201 71.8414C56.7303 68.7673 54.3583 66.3948 53.1556 61.65C51.9528 56.9051 55.2937 53.5636 55.2937 53.5636C55.2937 53.5636 49.3469 54.2653 49.6142 44.7756C49.8481 35.2858 57.6658 35.9875 59.5701 35.9875C58.8685 29.5719 62.8776 22.2207 71.898 26.2639C75.9071 19.2468 85.4955 11.3944 97.957 18.2109C106.944 23.1229 105.107 34.2834 102.033 35.8205C106.677 38.4268 107.144 43.5392 106.677 44.9761C106.209 46.4129 105.842 51.4585 108.447 48.6183C111.053 45.778 108.982 43.0714 114.661 37.3575C121.878 30.14 133.27 32.6461 136.611 36.9231C144.429 34.3168 155.153 38.8612 157.993 47.148C160.532 54.5995 157.759 63.4878 148.171 65.4258C150.81 70.3044 152.113 77.2546 148.572 81.3312C145.932 84.3719 138.382 87.279 132.669 82.768C132.201 94.1624 120.809 97.9717 114.16 92.4917C112.724 95.5658 109.851 97.2031 107.512 97.7043C104.204 98.4395 100.596 95.7997 100.596 95.7997Z" fill="white"/>
<path d="M3.07653 99.0074C8.02106 93.1265 17.0415 90.6538 24.6253 90.9545C32.1758 91.2553 34.8151 98.7067 35.1157 104.588C45.2387 103.251 57.5332 108.497 56.2302 121.128C54.9273 133.759 43.9023 133.725 31.9753 133.09C20.0483 132.455 14.2685 133.425 6.41743 133.759C-1.46709 134.059 3.07653 99.0074 3.07653 99.0074Z" fill="white"/>
<path d="M8.01962 206.068C8.01962 206.068 12.1289 199.652 7.81917 189.962C3.476 180.239 0.00146484 175.895 0.00146484 175.895C0.00146484 175.895 8.42053 183.747 9.85711 188.292C11.2937 192.836 14.1669 198.817 12.9307 202.96C11.6946 207.104 8.01962 206.068 8.01962 206.068Z" fill="#71BC9A"/>
<path d="M12.5291 206.502C12.5291 206.502 10.892 189.06 14.8009 177.365C18.7097 165.67 25.2579 161.56 25.2579 161.56C25.2579 161.56 19.3111 174.057 17.4402 186.788C15.5693 199.519 17.8411 205.868 17.8411 205.868L12.5291 206.502Z" fill="#71BC9A"/>
<path d="M14.2002 205.934C14.2002 205.934 14.835 187.89 21.5168 177.732C28.1986 167.574 26.6283 170.415 26.6283 170.415C26.6283 170.415 18.9777 183.947 18.9777 192.401C18.9777 200.855 19.6124 206.502 19.6124 206.502L14.2002 205.934Z" fill="#5F9B7E"/>
<path d="M22.3845 203.829C22.3845 203.829 16.0368 190.898 17.4733 182.678C18.9099 174.458 18.7095 173.856 21.9836 178.167C25.2576 182.477 27.6965 203.829 27.6965 203.829H22.3845Z" fill="#406651"/>
<path d="M29.3678 204.03C29.3678 204.03 18.9108 179.604 9.85693 173.021C19.0778 176.93 31.6062 192.735 35.1141 198.282C38.6221 203.829 37.9873 205.065 37.9873 205.065L29.3678 204.03Z" fill="#71BC9A"/>
<path d="M33.8789 201.49C33.8789 201.49 33.4779 191.366 37.5873 184.248C35.5493 193.404 35.115 199.987 35.9502 202.025C36.752 204.097 33.8789 201.49 33.8789 201.49Z" fill="#5F9B7E"/>
<path d="M36.7515 203.395C36.7515 203.395 37.854 191.766 43.3331 187.122C41.2951 192.602 39.0901 199.452 38.9565 202.459C38.8228 205.467 37.9876 205.066 37.9876 205.066L36.7515 203.395Z" fill="#448269"/>
<path d="M131.599 197.046C131.599 197.046 136.911 197.347 138.081 200.254C139.283 203.194 145.464 210.479 145.464 210.479L145.798 219.334L139.183 231.229L138.983 238.079L125.953 222.475L132.602 216.861L131.599 197.046Z" fill="#406651"/>
<path d="M93.4111 171.451C94.547 164.099 96.8857 148.094 102.866 143.082C108.846 138.069 111.987 131.086 124.882 137.067C137.778 143.048 140.384 142.747 138.714 159.087C137.077 175.394 135.039 199.853 135.039 199.853L93.4111 171.451Z" fill="#DA3510"/>
<path d="M60.9721 171.751C56.963 174.09 53.288 173.088 52.2858 178.267C51.2835 183.446 50.4483 186.955 52.6199 192.468C54.7914 197.982 61.1391 187.957 61.1391 187.957L60.9721 171.751Z" fill="#DA3510"/>
<path d="M58.1347 189.294C58.1347 189.294 36.2518 199.151 22.1867 200.354C18.8124 200.655 42.4325 205.066 48.112 210.078C53.7916 215.09 66.7542 221.539 66.7542 221.539L63.9813 206.001L58.1347 189.294Z" fill="#93343D"/>
<path d="M55.7925 214.689C62.6413 218.03 67.9868 220.035 72.9981 221.205C78.0094 222.374 82.5197 223.21 91.7071 223.544C99.0905 223.811 99.291 221.739 104.403 222.708C109.481 223.677 112.254 223.343 112.254 224.346C112.254 225.482 111.151 226.351 108.813 226.518C106.474 226.685 109.147 229.692 91.7739 228.021C74.4013 226.351 59.4675 222.374 58.4652 220.035C57.4629 217.696 55.7925 214.689 55.7925 214.689Z" fill="#BC8B75"/>
<path d="M4.51101 212.851C2.03874 209.476 2.6067 206.001 11.5269 201.457C23.8882 195.175 31.5723 199.82 42.1964 205.4C53.7559 211.481 60.8052 218.832 68.9904 222.709C77.1756 226.585 84.8596 224.379 90.3721 225.549C95.8846 226.718 97.388 226.852 103.402 226.384C112.255 225.716 112.255 225.382 112.255 226.718C112.255 228.055 110.25 228.89 106.91 229.893C103.569 230.895 94.0471 232.332 91.7085 232.666C89.3699 233 82.9887 229.859 78.4785 229.692C73.9683 229.525 69.6585 228.723 56.2949 227.721C42.9313 226.718 22.5519 223.21 15.3689 220.537C8.186 217.863 5.84737 214.689 4.51101 212.851Z" fill="#E59D76"/>
<path d="M97.2197 223.343C86.3284 224.346 79.4795 223.444 68.4211 220.303C55.3582 216.594 54.6232 204.163 54.9573 197.982C55.2914 191.8 58.5655 188.325 58.8996 179.971C59.2337 171.617 62.9086 161.927 74.6018 157.75C86.2949 153.573 98.222 152.203 105.906 161.225C113.59 170.247 116.263 179.102 120.773 184.616C125.283 190.129 132.733 194.306 135.072 199.819C137.411 205.333 136.308 217.229 128.29 221.572C120.272 225.916 118.768 222.174 112.588 222.341C106.407 222.508 97.2197 223.343 97.2197 223.343Z" fill="white"/>
<path d="M84.5246 222.04C82.353 221.038 75.6712 216.36 73.3326 211.849C70.994 207.338 70.3258 195.309 78.511 188.793C86.6962 182.277 96.8859 183.112 103.234 184.783C109.581 186.454 115.261 191.633 117.265 199.653C119.27 207.672 116.931 218.365 105.405 222.04C93.8791 225.716 84.5246 222.04 84.5246 222.04Z" fill="#A89273"/>
<path d="M116.665 206.168C116.665 216.126 112.623 223.243 95.7179 224.212C80.3498 225.114 74.7705 216.126 74.7705 206.168C74.7705 196.211 84.1584 188.124 95.7179 188.124C107.277 188.124 116.665 196.177 116.665 206.168Z" fill="#EBF2F2"/>
<path d="M144.162 212.851C142.491 207.171 133.137 191.132 128.126 177.432C123.114 163.732 115.764 146.022 124.116 135.329C132.469 124.636 139.15 127.644 143.828 127.644C148.505 127.644 154.519 132.99 158.862 146.022C163.205 159.054 177.237 187.79 180.912 197.815C184.587 207.839 144.162 212.851 144.162 212.851Z" fill="#34515F"/>
<path d="M156.387 139.974C158.492 144.718 157.857 143.014 160.196 148.695C162.534 154.375 180.575 190.463 180.575 190.463L165.875 191.466C165.875 191.466 156.855 168.744 154.85 158.385C152.846 148.027 155.385 137.735 156.387 139.974Z" fill="#273D47"/>
<path d="M145.831 219.367C140.318 217.362 142.49 215.525 145.496 210.512C148.503 205.5 157.858 193.304 163.871 192.134C169.885 190.965 172.057 194.139 174.896 194.139C177.736 194.139 195.109 196.812 198.617 198.149C202.125 199.485 200.788 200.822 201.624 204.832C202.459 208.842 145.831 219.367 145.831 219.367Z" fill="#46759B"/>
<path d="M135.475 189.795C139.25 196.912 145.498 200.822 146.834 205.5C148.171 210.178 148.505 215.858 148.505 215.858L142.491 212.851C142.491 212.851 135.141 195.576 130.798 184.549C126.455 173.522 124.183 168.811 123.181 163.364C123.181 163.364 131.7 182.644 135.475 189.795Z" fill="#273D47"/>
<path d="M157.49 183.847C157.49 183.847 152.946 173.923 146.966 155.478C140.986 137.033 134.137 126.207 134.137 126.207C134.137 126.207 133.736 123.033 133.168 113.944C133.001 111.304 136.141 100.277 134.17 100.244C130.295 100.177 130.395 107.428 129.894 109.366C129.56 110.669 126.185 99.3082 124.582 93.8282C123.813 91.155 122.243 90.3865 121.508 91.2886C120.205 92.8925 124.849 107.461 124.849 107.461C124.849 107.461 124.916 108.196 121.375 103.284C120.807 102.483 119.47 103.385 119.002 103.619C117.466 104.454 119.537 108.163 118.568 107.127C117.399 105.891 116.597 104.287 115.495 104.655C114.192 105.055 113.423 106.225 114.325 108.063C114.927 109.266 115.027 110.034 113.457 108.263C112.321 106.994 110.182 109.132 110.917 110.803C113.256 116.149 116.731 124.469 118.802 125.305C121.441 126.374 123.446 132.89 124.214 141.444C125.885 160.089 132.8 191.065 132.8 191.065L157.49 183.847Z" fill="#E2AC76"/>
<path d="M143.495 215.458C143.495 215.458 132.269 195.275 131.3 189.595C130.331 183.914 128.761 179.437 128.761 179.437L153.551 171.685L164.743 203.395L148.506 215.859L143.495 215.458Z" fill="#46759B"/>
<path d="M168.515 188.024C165.876 187.255 161.833 185.752 160.831 187.89C159.829 190.029 161.332 191.432 161.199 193.571C161.065 195.709 160.33 197.113 160.196 200.254C160.063 203.395 161.065 207.304 163.604 211.08C166.11 214.856 170.152 215.758 170.152 215.758L168.515 188.024Z" fill="#EFC7A3"/>
<path d="M175.564 191.8C175.564 191.8 150.841 142.68 157.523 135.329C164.205 127.978 174.896 126.975 183.248 130.651C191.6 134.327 206.3 168.41 210.644 178.1C214.987 187.79 222.003 209.175 222.003 209.175H203.294L175.564 191.8Z" fill="#34515F"/>
<path d="M200.222 191.633C210.98 182.845 237.573 169.078 245.023 167.274C252.474 165.469 258.086 168.944 253.209 180.406C249.066 190.163 250.937 196.578 238.241 205.132C225.546 213.687 200.589 214.689 194.81 214.188C188.996 213.686 200.222 191.633 200.222 191.633Z" fill="#46759B"/>
<path d="M201.623 195.777C202.491 194.106 223.004 183.48 229.319 180.306C235.633 177.131 237.07 176.764 238.239 175.895C239.408 175.026 239.943 176.196 234.43 179.504C228.684 182.945 213.55 188.158 208.137 192.368C202.725 196.579 201.623 198.884 201.623 198.884V195.777Z" fill="#34515F"/>
<path d="M175.333 181.642C172.86 184.115 174.965 185.05 173.428 185.217C171.925 185.418 170.589 182.945 168.15 185.017C165.677 187.089 164.742 195.409 164.942 197.681C165.143 199.953 163.606 200.321 164.007 202.226C164.374 204.13 158.327 210.178 165.911 210.379C173.462 210.579 206.604 209.309 206.604 209.309C206.604 209.309 205.534 191.332 194.81 185.384C186.157 180.64 177.771 179.203 175.333 181.642Z" fill="#7A6852"/>
<path d="M208.141 192.335C208.141 192.335 200.691 197.614 196.648 201.758C191.57 206.97 189.499 211.18 189.499 211.18L211.849 210.445L208.542 201.691L208.141 192.335Z" fill="#46759B"/>
<path d="M142.59 224.847C142.59 228.022 143.325 234.571 143.325 239.349C143.325 244.127 141.888 266.181 159.261 270.091C176.667 274 200.421 275.604 220.433 271.962C240.445 268.353 253.641 253.116 259.722 240.786C265.802 228.456 263.931 223.11 263.497 220.771C263.063 218.465 253.641 207.438 247.561 205.968C241.481 204.531 209.876 208.006 199.719 208.44C189.563 208.875 156.789 207.872 149.272 210.746C141.721 213.653 142.59 224.847 142.59 224.847Z" fill="#B6862D"/>
<path d="M142.89 221.205C142.89 221.205 142.155 225.281 142.89 230.494C143.625 235.707 143.324 240.92 143.324 240.92C143.324 240.92 145.797 247.001 162.033 250.777C178.27 254.553 193.338 251.946 210.309 250.042C227.281 248.137 249.298 246.433 252.939 246.433C256.547 246.433 256.447 246.734 257.483 245.263C258.485 243.827 261.492 237.444 262.528 234.537C263.53 231.63 265 226.852 263.964 223.243C262.962 219.634 256.581 225.549 251.202 227.888C245.823 230.193 221.902 235.272 216.557 235.874C211.178 236.442 191.333 237.611 191.333 237.611C191.333 237.611 160.597 237.478 155.218 234.003C149.839 230.494 142.89 221.205 142.89 221.205Z" fill="#00A3A6"/>
<path d="M211.881 235.139V236.809C211.881 236.809 190.867 238.848 179.407 238.848C167.948 238.848 157.09 237.545 150.976 233.468C144.896 229.391 143.593 224.68 142.123 219.167C146.466 227.587 157.491 234.237 168.349 236.141C179.207 238.012 208.373 234.838 208.373 234.838L211.881 235.139Z" fill="#966D2A"/>
<path d="M215.956 234.705V236.375C215.956 236.375 235.968 236.509 247.561 233.635C259.154 230.728 261.493 228.322 263.931 223.243C263.363 220.069 262.628 217.73 261.459 217.296C260.29 216.861 260.29 226.15 248.263 229.057C236.235 231.931 215.956 234.705 215.956 234.705Z" fill="#966D2A"/>
<path d="M216.958 234.37L210.21 234.17L195.376 207.873L199.552 207.705L216.958 234.37Z" fill="#273D47"/>
<path d="M195.377 207.873L211.914 235.139C211.914 235.139 188.728 237.311 174.797 237.01C160.598 236.709 147.101 232.934 142.891 221.205C138.682 209.443 158.56 208.875 162.77 208.741C166.946 208.608 195.377 207.873 195.377 207.873Z" fill="#C59E57"/>
<path d="M199.552 207.705L215.923 234.671C215.923 234.671 248.697 234.37 258.118 228.155C267.54 221.906 262.461 215.524 257.985 210.913C253.474 206.268 249.298 203.796 227.983 205.834C206.668 207.872 199.552 207.705 199.552 207.705Z" fill="#C59E57"/>
<path d="M210.579 232.967C210.579 232.967 210.278 212.216 210.145 203.395C210.011 194.54 209.777 188.325 206.804 186.855C203.296 185.15 200.222 186.487 199.554 190.998C198.986 195.008 199.554 207.739 199.554 207.739L195.345 207.872C195.345 207.872 194.676 194.473 196.08 188.225C197.55 181.575 203.196 181.475 206.937 181.909C210.713 182.344 214.989 185.384 215.29 200.454C215.59 215.591 216.392 237.778 216.392 237.778L211.982 238.346L211.915 235.072L210.579 232.967Z" fill="#E5B05C"/>
<path d="M215.221 236.375C215.221 236.943 214.787 237.378 214.252 237.378C213.717 237.378 213.283 236.91 213.283 236.375C213.283 235.807 213.717 235.373 214.252 235.373C214.787 235.373 215.221 235.807 215.221 236.375Z" fill="#966D2A"/>
<path opacity="0.15" d="M146.2 229.024C146.2 229.024 149.641 244.93 152.815 247.904C157.459 249.574 160.8 250.51 160.8 250.51L155.02 235.507C155.02 235.507 153.517 235.106 151.011 233.468C148.472 231.831 146.2 229.024 146.2 229.024Z" fill="white"/>
<path opacity="0.15" d="M169.184 238.447C169.184 238.447 172.658 249.808 174.83 252.582C180.71 252.716 187.224 252.482 188.227 252.415C185.821 248.071 183.015 238.848 183.015 238.848C183.015 238.848 171.422 238.648 169.184 238.447Z" fill="white"/>
<path opacity="0.15" d="M198.45 237.946C198.45 237.946 202.392 249.574 203.361 250.711C205.9 250.711 217.994 249.24 217.994 249.24L215.254 237.946L211.98 238.381L211.914 236.81L198.45 237.946Z" fill="white"/>
<path opacity="0.15" d="M230.857 235.874L233.496 247.803L247.695 246.701L246.025 233.97C246.025 233.97 242.55 234.805 238.207 235.34C233.83 235.874 230.857 235.874 230.857 235.874Z" fill="white"/>
<path opacity="0.15" d="M258.754 229.526L260.191 239.817C260.191 239.817 263.131 234.705 263.933 230.328C264.735 225.95 264.367 225.716 263.933 223.244C262.864 225.95 260.525 228.523 258.754 229.526Z" fill="white"/>
<path opacity="0.15" d="M143.492 237.044C143.492 237.044 149.038 236.609 154.985 235.54C156.589 235.941 162.101 238.848 181.645 238.848C183.45 238.848 159.495 242.657 144.895 243.058C144.394 243.058 143.158 241.455 143.158 241.455L143.492 237.044Z" fill="white"/>
<path opacity="0.15" d="M156.187 249.173C156.187 249.173 224.074 238.848 230.856 235.908C230.856 235.908 243.551 235.273 254.276 231.664C258.285 230.327 261.592 228.49 263.931 223.277C265 229.592 262.494 234.571 262.494 234.571C262.494 234.571 182.981 253.049 173.626 252.515C164.272 251.98 156.187 249.173 156.187 249.173Z" fill="white"/>
<path opacity="0.15" d="M228.553 248.238C228.553 248.238 257.986 241.054 260.959 238.38C260.959 241.354 256.416 246.6 256.416 246.6C256.416 246.6 254.445 245.932 240.58 247.235C234.5 247.837 228.553 248.238 228.553 248.238Z" fill="white"/>
<path d="M143.492 241.287C143.492 241.287 143.392 242.29 143.459 243.025C145.697 245.531 151.076 249.507 158.159 251.479C165.275 253.45 170.687 254.085 175.131 254.085C179.608 254.085 191.535 254.519 194.942 253.751C198.35 252.982 213.618 251.479 215.622 251.312C217.627 251.145 232.661 249.741 234.966 249.808C237.238 249.875 254.444 248.605 255.078 248.572C255.713 248.538 257.183 245.898 257.45 245.264C256.315 246.166 255.446 246.132 254.444 246.233C253.441 246.333 245.423 246.767 241.648 247.101C237.873 247.436 230.523 248.004 227.382 248.237C224.242 248.471 214.887 249.206 212.114 249.507C209.308 249.808 200.221 250.209 196.379 251.178C192.537 252.147 184.752 251.98 181.011 251.98C177.235 251.98 172.959 251.713 166.678 250.944C160.397 250.109 150.508 246.533 143.492 241.287Z" fill="#00A3A6"/>
<path d="M156.187 215.558C156.187 215.558 169.35 215.056 172.023 214.789C171.822 215.858 166.544 216.393 164.74 216.46C162.936 216.527 156.655 216.827 156.387 216.794C156.087 216.76 156.187 215.558 156.187 215.558Z" fill="#B6862D"/>
<path d="M160.665 216.159C160.665 216.159 161.399 220.703 161.466 221.204C161.533 221.706 162.702 221.672 162.702 221.672L161.867 216.159H160.665Z" fill="#B6862D"/>
<path d="M165.642 215.724L166.578 221.204H167.914L166.611 215.858L165.642 215.724Z" fill="#B6862D"/>
<path d="M170.352 220.269C172.457 219.667 173.359 219.667 173.359 219.667V220.67C173.359 220.67 169.717 221.104 164.873 221.806C159.995 222.508 158.358 222.575 156.988 221.806" fill="#B6862D"/>
<path d="M191.502 225.815C191.502 225.815 182.314 226.684 179.675 227.052C179.842 225.983 185.087 225.214 186.891 225.047C188.695 224.88 191.001 224.546 191.268 224.579C191.535 224.646 191.502 225.815 191.502 225.815Z" fill="#B6862D"/>
<path d="M184.121 226.083C184.121 226.083 184.856 230.627 184.922 231.128C184.989 231.63 186.159 231.596 186.159 231.596L185.323 226.083H184.121Z" fill="#B6862D"/>
<path d="M189.332 226.885L190.301 231.229L191.37 231.363L190.334 226.985L189.332 226.885Z" fill="#B6862D"/>
<path d="M177.104 231.897C177.104 231.897 191.604 230.26 193.809 230.193C195.847 230.159 196.815 229.959 196.815 229.959V230.627C196.815 230.627 193.207 231.396 188.33 231.763C182.917 232.198 176.937 233.334 177.104 231.897Z" fill="#B6862D"/>
<path d="M179.544 227.754L180.546 232.064L181.615 232.198L180.546 227.854L179.544 227.754Z" fill="#B6862D"/>
<path d="M224.675 211.649C224.675 211.649 237.738 210.011 240.411 209.51C241.413 211.014 235.099 211.582 233.295 211.782C231.491 212.016 225.277 212.851 225.009 212.818C224.742 212.785 224.675 211.649 224.675 211.649Z" fill="#B6862D"/>
<path d="M229.117 211.682C229.117 211.682 229.919 214.689 230.019 215.19C230.119 215.692 231.289 215.558 231.289 215.558L230.32 211.582L229.117 211.682Z" fill="#B6862D"/>
<path d="M234.095 211.013L235.999 215.992L236.834 216.26L235.097 211.047L234.095 211.013Z" fill="#B6862D"/>
<path d="M226.012 217.864C226.012 217.864 234.932 215.592 237.07 215.191C239.208 214.79 241.781 214.289 241.781 214.289L241.146 215.057C241.146 215.057 238.64 216.026 233.863 217.162C229.085 218.298 227.415 218.499 226.012 217.864Z" fill="#B6862D"/>
<path d="M233.928 216.728L235.799 221.706L236.668 221.974L234.897 216.761L233.928 216.728Z" fill="#B6862D"/>
<path d="M232.258 221.773C232.258 221.773 244.92 218.131 247.459 217.229C248.662 218.565 242.515 220.069 240.778 220.57C239.04 221.072 233.027 222.843 232.726 222.876C232.459 222.943 232.258 221.773 232.258 221.773Z" fill="#B6862D"/>
<path d="M136.978 205.233C135.909 202.125 133.671 192.134 129.896 189.461C135.976 194.407 137.379 202.326 138.081 203.996C138.782 205.667 136.978 205.233 136.978 205.233Z" fill="#406651"/>
<path d="M138.147 205.4C138.514 201.691 137.379 195.676 135.14 192.402C132.935 189.127 130.463 186.721 130.463 186.721C130.463 186.721 133.436 188.024 134.773 189.461C136.109 190.898 138.748 194.674 139.116 195.476C140.519 198.617 139.784 204.197 139.784 204.197L138.147 205.4Z" fill="#406651"/>
<path d="M136.144 203.128C135.008 199.987 136.144 197.614 139.051 194.674C141.79 191.9 141.456 197.915 141.055 200.154C140.654 202.393 139.986 209.209 140.287 211.682C140.588 214.155 141.757 221.773 141.757 221.773C141.757 221.773 137.881 207.939 136.144 203.128Z" fill="#406651"/>
<path d="M138.149 216.025C138.149 216.025 140.488 202.158 145.332 196.144C141.824 206.168 139.819 215.858 139.986 219.367C140.153 222.875 138.149 216.025 138.149 216.025Z" fill="#406651"/>
<path d="M139.985 219.367C139.985 219.367 142.491 209.677 145.164 206.169C147.836 202.66 149.841 201.658 149.841 201.658C149.841 201.658 147.836 203.662 145.999 206.67C144.161 209.677 141.823 217.697 141.99 219.869C142.157 222.041 139.985 219.367 139.985 219.367Z" fill="#406651"/>
<path d="M137.981 234.236C138.148 226.718 133.972 215.691 130.631 210.846C127.29 206.001 126.455 202.827 128.961 203.161C131.466 203.495 137.981 210.178 139.318 213.686C140.654 217.195 141.99 218.532 142.826 220.871C143.661 223.21 143.494 231.897 143.494 234.403C143.494 236.91 143.661 247.769 142.826 250.275C141.99 252.782 137.981 234.236 137.981 234.236Z" fill="#448269"/>
<path d="M145.999 257.259C145.999 257.259 143.159 244.395 143.159 241.387C143.159 238.38 134.305 217.864 129.896 215.859C134.172 222.475 138.649 232.934 138.649 237.277C138.649 241.621 136.811 245.564 138.983 251.078C141.154 256.591 146.166 262.104 147.168 263.274C148.17 264.444 145.999 257.259 145.999 257.259Z" fill="#5F9B7E"/>
<path d="M138.815 248.605C138.314 242.256 134.639 232.399 129.962 227.554C125.285 222.709 120.44 219.367 120.44 219.367C120.44 219.367 125.786 220.704 128.459 222.709C131.131 224.714 136.811 230.227 137.479 231.564C138.147 232.9 141.154 246.099 141.154 246.099L138.815 248.605Z" fill="#5F9B7E"/>
<path d="M155.186 268.453C152.713 263.074 154.451 256.725 157.023 250.577C158.46 247.101 159.028 246.233 159.028 246.233C159.028 246.233 156.188 248.238 154.183 252.414C152.179 256.591 150.842 261.938 151.009 264.611C150.174 253.417 150.341 252.748 151.845 246.4C153.348 240.051 155.353 234.203 156.188 232.533C152.847 237.211 150.842 239.717 148.838 244.228C146.833 248.739 144.662 259.097 145.163 260.768C145.664 262.439 150.241 266.281 151.644 267.15C153.682 268.453 155.587 269.356 155.186 268.453Z" fill="#448269"/>
</g>
<defs>
<clipPath id="clip0">
<rect width="265" height="274" fill="white"/>
</clipPath>
</defs>
</svg>
