<svg width="595" height="336" viewBox="0 0 595 336" fill="none" xmlns="http://www.w3.org/2000/svg">
<path d="M77.5375 79.0241C117.065 43.592 144.294 54.2477 189.966 37.6579C235.639 21.068 267.419 -0.982592 325.46 0.0339071C383.5 1.05041 385.165 29.2514 433.081 66.6543C492.977 113.408 584.289 94.3512 584.289 177.375C584.289 231.571 633.899 278.56 519.582 287.112C468.636 290.923 389.336 342.487 333.303 335.317C277.27 328.148 265.189 307.551 197.025 290.568C128.861 273.586 97.6291 335.317 35.2565 290.568C-46.1753 232.146 38.0102 114.456 77.5375 79.0241Z" fill="#F1F4F5"/>
<path d="M86.1504 86.6518C124.604 53.5729 144.615 74.1249 178.752 60.2278C212.889 46.3308 276.65 19.1239 328.053 16.3836C379.455 13.6434 395.228 25.3091 441.842 60.2278C500.111 103.876 585.846 102.898 577.606 174.145C571.793 224.407 617.629 271.31 525.812 279.057C454.087 285.11 423.989 319.77 348.849 318.987C275.754 318.225 259.077 279.379 191.504 270.249C116.167 260.071 108.908 326.816 32.983 284.146C-51.1546 236.861 47.6971 119.731 86.1504 86.6518Z" fill="#F9F9F9"/>
</svg>
