<svg width="889" height="493" viewBox="0 0 889 493" fill="none" xmlns="http://www.w3.org/2000/svg">
<path d="M145.432 207.567C118.286 207.567 95.5782 232.624 89.6948 266.217C68.7075 271.06 52.8467 293.21 52.8467 319.845C52.8467 350.012 73.1975 374.459 98.2962 374.459C111.439 374.459 123.275 367.751 131.566 357.025C136.005 358.496 140.649 359.285 145.432 359.285C177.05 359.285 202.665 325.315 202.665 283.417C202.665 241.538 177.033 207.567 145.432 207.567Z" fill="#3C705A"/>
<path d="M135.42 406.815C135.42 406.815 128.092 356.2 131.945 328.167C126.182 317.477 117.753 305.424 105.23 302.662C92.7231 299.918 93.3424 295.058 93.8585 291.183C94.3574 287.309 89.5234 291.56 111.233 300.546C132.943 309.532 136.642 314.016 136.642 314.016C136.642 314.016 131.051 292.654 130.775 283.722C130.5 274.79 139.515 257.124 139.102 262.002C138.689 266.827 134.801 274.18 135.197 283.902C135.695 296.331 146.912 278.915 150.215 275.436C153.517 271.956 142.955 287.256 143.351 295.219C143.746 303.182 145.295 313.28 140.994 335.395C138.672 347.286 135.713 364.666 142.714 407.676C143.695 413.523 135.42 406.815 135.42 406.815Z" fill="#343942"/>
<path opacity="0.4" d="M497.106 129.279H795.419C795.419 129.279 711.332 122.822 678.578 104.348C645.824 85.8923 630.771 87.7397 615.736 90.5018C600.684 93.2639 582.088 120.042 497.106 129.279Z" fill="white"/>
<path d="M24.6345 492.081C33.2359 482.951 51.8492 462.325 57.6465 455.277C86.2546 420.553 129.76 392.789 171.873 376.306C206.725 362.657 250.196 360.505 287.819 355.895C397.4 342.425 519.47 329.494 629.12 347.071C722.858 362.047 839.957 410.204 888.451 492.081C888.434 492.081 27.1289 492.081 24.6345 492.081Z" fill="#446B72"/>
<path d="M514.825 389.848C507.652 390.117 490.776 392.664 477.926 397.47L460.637 357.438L433.646 404.752L247.341 380.952L164.2 404.896L91.983 427.818C91.983 427.818 84.5858 439.565 85.6352 442.112C86.6845 444.659 85.9792 443.619 97.2642 448.748C108.532 453.896 142.353 450.578 151.16 452.425C159.968 454.255 199.207 449.825 205.572 448.246C211.92 446.668 229.725 453.986 250.196 445.377C270.65 436.749 271.579 434.167 271.579 434.167C271.579 434.167 282.228 430.508 289.47 437.108C298.415 445.269 341.904 460.263 360.775 460.765C374.176 461.124 387.663 456.371 400.427 452.91C414.327 449.143 427.178 443.081 441.611 441.538C456.543 439.96 473.711 440.05 488.505 442.901C498.672 444.874 508.615 448.892 518.834 450.99C539.649 455.259 564.541 459.528 585.236 452.443C615.96 441.915 627.744 436.498 638.668 430.329C649.609 424.177 719.624 443.278 734.762 443.475C749.9 443.673 759.482 434.49 766.209 429.199C770.406 425.898 783.067 426.867 792.391 422.796C797.982 420.356 802.403 413.882 803.039 409.846C804.76 399.12 514.825 389.848 514.825 389.848Z" fill="#37595B"/>
<path opacity="0.6" d="M165.954 165.688H0C0 165.688 27.1458 162.477 49.9738 154.119C72.8018 145.761 72.8018 130.964 94.3912 130.964C115.981 130.964 119.679 155.411 137.57 156.684C155.461 157.975 159.658 141.062 179.201 141.654C208.273 142.533 224.444 165.688 233.699 165.688C242.954 165.688 165.954 165.688 165.954 165.688Z" fill="white"/>
<path d="M681.399 328.166C682.053 327.557 697.793 339.843 698.998 340.668C708.511 347.34 717.921 354.37 727.726 360.54C738.856 367.535 752.085 375.391 765.228 375.57C782.482 375.804 800.081 377.974 817.06 373.041C819.933 372.216 823.941 372.414 824.405 376.126C824.956 380.485 817.885 383.911 815.202 385.866C806.532 392.161 797.483 397.9 788.125 403.03C779.42 407.801 769.701 405.236 761.082 410.527C756.678 413.235 752.549 416.571 747.75 418.401C745.273 419.351 742.366 419.854 740.078 418.473C737.05 416.661 736.345 412.536 735.708 408.949C734.968 404.859 732.87 390.654 728.449 388.825C726.9 388.179 652.464 361.509 652.464 361.509L669.409 339.502C669.426 339.484 681.399 328.166 681.399 328.166Z" fill="#D69C7C"/>
<path d="M614.326 112.67C614.326 112.67 619.796 120.024 620.467 125.799C621.138 131.574 610.059 141.51 610.059 146.819C610.059 152.128 603.454 156.092 606.774 163.733C610.094 171.355 599.669 172.521 596.091 179.265C592.272 186.475 599.703 193.972 593.27 202.115C590.999 204.985 588.126 202.42 586.956 205.774C584.84 211.854 571.99 207.478 571.99 207.478L564.3 196.555L614.326 112.67Z" fill="#70492E"/>
<path d="M610.834 123.862C611.608 128.938 612.881 146.012 612.365 147.609C611.849 149.205 608.615 152.9 608.615 155.303C608.615 157.706 611.883 166.333 609.836 169.006C607.789 171.678 605.312 174.638 601.733 181.31C598.155 187.982 593.683 192.896 590.879 193.237C586.113 193.829 583.447 190.349 578.716 187.695C575.138 185.686 572.197 183.91 572.197 183.91C572.197 183.91 567.586 179.373 562.976 170.566C558.366 161.76 557.609 148.685 558.107 140.416C558.623 132.148 561.187 119.88 567.07 115.342C572.953 110.805 597.777 107.863 602.903 109.477C608.013 111.056 610.834 123.862 610.834 123.862Z" fill="#CE956E"/>
<path d="M578.562 187.605L572.128 200.895L538.118 179.265L560.809 152.523L578.562 187.605Z" fill="#CE956E"/>
<path d="M669.443 228.409C670.802 228.319 686.956 227.566 687.764 228.409C688.573 229.252 689.381 230.812 688.71 232.354C688.04 233.897 670.94 257.339 670.94 257.339L661.651 264.818L651.948 266.181L650.813 261.123L650.589 254.72C650.589 254.72 665.435 232.336 666.244 231.35C667.018 230.381 667.964 228.498 669.443 228.409Z" fill="#2B3238"/>
<path d="M684.41 332.399C684.41 332.399 732.388 372.701 734.624 373.741C736.861 374.781 744.069 378.404 744.069 378.404C750.64 381.812 754.803 385.238 762.562 386.009C779.747 387.713 797.655 393.955 814.944 390.493C817.868 389.901 821.859 390.457 822.031 394.188C822.238 398.582 814.926 401.38 812.088 403.102C802.953 408.644 793.492 413.594 783.755 417.899C774.689 421.898 765.228 418.526 756.214 423.046C751.603 425.36 747.234 428.337 742.314 429.754C739.768 430.49 736.843 430.741 734.659 429.18C731.786 427.118 731.407 422.939 731.046 419.316C730.633 415.172 729.653 400.842 725.404 398.636C723.907 397.865 651.811 364.917 651.811 364.917L670.424 344.434L684.41 332.399Z" fill="#CE956E"/>
<path d="M538.118 179.265C538.118 179.265 510.628 193.057 505.588 198.653C500.547 204.249 482.553 235.834 482.553 235.834C482.553 235.834 454.977 353.743 461.05 383.516C464.92 402.564 469.858 415.406 487.748 423.656C515.496 436.444 550.47 446.578 580.368 436.606C601.321 429.611 621.207 413.002 634.746 395.3C654.15 369.903 669.598 343.43 694.749 323.449C694.749 323.449 658.984 274.019 637.36 274.449C632.354 270.342 624.114 278.036 624.114 278.036C624.114 278.036 586.647 284.027 585.064 281.677C584.565 280.942 587.971 277.373 587.868 276.53C587.559 274.27 587.146 273.732 586.922 271.472C585.511 257.213 585.202 242.847 583.103 228.659C581.589 218.436 579.473 204.769 570.872 198.456C568.274 196.555 565.539 194.833 562.804 193.147C556.817 189.47 550.693 186.044 544.535 182.69C542.384 181.525 540.251 180.377 538.118 179.265Z" fill="#2E484C"/>
<path d="M627.125 263.168C627.125 263.168 638.719 255.581 640.337 255.312C641.954 255.043 647.2 254.469 650.572 253.554C654.46 252.514 674.69 246.811 676.221 246.811C677.735 246.811 677.081 248.963 676.583 250.218C676.084 251.474 655.991 262.181 654.821 263.293C653.652 264.405 671.473 255.061 673.796 255.671C676.135 256.281 674.948 257.446 674.071 258.648C673.194 259.868 661.238 268.244 661.238 268.244C661.238 268.244 660.705 268.8 661.668 268.8C662.631 268.8 668.119 264.495 669.77 264.674C671.422 264.836 668.876 268.692 666.708 270.145C665.298 271.095 641.42 286.054 641.42 286.054L627.125 263.168Z" fill="#CE956E"/>
<path d="M623.048 255.653C627.572 263.868 632.131 272.387 638.668 279.095C646.512 287.13 649.334 292.08 649.334 292.08C649.334 292.08 615.737 320.006 601.252 326.427C586.785 332.848 558.28 347.699 543.692 346.354C529.121 345.009 524.906 342.3 518.748 331.162C515.462 325.208 507.566 298.86 501.562 274.288C496.35 252.927 492.565 232.911 494.509 228.821C498.672 220.033 508.719 201.469 519.728 202.133C530.738 202.797 540.131 207.316 544.672 217.719C549.214 228.122 566.382 289.264 566.382 289.264C585.254 278.055 604.142 266.845 623.048 255.653Z" fill="#2E484C"/>
<path d="M578.699 187.677C578.699 187.677 572.11 200.895 571.973 207.46C571.938 209.235 557.161 197.201 556.525 195.568C555.871 193.954 561.204 190.582 561.204 190.582L578.699 187.677Z" fill="#CE956E"/>
<path d="M604.366 120.633C599.05 135.161 580.661 139.053 575.259 151.124C569.84 163.194 562.718 164.898 562.391 183.928C562.065 202.958 547.064 201.075 536.45 197.165C532.201 195.604 525.715 197.613 521.397 196.16C516.512 194.528 518.628 188.771 518.163 187.139C517.441 184.628 516.856 182.565 515.342 180.395C513.759 178.135 511.867 176.126 510.353 173.83C505.863 166.979 506.551 159.338 507.876 151.572C508.822 146.048 511.145 140.398 516.409 138.067C523.703 134.802 517.458 130.803 526.369 123.288C533.061 114.768 548.801 117.889 554.151 108.293C559.398 98.8951 567.948 105.191 575.259 101.729C582.553 98.2674 585.443 96.3842 592.427 97.0836C599.395 97.7831 610.679 106.087 614.344 112.652C614.344 112.652 615.737 125.978 615.1 130.659C614.464 135.34 612.503 144.201 612.503 144.201C612.503 144.201 610.49 124.131 609.475 122.301C608.46 120.472 604.366 120.633 604.366 120.633Z" fill="#70492E"/>
<path d="M578.389 188.322C578.389 188.322 578.217 188.663 578.114 188.914C576.583 188.986 571.13 185.417 570.081 179.265C571.336 180.969 575.293 185.883 578.699 187.694C578.682 187.73 578.424 188.268 578.389 188.322Z" fill="#A86F48"/>
<path d="M221.296 331.647L220.745 350.371L238.172 334.929V330.732L221.296 331.647Z" fill="#865A29"/>
<path d="M178.289 418.886C178.117 419.065 177.928 419.244 177.756 419.424C175.554 421.72 173.731 424.41 171.271 426.383C168.501 428.589 165.06 429.755 162.273 431.943C159.487 434.131 157.371 438.077 158.85 441.377C160.398 444.839 164.802 445.556 168.467 445.323C177.429 444.785 186.048 441.556 194.907 440.05C211.766 437.18 229.261 440.534 245.982 436.821C247.84 436.409 249.784 435.853 251.177 434.508C255.426 430.365 250.059 418.437 249.371 413.433C248.58 407.694 248.167 401.901 248.15 396.107C233.493 399.784 218.836 403.461 204.179 407.156C194.907 409.505 185.17 412.088 178.289 418.886Z" fill="#B1865B"/>
<path d="M182.538 380.97C181.816 380.916 176.035 385.077 174.556 385.687C166.058 389.22 157.955 394.17 149.578 398.045C135.299 404.663 114.845 400.968 99.8102 399.21C94.959 398.636 89.9015 397.955 85.3255 399.748C79.7175 401.937 75.5028 409.739 80.1475 415.137C80.1475 415.137 79.2358 415.98 79.2358 418.079C79.2358 422.634 84.9127 434.974 89.4886 436.409C95.6988 438.346 104.266 434.651 110.579 434.167C122.105 433.288 134.783 436.23 145.724 431.315C156.338 426.544 166.884 421.468 178.014 418.097C183.209 416.518 188.335 414.886 193.513 413.218C194.872 412.77 201.736 411.658 202.459 410.312C196.902 404.394 191.346 398.475 185.789 392.574C184.19 390.87 182.572 389.184 180.99 387.462C179.442 385.777 183.639 381.059 182.538 380.97Z" fill="#986A2C"/>
<path d="M322.912 280.404C324.443 279.364 327.884 279.382 328.503 279.848C329.139 280.314 336.829 285.767 336.829 285.767L335.866 293.282L329.879 291.416L322.207 283.901L322.912 280.404Z" fill="#B1865B"/>
<path d="M222.689 282.485C221.657 291.112 220.831 299.775 220.177 308.456C219.833 312.94 219.558 317.442 219.317 321.926C219.18 324.544 217.907 329.889 219.885 332.005C220.779 332.974 222.035 333.458 223.291 333.781C231.738 336.023 240.408 331.109 248.149 327.988C252.742 326.14 257.335 324.347 261.963 322.625C262.668 322.356 264.354 322.015 264.922 321.513C266.728 319.953 266.573 320.222 267.743 318.195C269.36 320.67 272.302 324.795 274.83 325.979L370.323 370.872L391.189 356.936L388.523 350.246L352.81 328.616C340.097 311.236 327.694 293.587 314.465 276.638C308.703 269.266 305.898 263.312 300.978 255.295C295.886 247.008 289.195 236.372 283.707 228.337C280.817 224.122 276.516 220.858 272.078 218.544C267.502 216.159 262.152 215.926 257.06 216.446C253.516 216.805 249.938 217.54 246.756 219.208C241.457 221.988 237.655 227.118 234.662 232.462C227.024 246.183 225.269 262.056 223.308 277.481C223.102 279.149 222.895 280.817 222.689 282.485Z" fill="#008989"/>
<path d="M331.186 290.484C331.186 290.484 327.058 286.879 322.258 282.808C316.151 277.624 308.96 271.67 307.842 271.418C305.847 270.97 288.558 268.585 288.128 268.818C287.698 269.051 287.25 269.499 287.25 270.181C287.25 270.862 287.904 272.333 288.455 272.782C289.005 273.23 306.294 286.843 306.294 286.843L315.859 294.107L331.186 290.484Z" fill="#9EB4BE"/>
<path d="M305.486 286.413C305.486 286.413 302.699 287.596 302.578 288.529C302.458 289.462 302.578 293.013 303.18 294.089C303.783 295.165 305.486 296.851 305.486 296.851C305.486 296.851 304.488 299.828 304.97 301.712C305.451 303.577 309.219 309.245 309.219 309.245C309.219 309.245 308.634 313.603 309.219 315.522C309.804 317.441 312.367 319.253 312.367 319.253C312.367 319.253 312.246 322.553 314.035 325.279C315.824 328.023 318.336 329.763 321.261 330.247C324.185 330.732 330.206 331.306 333.612 330.247C337.018 329.189 342.196 322.158 342.196 322.158L332.167 296.026L305.486 286.413Z" fill="#B1865B"/>
<path d="M437.895 398.529C438.566 400.197 435.555 403.443 434.867 404.914C433.353 408.196 432.338 411.711 430.738 414.976C427.59 421.343 423.444 427.297 417.716 431.387C411.041 436.158 402.887 438.041 394.888 439.278C376.034 442.202 355.563 443.995 336.915 438.794C325.234 435.53 314.637 429.234 304.78 422.078C296.489 416.034 286.339 404.053 275.519 403.855C274.624 403.838 273.729 403.945 272.852 403.712C271.046 403.228 269.876 401.434 269.119 399.659C268.104 397.255 266.969 392.735 263.718 393.291C245.637 396.358 231.05 409.954 212.918 413.11C203.56 414.742 193.943 413.003 186.03 407.443C185.29 406.922 184.551 406.349 184 405.613C183.432 404.842 183.106 403.909 182.779 403.012C179.132 392.628 175.915 381.723 184.052 372.737C188.026 368.361 193.1 365.258 198.038 362.101C212.66 352.721 225.648 341.601 239.358 330.947C250.781 322.069 264.578 319.594 278.357 322.858C287.784 325.082 296.712 329.135 305.572 333.153C317.338 338.498 329.105 343.825 340.872 349.17C348.991 352.846 355.494 354.03 364.233 352.882C377.393 351.16 389.572 349.923 402.818 351.609C403.696 351.716 404.59 351.842 405.382 352.219C406.345 352.667 407.102 353.456 407.859 354.227C415.497 362.101 426.403 369.993 430.584 380.414C433.061 386.44 435.486 392.484 437.895 398.529Z" fill="#009B9F"/>
<path d="M441.181 175.229C444.776 173.795 464.112 190.672 467.467 192.932C478.046 200.088 489.039 207.029 495.972 218.383C502.612 229.252 504.349 242.273 504.59 254.9C504.624 256.873 504.71 284.601 504.642 284.619L450.281 292.816L468.826 342.013L459.295 365.85C459.295 365.85 450.539 382.53 449.954 385.902C449.387 389.274 448.595 401.793 445.998 401.793C443.4 401.793 427.728 393.363 422.516 389.83C417.304 386.296 417.304 373.508 413.897 367.249C410.491 360.989 373.196 343.036 364.319 336.776C355.443 330.516 352.845 328.615 352.845 328.615L357.025 274.198C357.025 274.198 359.382 265.213 359.898 261.41C360.414 257.608 365.111 230.669 366.418 224.947C367.725 219.226 371.682 208.662 374.503 204.626C377.324 200.591 381.023 199.102 381.023 199.102C381.023 199.102 441.181 175.247 441.181 175.229Z" fill="#E79C20"/>
<path d="M395.972 209.235C395.164 210.563 396.144 213.522 396.385 214.921C396.626 216.284 396.505 220.212 398.673 218.957C414.155 209.953 425.337 197.165 436.398 183.103C439.013 179.785 439.168 178.44 438.136 174.548C437.31 171.409 436.295 168.324 435.297 165.257C433.887 160.988 432.425 156.738 430.894 152.505C430.894 152.541 396.127 209.002 395.972 209.235Z" fill="#986A2C"/>
<path d="M502.887 284.888C503.644 292.206 503.541 302.017 503.523 309.424C503.506 318.051 502.938 325.746 502.921 334.373C502.904 346.372 501.511 357.617 494.716 367.697C491.413 372.594 487.697 373.168 482.175 372.414C462.34 369.688 443.555 361.832 424.993 354.066C413.553 349.277 402.027 344.435 391.826 337.207C387.921 334.445 384.223 331.342 380.042 329.064C373.385 325.441 367.175 326.212 360.053 326.93C355.89 327.342 347.959 329.261 344.123 326.804C341.25 324.957 339.668 320.222 338.825 320.024C337.982 319.827 331.393 318.285 330.464 317.603C329.535 316.921 333.716 314.984 334.266 314.123C334.817 313.245 324.701 309.191 323.497 308.025C322.293 306.86 326.559 304.725 328.796 304.546C331.032 304.349 333.63 302.896 331.307 302.806C328.985 302.716 318.766 300.098 316.083 297.282C313.382 294.466 311.713 290.7 313.107 290.413C314.5 290.126 335.298 290.986 335.849 290.018C336.399 289.049 336.588 281.104 338.257 280.62C339.926 280.135 353.671 280.422 355.615 281.301C359.554 283.059 363.287 288.475 366.315 291.507C370.736 295.937 374.142 299.273 379.75 301.891C392.084 307.667 404.883 312.33 417.974 315.809C430.378 319.11 445.309 323.558 458.177 321.208C457.575 317.657 455.528 314.034 454.444 310.518C453.206 306.519 450.247 292.834 450.247 292.834C458.349 291.614 466.434 290.395 474.537 289.175C483.757 287.776 493.615 285.05 502.887 284.888Z" fill="#986A2C"/>
<path d="M393.873 209.254C393.873 209.254 400.169 208.106 403.61 206.294C408.444 203.765 419.127 193.506 421.655 185.579C423.341 180.306 427.436 163.464 427.436 163.464L425.423 158.065L405.605 177.454L393.873 209.254Z" fill="#754B26"/>
<path d="M355.993 136.184C356.096 141.188 356.939 146.192 358.831 151.124C360.414 155.195 362.22 159.177 363.579 163.356C364.921 167.481 364.663 171.929 366.091 175.983C367.278 179.337 368.964 182.565 370.306 185.865C373.161 192.878 376.189 199.981 381.504 205.379C385.564 209.487 391.121 212.374 396.333 209.02C406.586 202.402 416.804 193.506 421.948 181.919C424.288 176.646 425.733 171.122 427.333 165.58C428.571 161.329 430.704 157.132 430.876 152.559C431.238 142.712 433.181 132.883 432.958 123.019C432.717 112.15 428.141 103.11 420.71 95.6848C414.207 89.1742 404.78 85.5871 395.766 86.2866C388.799 86.8246 381.797 88.3133 375.552 91.6673C360.466 99.7921 355.649 119.557 355.993 136.184Z" fill="#986A2C"/>
<path d="M382.416 129.87C379.939 127.521 374.09 128.705 370.942 129.87C367.794 131.036 365.764 136.202 363.063 135.969C360.362 135.735 357.902 134.175 353.843 136.471C349.783 138.766 346.858 138.39 345.517 136.471C344.175 134.552 343.934 136.937 343.039 133.278C342.145 129.619 343.039 128.794 340.786 128.507C338.532 128.22 338.532 128.22 338.532 124.938C338.532 121.656 342.575 122.588 343.263 119.539C343.934 116.49 345.74 118.374 347.753 112.042C349.783 105.711 347.46 107.594 350.522 101.729C353.585 95.8644 355.167 93.9991 358.763 93.0485C362.358 92.1158 364.612 91.6495 367.76 87.6498C370.908 83.6681 372.249 82.7175 377.204 82.4844C382.158 82.2512 385.083 80.1348 388.902 80.6011C392.721 81.0674 406.517 78.6641 410.336 84.0627C414.155 89.4613 409.304 85.2106 417.08 87.3449C424.855 89.4972 427.47 95.8464 428.64 99.1287C429.827 102.411 430.945 103.577 431.392 106.159C431.84 108.742 434.54 111.128 436.02 115.881C437.499 120.616 436.347 122.355 436.347 124.92C436.347 127.485 434.145 132.866 434.454 138.031C434.764 143.215 434.368 151.178 434.454 152.111C434.541 153.043 436.674 158.603 437.809 159.339C438.927 160.092 440.063 167.715 437.671 169.365C435.28 171.015 419.11 165.885 421.191 163.302C423.256 160.72 423.084 156.343 420.159 154.693C417.235 153.043 410.973 154.693 411.076 150.712C411.162 146.73 410.87 145.08 410.336 141.798C409.803 138.515 408.461 135 406.896 134.534C405.313 134.067 402.406 136.65 401.941 132.65C401.477 128.651 402.647 126.75 400.617 125.064C398.587 123.396 393.632 120.92 390.708 121.154C387.766 121.387 386.424 126.552 386.424 126.552L382.416 129.87Z" fill="#C8A29A"/>
<path d="M388.85 313.191C388.85 313.191 385.478 312.617 382.898 309.944C381.9 308.904 379.199 304.725 376.292 299.99C372.593 297.694 369.772 294.932 366.349 291.507C363.321 288.476 359.588 283.059 355.649 281.301C353.705 280.422 339.96 280.135 338.291 280.62C336.623 281.104 336.433 289.049 335.883 290.018C335.332 290.986 314.534 290.108 313.141 290.413C311.747 290.7 313.416 294.484 316.117 297.282C318.818 300.08 329.019 302.698 331.341 302.806C333.664 302.914 331.066 304.349 328.83 304.546C326.593 304.743 322.327 306.877 323.531 308.025C324.735 309.191 334.868 313.245 334.3 314.123C333.732 315.002 329.57 316.939 330.498 317.603C331.427 318.285 338.016 319.827 338.859 320.024C339.702 320.222 341.267 324.957 344.157 326.804C347.994 329.261 355.924 327.36 360.087 326.93C364.164 326.517 367.949 326.087 371.699 326.481C373.196 324.921 375.896 323.36 379.371 323.36C384.188 323.378 394.062 314.841 388.85 313.191Z" fill="#CB9A66"/>
<path d="M148.872 408.967C149.457 406.205 146.946 402.959 143.643 400.143C130.001 403.712 112.884 400.735 99.8273 399.21C94.9761 398.636 89.9185 397.955 85.3426 399.748C79.7346 401.937 75.5199 409.739 80.1646 415.137C80.1646 415.137 79.2528 415.98 79.2528 418.079C79.2528 422.634 84.9297 434.974 89.5057 436.409C95.7158 438.346 104.283 434.651 110.596 434.167C120.677 433.396 131.652 435.548 141.561 432.822C139.858 429.271 138.361 426.544 140.34 422.383C142.49 417.774 148.287 411.765 148.872 408.967Z" fill="#CB9A66"/>
<path opacity="0.8" d="M428.192 64.0303H122.311C122.311 64.0303 172.336 58.0936 214.414 42.6869C256.475 27.2801 256.475 0 296.282 0C336.089 0 342.901 45.0544 375.879 47.4219C408.857 49.8073 416.821 21.3255 438.411 27.2622C460.017 33.1989 446.376 64.0124 463.441 64.0124C480.506 64.0303 428.192 64.0303 428.192 64.0303Z" fill="white"/>
<path d="M480.764 98.1959C482.105 93.4788 485.856 82.9147 485.856 82.9147C485.856 82.9147 478.235 74.467 474.399 69.0684C473.401 76.1888 470.305 86.8426 469.737 89.2818C474.519 90.2683 478.613 93.7837 480.437 98.0883L480.764 98.1959Z" fill="#00AEAE"/>
<path d="M488.213 83.327L482.26 98.7696L482.605 98.8951C483.964 98.2674 488.144 96.2944 492.771 93.5144C494.199 88.7615 496.676 82.0715 498.792 77.4082C495.472 79.2735 488.213 83.327 488.213 83.327Z" fill="#00AEAE"/>
<path d="M365.368 34.7932C367.794 30.2555 374.004 20.2474 374.004 20.2474C374.004 20.2474 368.017 9.70121 365.248 3.2085C362.633 10.311 357.094 20.5343 355.976 22.9377C360.689 25.1079 364.13 29.6995 365.059 34.5959L365.368 34.7932Z" fill="#D23827"/>
<path d="M377.961 5.50439L374.503 18.3284C374.503 18.3284 371.166 12.6249 370.873 10.5443L377.961 5.50439Z" fill="#D23827"/>
<path d="M196.489 180.735C198.192 176.969 202.648 168.593 202.648 168.593C202.648 168.593 197.298 160.486 194.752 155.428C193.031 161.275 189.126 169.777 188.352 171.768C192.24 173.238 195.233 176.736 196.248 180.592L196.489 180.735Z" fill="#007872"/>
<path d="M204.575 169.257L197.676 181.417L197.951 181.578C199.173 181.238 202.923 180.144 207.138 178.44C208.91 174.637 211.834 169.364 214.174 165.741C211.18 166.835 204.575 169.257 204.575 169.257Z" fill="#007872"/>
<path d="M377.427 189.471C375.501 185.292 377.961 182.978 378.821 179.014C379.01 178.171 379.061 177.274 378.786 176.467C378.287 174.943 376.774 174.763 375.552 174.171C374.365 173.598 373.041 173.346 371.836 172.755C370.581 172.145 369.944 171.069 369.342 169.813C368.293 167.643 367.484 165.526 367.725 163.051C367.966 160.576 368.963 158.191 370.185 156.074C370.907 154.819 371.836 153.725 372.697 152.577C374.348 150.407 375.827 148.021 376.361 145.295C376.842 142.766 376.584 137.421 380.524 138.193C381.659 138.408 382.623 139.179 383.483 139.986C385.255 141.654 386.768 143.627 388.093 145.69C389.641 148.111 391 150.712 393.099 152.631C395.043 154.406 397.142 154.998 399.584 155.572C402.423 156.236 405.347 158.227 407.016 160.702C407.566 161.527 408.014 162.459 408.048 163.464C408.117 165.222 406.964 166.746 405.881 168.091C405.881 168.378 404.986 169.185 404.797 169.436C404.367 169.975 403.937 170.513 403.489 171.051C402.629 172.127 401.752 173.203 400.892 174.279C399.533 175.947 397.21 177.992 396.884 180.27C396.763 181.184 396.987 182.117 397.365 182.942C398.225 184.825 400.462 185.83 401.15 187.785C401.666 189.273 401.718 189.632 401.735 191.73C401.752 194.295 399.825 196.501 397.658 197.703C394.492 199.443 390.828 198.905 387.388 197.864C383.947 196.824 382.932 196.196 380.386 193.578C379.234 192.412 378.133 191.013 377.427 189.471Z" fill="#CB9A66"/>
<path d="M473.573 296.887C471.32 299.111 469.548 301.729 468.688 304.007C466.073 311.02 465.075 318.696 465.798 326.176C466.073 328.991 466.382 332.363 464.284 334.157C463.475 334.838 462.426 335.161 461.394 335.269C458.142 335.574 455.046 333.96 451.846 333.278C446.135 332.041 442.54 336.417 441.198 341.869C440.836 343.304 440.699 344.9 441.353 346.228C442.058 347.68 443.537 348.505 445.017 349.044C452.018 351.608 460.207 349.438 466.83 352.918C471.836 355.536 477.22 364.271 483.551 360.056C485.529 358.747 486.854 356.63 487.989 354.496C490.57 349.617 492.359 343.753 490.552 338.515C489.675 335.968 488.006 333.798 486.957 331.323C485.013 326.767 485.305 321.243 487.731 316.957C492.187 309.029 497.261 303.738 490.243 294.914C485.546 289.013 478.459 292.062 473.573 296.887Z" fill="#CB9A66"/>
<path d="M432.115 338.785C431.014 339.036 429.844 339.52 429.087 339.7C428.623 339.807 428.107 339.951 427.831 340.363C427.625 340.686 427.591 341.081 427.591 341.475C427.608 342.731 427.831 343.986 428.261 345.17C428.726 346.425 429.552 347.699 430.808 348.022C431.805 348.291 432.855 347.896 433.749 347.412C437.138 345.582 434.919 343.269 434.867 340.309C434.833 338.552 433.543 338.462 432.115 338.785Z" fill="#CB9A66"/>
</svg>
