<svg width="299" height="267" viewBox="0 0 299 267" fill="none" xmlns="http://www.w3.org/2000/svg">
<g clip-path="url(#clip0)">
<path d="M277.349 113.094C267.883 86.8973 265.473 79.2796 230.706 57.8052C195.938 36.3307 187.229 27.541 162.548 15.4078C128.262 -1.44773 78.2451 -12.6158 40.5173 26.7138C2.78946 66.0434 277.349 113.094 277.349 113.094Z" fill="#E2EDEC"/>
<path d="M191.566 48.257C219.208 62.1827 245.542 68.9042 270.051 95.4112C294.561 121.918 307.848 161.592 291.807 194.752C275.766 227.912 253.873 238.873 237.143 242.596C220.379 246.353 211.566 246.973 203.098 248.145C203.098 248.145 189.191 252.626 160.482 244.56C131.773 236.494 109.364 225.223 95.4569 222.086C95.4569 222.086 69.8804 220.432 39.829 194.752C9.7775 169.072 -7.26199 125.089 2.99613 80.5893C11.5331 43.6726 38.452 22.6463 68.056 14.5459C97.66 6.44563 120.448 12.5812 130.844 15.58C154.355 22.336 191.566 48.257 191.566 48.257Z" fill="#BADBD9"/>
<path d="M139.005 43.6727L138.936 95.4113H270.089C270.089 95.4113 258.04 79.6933 229.538 65.8365C219.142 60.804 191.259 47.809 184.822 43.6727C178.316 39.5364 139.005 43.6727 139.005 43.6727Z" fill="#273D47"/>
<path d="M134.014 264.967C87.9901 263.622 60.6925 271.688 43.0678 262.726C25.4431 253.764 24.8923 233.634 39.9697 229.842C55.0471 226.016 134.014 264.967 134.014 264.967Z" fill="#E2EDEC"/>
<path d="M139.312 244.802C112.496 237.012 102.169 227.119 62.7199 224.534C23.2709 221.948 12.0834 251.179 62.7199 256.556C113.356 261.967 125.921 267.345 144.75 266.448C163.614 265.552 165.817 252.488 139.312 244.802Z" fill="#BADBD9"/>
<path d="M127.712 33.6423V104.132L138.934 95.4115V43.7763L127.712 33.6423Z" fill="#E8D6BA"/>
<path d="M127.712 33.6423H168.71C168.71 33.6423 179.76 40.2605 184.786 43.6729H139.003L127.712 33.6423Z" fill="#D3BC97"/>
<path d="M138.934 95.4114H197.625H270.052C270.052 95.4114 276.282 102.34 277.35 104.098H127.712L138.934 95.4114Z" fill="#D3BC97"/>
<path d="M197.626 95.4113V50.4977C197.626 50.4977 205.027 54.117 207.265 55.1855V95.3769H197.626V95.4113Z" fill="#D3BC97"/>
<path d="M146.437 58.736C146.951 58.736 147.367 58.3193 147.367 57.8053C147.367 57.2913 146.951 56.8746 146.437 56.8746C145.924 56.8746 145.508 57.2913 145.508 57.8053C145.508 58.3193 145.924 58.736 146.437 58.736Z" fill="#BADBD9"/>
<path d="M175.39 74.385C175.96 74.385 176.422 73.9221 176.422 73.351C176.422 72.7799 175.96 72.3169 175.39 72.3169C174.819 72.3169 174.357 72.7799 174.357 73.351C174.357 73.9221 174.819 74.385 175.39 74.385Z" fill="#BADBD9"/>
<path d="M189.744 56.9092C190.429 56.9092 190.983 56.3536 190.983 55.6683C190.983 54.9829 190.429 54.4274 189.744 54.4274C189.06 54.4274 188.505 54.9829 188.505 55.6683C188.505 56.3536 189.06 56.9092 189.744 56.9092Z" fill="#BADBD9"/>
<path d="M241.824 83.8295C242.508 83.8295 243.063 83.2739 243.063 82.5886C243.063 81.9032 242.508 81.3477 241.824 81.3477C241.139 81.3477 240.584 81.9032 240.584 82.5886C240.584 83.2739 241.139 83.8295 241.824 83.8295Z" fill="#BADBD9"/>
<path d="M267.401 124.607C267.401 124.607 251.772 120.126 234.492 120.367C217.212 120.609 193.666 122.367 181.343 130.226C169.019 138.085 164.51 138.326 158.692 149.77C152.875 161.214 139.415 181.895 151.98 188.169C164.544 194.442 208.743 188.169 225.989 182.55C243.236 176.932 267.401 124.607 267.401 124.607Z" fill="#EBF2F2"/>
<path d="M189.778 181.964C189.778 181.964 170.053 174.174 164.064 169.52C160.484 175.725 148.676 187.479 145.234 189.444C141.792 191.374 141.792 191.374 141.792 191.374L134.012 187.824C134.012 187.824 144.615 166.522 148.504 158.283C152.394 150.045 155.355 143.117 158.659 140.601C161.964 138.084 166.921 142.29 166.921 142.29L197.626 173.726L189.778 181.964Z" fill="#A89273"/>
<path d="M134.014 187.824C134.014 187.824 133.463 189.995 130.64 191.374C127.852 192.753 126.475 192.201 122.792 192.856C119.074 193.546 113.601 195.993 112.017 197.337C110.434 198.682 110.778 199.819 111.329 200.715C111.879 201.612 116.389 201.612 118.385 201.612C120.416 201.612 132.981 201.715 134.977 201.612C137.008 201.508 138.798 191.857 141.139 189.72C143.514 187.617 134.014 187.824 134.014 187.824Z" fill="#D8B498"/>
<path d="M196.455 122.918C196.455 122.918 190.5 125.158 191.74 127.399C192.979 129.639 199.691 126.503 201.722 125.158C203.753 123.814 218.865 120.781 220.999 120.988C222.066 120.988 220.104 117.747 220.104 117.747C220.104 117.747 217.316 117.989 215.939 117.747C214.631 117.541 196.455 122.918 196.455 122.918Z" fill="#273D47"/>
<path d="M187.678 179.999C187.678 179.999 176.869 179.689 163.581 182.102C150.294 184.515 140.414 185.101 135.182 192.27C129.95 199.475 134.115 202.301 140.105 204.714C146.094 207.127 148.469 209.195 157.97 209.953C167.471 210.712 176.042 210.987 182.583 210.987C189.158 210.987 195.974 210.229 195.974 210.229L200.999 179.965L187.678 179.999Z" fill="#84715B"/>
<path d="M170.431 135.947C170.431 135.947 190.397 148.046 192.875 148.356C195.354 148.667 196.008 166.418 196.008 166.418L192.221 166.97L173.598 147.77C173.598 147.77 169.227 142.255 169.227 139.67C169.227 137.085 170.431 135.947 170.431 135.947Z" fill="#273D47"/>
<path d="M185.925 105.407C186.269 107.441 187.508 111.681 187.267 113.06C187.026 114.404 186.269 115.541 186.613 116.3C186.923 117.093 189.849 116.403 190.641 116.851C191.433 117.299 192.672 118.196 193.429 120.436C194.221 122.677 194.875 124.366 196.458 124.814C198.042 125.262 200.279 124.366 202.723 122.125C205.202 119.885 208.231 118.092 209.229 117.851C210.228 117.61 203.722 116.162 200.142 113.473C196.562 110.819 185.925 105.407 185.925 105.407Z" fill="#D8B498"/>
<path d="M191.74 127.433C191.74 127.433 194.425 129.777 194.872 132.948C195.32 136.119 191.843 140.704 191.74 147.873C191.637 155.078 192.773 163.143 193.323 165.384C193.874 167.624 191.189 160.903 187.712 157.077C184.236 153.251 177.626 149.562 175.595 146.633C173.909 146.633 166.404 147.529 164.029 147.529C167.059 150.562 168.642 153.354 170.983 157.077C173.324 160.799 173.461 165.935 180.277 173.932C187.127 181.895 195.974 187.858 195.974 187.858L219.313 171.588L229.399 149.562C229.399 149.562 231.189 143.737 229.399 136.636C227.609 129.536 222.79 125.227 222.067 124.262C221.344 123.297 221 121.056 221 121.056C221 121.056 198.212 125.744 195.974 126.365C193.771 126.985 191.74 127.433 191.74 127.433Z" fill="#34515F"/>
<path d="M204.652 147.288C202.862 148.735 199.041 150.666 197.423 155.698C195.805 160.765 193.361 165.35 193.361 165.35C193.361 165.35 193.671 166.039 195.357 163.213C197.044 160.386 198.524 157.697 199.006 155.56C199.488 153.423 202.965 149.597 203.998 148.942C205.03 148.287 206.786 145.564 204.652 147.288Z" fill="#273D47"/>
<path d="M202.755 121.47C201.482 123.194 202.205 125.193 205.785 125.503C209.365 125.848 213.53 125.503 215.767 125.503C218.005 125.503 217.867 121.918 218.177 120.643C218.487 119.367 210.363 117.093 210.363 117.093C210.363 117.093 203.995 119.712 202.755 121.47Z" fill="#C59E57"/>
<path d="M188.265 108.096C185.373 107.027 180.76 105.304 179.728 102.822C178.729 100.34 178.282 97.5483 180.864 95.6181C183.445 93.7222 185.924 93.1363 185.924 93.1363C185.924 93.1363 186.268 90.103 189.745 88.7587C193.222 87.4143 194.908 86.1734 200.623 84.9325C206.337 83.6916 212.292 85.1738 213.841 88.9655C219.005 94.0325 221.793 98.5135 222.034 101.65C222.275 104.787 221.931 109.406 220.45 113.439C218.97 117.472 217.972 121.539 217.765 123.331C217.524 125.124 209.125 118.402 205.442 117.816C201.724 117.265 196.802 115.024 193.222 112.094C189.607 109.233 190.227 108.82 188.265 108.096Z" fill="#B6862D"/>
<path d="M200.932 130.225C200.932 130.225 198.247 133.845 197.627 136.533C197.007 139.222 197.662 139.67 199.933 139.67C202.205 139.67 204.753 138.429 204.649 136.189C204.546 133.948 200.932 130.225 200.932 130.225Z" fill="#B6862D"/>
<path d="M204.41 124.262C204.41 124.262 201.656 124.366 200.52 127.296C199.385 130.226 199.832 133.707 202.517 136.051C205.202 138.395 207.13 139.084 208.025 139.636C208.92 140.187 210.159 140.532 210.951 139.636C211.742 138.739 213.739 134.913 213.188 131.535C212.603 128.192 204.41 124.262 204.41 124.262Z" fill="#C59E57"/>
<path d="M206.543 124.951C206.543 124.951 205.751 126.985 207.334 128.984C208.918 131.018 210.467 133.259 211.706 134.051C212.945 134.844 214.185 131.639 214.942 129.536C215.734 127.433 216.766 126.571 216.525 124.951C216.284 123.366 206.543 124.951 206.543 124.951Z" fill="#B6862D"/>
<path d="M209.365 138.981C209.365 138.981 212.394 144.599 207.471 144.599C202.549 144.599 196.249 142.359 196.043 141.014C195.802 139.67 199.52 134.051 204.683 135.499C209.847 136.947 209.365 138.981 209.365 138.981Z" fill="#C59E57"/>
<path d="M197.626 140.877C197.626 140.877 195.87 142.91 196.008 145.84C196.146 148.77 198.969 147.736 200.518 147.495C202.067 147.253 205.543 146.047 205.199 143.91C204.855 141.773 197.626 140.877 197.626 140.877Z" fill="#B6862D"/>
<path d="M174.735 131.26L156.559 138.05L145.957 112.37L162.687 102.96L174.735 131.26Z" fill="#008C8C"/>
<path d="M167.096 150.045C167.096 150.045 167.371 147.012 165.133 143.565C163.894 141.635 162.001 141.359 161.003 138.498C160.245 136.361 158.731 132.638 158.249 131.363C157.078 128.467 156.734 126.227 157.388 125.641C158.421 124.71 158.421 128.088 159.832 130.535C161.244 132.983 161.76 133.844 161.76 133.844C161.76 133.844 160.521 131.121 159.936 128.226C159.35 125.33 159.006 122.435 160.349 123.09C161.175 123.504 161.14 125.951 161.691 128.019C162.242 130.087 164.032 132.741 164.032 132.741C164.032 132.741 162.276 127.571 162.345 126.399C162.448 125.227 162.345 122.952 162.758 122.607C163.171 122.263 164.101 123.228 164.032 125.02C163.963 126.778 165.65 129.743 166.235 131.052C166.82 132.362 167.509 132.845 169.195 133.775C170.917 134.741 170.297 135.223 170.985 137.395C171.674 139.566 171.812 144.358 174.118 146.908C176.424 149.459 175.392 149.011 175.392 149.011L167.096 150.045Z" fill="#D8B498"/>
<path d="M158.903 133.983C160.865 136.016 161.244 136.016 162.311 137.429C163.378 138.808 163.998 140.187 163.998 140.187C163.998 140.187 161.313 140.187 159.006 136.912C156.7 133.638 155.392 132.259 155.977 131.397C156.562 130.536 158.903 133.983 158.903 133.983Z" fill="#D8B498"/>
<path d="M155.459 138.498L156.56 138.05L145.958 112.37L144.925 113.094L155.459 138.498Z" fill="#4A6777"/>
<path d="M162.171 114.886L154.012 117.92L152.291 114.3L160.14 110.578L162.171 114.886Z" fill="#4A6777"/>
<path d="M192.772 220.294C192.772 220.294 191.189 216.709 191.636 211.298C192.084 205.886 194.562 198.268 195.01 195.338C195.457 192.408 195.698 188.375 197.247 186.342C198.831 184.308 202.617 181.861 204.201 180.965C205.543 177.38 206.438 175.346 206.232 174.243C205.991 173.105 204.889 172.002 208.022 170.658C211.154 169.314 214.287 169.314 215.87 170.658C217.213 166.384 220.345 156.043 225.061 152.251C229.777 148.46 243.443 138.326 246.369 135.396C249.295 132.466 251.533 130.915 256.455 128.433C261.378 125.951 271.257 120.781 281.343 128.433C291.429 136.085 300.276 139.291 298.83 168.073C297.729 189.858 285.577 212.09 269.88 226.464C254.183 240.838 242.307 241.596 228.848 244.526C215.388 247.456 209.571 248.559 203.065 248.111C196.559 247.663 192.738 244.526 192.738 244.526C192.738 244.526 197.661 243.63 199.244 242.492C194.528 242.251 193.254 241.148 191.533 240.459C195.216 240.217 197.454 238.666 197.454 238.666C197.454 238.666 193.254 237.77 191.533 237.77C196.766 235.978 198.349 235.736 198.349 235.736C198.349 235.736 191.395 235.047 189.812 232.152C188.229 229.222 189.124 226.774 189.812 225.43C190.535 224.12 192.772 220.294 192.772 220.294Z" fill="white"/>
<path d="M195.456 231.221C194.079 230.773 189.535 229.049 188.984 225.223C188.434 221.397 190.843 220.191 194.113 220.191C197.418 220.191 198.382 220.88 201.205 222.293C204.062 223.706 206.884 224.913 207.711 226.326C208.537 227.739 208.158 229.394 208.158 229.394C208.158 229.394 205.232 231.048 204.406 231.876C203.58 232.703 202.823 232.91 201.273 232.565C199.724 232.186 199.621 232.565 195.456 231.221Z" fill="#273D47"/>
<path d="M193.254 234.633C193.254 234.633 194.459 234.53 194.7 232.772C194.769 233.944 194.872 234.702 195.182 235.254C194.562 235.116 193.254 234.633 193.254 234.633Z" fill="#D5DBDB"/>
<path d="M198.382 235.805C198.382 235.805 200.688 234.392 204.44 231.91C208.192 229.429 206.678 228.05 216.695 226.499C226.712 224.948 230.912 229.153 239.724 225.258C248.536 221.363 251.703 216.709 253.493 211.47C255.283 206.231 258.726 203.818 260.206 202.646C261.686 201.474 261.101 199.337 260.206 195.304C259.311 191.271 259.896 189.479 256.626 187.204C253.321 184.963 250.189 186.618 248.846 188.548C247.504 190.478 245.542 191.099 244.647 191.237C246.437 189.444 247.779 188.582 249.741 186.307C251.669 184.032 255.869 184.377 258.278 186.307C260.688 188.238 260.103 190.03 261.135 193.753C262.168 197.51 263.958 199.13 262.478 201.991C260.998 204.852 259.621 203.473 257.383 207.368C255.146 211.263 254.079 217.709 250.051 220.984C246.024 224.293 242.134 227.705 236.144 228.188C230.154 228.636 226.712 226.257 220.309 227.154C213.872 228.05 212.84 227.464 210.155 229.084C207.401 230.773 202.444 234.668 198.382 235.805Z" fill="#D5DBDB"/>
<path d="M192.772 220.294C192.772 220.294 195.457 217.743 195.904 216.261C196.352 214.779 196.662 212.987 198.383 210.298C200.104 207.575 204.441 205.645 204.441 205.645C204.441 205.645 201.447 207.471 199.966 210.298C198.486 213.124 198.934 214.193 197.729 216.123C196.524 218.054 195.801 220.329 195.801 220.329H192.772V220.294Z" fill="#D5DBDB"/>
<path d="M204.202 180.999C204.202 180.999 205.923 180.62 208.918 178.517C211.913 176.414 216.835 174.036 218.935 173.726C221.035 173.416 222.515 173.726 222.515 173.726C222.515 173.726 218.178 173.278 217.283 172.692C216.388 172.106 215.872 170.658 215.872 170.658C215.872 170.658 214.598 168.797 211.328 169.727C208.023 170.658 205.476 171.382 205.854 172.83C206.233 174.243 206.095 176.001 205.407 177.793C204.718 179.586 204.202 180.999 204.202 180.999Z" fill="#D5DBDB"/>
<path d="M95.4221 222.087C95.4221 222.087 69.8456 220.432 39.7942 194.752C9.7427 169.073 -7.26237 125.09 2.99575 80.5898C11.5327 43.6731 38.4517 22.6467 68.0556 14.5464C103.202 4.92945 130.534 15.4426 130.534 15.4426C130.534 15.4426 92.2896 49.2916 80.6201 99.7548C68.9506 150.218 95.4221 222.087 95.4221 222.087Z" fill="#273D47"/>
<path d="M0.999023 122.056C0.999023 122.056 2.06614 129.467 2.99557 133.224C9.43271 129.95 28.5032 120.574 39.6219 118.127C55.6975 114.645 78.3135 116.472 78.3135 116.472L79.6905 104.098C79.6905 104.098 59.7594 101.926 41.7561 106.166C23.7528 110.405 9.29502 115.99 0.999023 122.056Z" fill="#172D36"/>
<path d="M2.65383 82.1063C2.65383 82.1063 1.07036 89.2759 0.760554 93.0676C0.450745 96.8247 26.4747 86.7941 42.4815 84.3813C58.4883 81.9684 85.304 84.0021 85.304 84.0021L90.3986 71.4208C90.3986 71.4208 74.5983 67.8705 42.929 72.2481C11.2252 76.5912 2.65383 82.1063 2.65383 82.1063Z" fill="#172D36"/>
<path d="M56.7656 207.265C56.7656 207.265 61.6882 203.059 70.7415 199.75C79.5538 196.51 87.1614 194.752 87.1614 194.752L87.9875 197.889C87.9875 197.889 79.3129 199.957 72.3938 202.99C64.6486 206.368 60.2079 209.298 60.2079 209.298L56.7656 207.265Z" fill="#776554"/>
<path d="M33.3571 188.789C33.3571 188.789 41.3433 181.24 53.7012 175.829C68.159 169.521 81.6184 169.521 81.6184 169.521L80.7579 165.04C80.7579 165.04 66.7132 165.488 52.5997 171.141C40.9646 175.76 29.9492 185.204 29.9492 185.204L33.3571 188.789Z" fill="#776554"/>
<path d="M22.5484 41.984C22.5484 41.984 15.5949 49.6017 11.0166 58.7017C24.6826 56.5301 36.4898 52.9108 50.3968 52.3248C64.3037 51.7388 98.3483 56.1509 98.3483 56.1509L107.815 43.8453C107.815 43.8453 88.7442 35.8829 72.049 35.2625C55.3537 34.6765 22.5484 41.984 22.5484 41.984Z" fill="#172D36"/>
<path d="M10.1223 154.63C10.1223 154.63 24.3046 145.84 41.5851 141.256C58.8655 136.671 77.9016 138.119 77.9016 138.119L77.695 132.914C77.695 132.914 60.9998 131.708 42.4801 135.672C24.7521 139.498 8.229 150.046 8.229 150.046C8.229 150.046 9.53709 153.32 10.1223 154.63Z" fill="#776554"/>
<path d="M0.999501 122.056C0.999501 122.056 14.6655 113.163 36.421 107.545C58.1765 101.926 79.691 104.098 79.691 104.098L80.586 99.7548C80.586 99.7548 58.8305 96.9628 36.18 103.029C13.5295 109.096 0.379883 116.507 0.379883 116.507L0.999501 122.056Z" fill="#776554"/>
<path d="M2.65381 82.1064C6.37152 80.7966 24.065 73.8682 50.089 71.3864C73.4968 69.1804 90.3642 71.3864 90.3642 71.3864L93.0147 66.1816C93.0147 66.1816 70.4331 63.2861 48.6776 65.5956C23.17 68.2842 4.23728 75.6606 4.23728 75.6606C4.23728 75.6606 3.47997 78.4182 2.65381 82.1064Z" fill="#776554"/>
<path d="M22.5483 41.9837C27.2643 40.8462 44.8202 36.8477 66.9199 37.675C90.0867 38.5367 106.197 43.6727 106.197 43.6727L109.777 38.6401C109.777 38.6401 87.0574 32.8493 66.851 32.4012C46.679 31.9531 29.3297 35.1243 29.3297 35.1243C29.3297 35.1243 25.1989 38.8814 22.5483 41.9837Z" fill="#776554"/>
<path d="M39.797 194.752C39.797 194.752 52.2926 187.307 60.4165 183.584C68.5404 179.861 83.067 178.414 83.3424 178.379C82.9981 177.104 81.6212 169.521 81.6212 169.521C81.6212 169.521 72.3614 168.935 53.704 175.829C41.828 180.206 33.3599 188.789 33.3599 188.789L39.797 194.752Z" fill="#172D36"/>
<path d="M10.1211 154.63C10.1211 154.63 12.2209 159.456 15.7321 165.626C23.4085 160.145 34.2173 155.457 43.0641 152.838C51.9109 150.252 80.0691 147.874 80.0691 147.874V138.119C80.0691 138.119 64.0279 135.396 44.1312 140.636C24.2346 145.875 10.1211 154.63 10.1211 154.63Z" fill="#172D36"/>
<path d="M74.4935 91.0337L80.5176 81.072C80.793 80.6584 81.3437 80.5205 81.7568 80.7618L84.9582 82.6921C85.3713 82.9678 85.509 83.5193 85.268 83.933L76.2147 98.8927C75.9393 99.3063 75.3885 99.4442 74.9754 99.2029L71.7741 97.2726C71.361 96.9969 71.2233 96.4454 71.4643 96.0317L74.4935 91.0337Z" fill="#34515F"/>
<path d="M56.7673 207.23L59.6588 205.231C60.1063 204.989 60.244 204.438 60.003 203.99L51.1219 184.756C50.8809 184.308 50.3301 184.17 49.8826 184.411L45.0978 186.996C44.6503 187.238 44.5126 187.789 44.7536 188.237L55.1149 206.161C55.6657 206.575 56.2165 206.92 56.7673 207.23Z" fill="#34515F"/>
<path d="M44.2 188.513C43.959 188.065 43.4083 187.927 42.9608 188.169L38.7267 190.754C38.2792 190.995 38.1415 191.547 38.3825 191.995L40.5855 195.476C45.2671 199.44 49.8454 202.784 54.2171 205.645L44.2 188.513Z" fill="#34515F"/>
<path d="M65.1987 202.025L61.5843 203.955C61.1368 204.197 60.586 204.024 60.345 203.576L51.4983 184.446C51.2573 183.998 51.4294 183.446 51.8769 183.205L56.765 181.068C57.2125 180.826 57.7633 180.999 58.0043 181.447L65.5774 200.784C65.8183 201.267 65.6118 201.818 65.1987 202.025Z" fill="#34515F"/>
<path d="M72.8781 198.992L67.2327 201.198C66.7507 201.37 66.2344 201.163 66.0623 200.681L59.8661 184.756C59.694 184.274 59.9005 183.756 60.3824 183.584L66.613 181.24C67.095 181.068 67.6113 181.275 67.7834 181.757L73.36 197.82C73.5665 198.268 73.3256 198.82 72.8781 198.992Z" fill="#46759B"/>
<path d="M77.5579 197.441L74.8385 198.337C74.5286 198.441 74.1844 198.268 74.0811 197.958L66.4392 176.07C66.3359 175.76 66.5081 175.415 66.8179 175.312L69.9504 174.312C70.2602 174.209 70.6044 174.381 70.7077 174.691L77.9365 196.717C78.0398 197.027 77.8677 197.338 77.5579 197.441Z" fill="#008C8C"/>
<path d="M81.6186 196.2H78.5205C78.2451 196.2 78.0386 195.993 78.0386 195.717V172.347C78.0386 172.071 78.2451 171.864 78.5205 171.864H81.6186C81.8939 171.864 82.1005 172.071 82.1005 172.347V195.717C82.1005 195.993 81.8939 196.2 81.6186 196.2Z" fill="#B6862D"/>
<path d="M34.8385 181.206C35.2515 180.895 35.3548 180.344 35.045 179.93L19.8988 155.457C19.589 155.043 19.0382 154.94 18.6251 155.25L12.3945 159.352C17.1105 168.831 23.0657 177.552 29.9848 185.17L34.8385 181.206Z" fill="#B6862D"/>
<path d="M43.8921 175.38L36.8698 179.93C36.4567 180.206 35.8715 180.068 35.6306 179.655L20.7253 155.561C20.4499 155.147 20.5876 154.561 21.0007 154.32L30.2261 149.149C30.6392 148.874 31.2244 149.011 31.4653 149.425L44.1331 174.105C44.4429 174.553 44.3052 175.105 43.8921 175.38Z" fill="#DA3510"/>
<path d="M50.5698 171.899L45.8194 174.312C45.3719 174.519 44.8212 174.312 44.6146 173.864L34.6663 154.147C34.4598 153.699 34.6663 153.148 35.1138 152.941L42.1706 149.839C42.6181 149.632 43.1688 149.839 43.3754 150.287L51.0518 170.693C51.2239 171.141 51.0173 171.692 50.5698 171.899Z" fill="#5F9B7E"/>
<path d="M58.8667 168.969L52.7049 171.003C52.223 171.175 51.7066 170.9 51.569 170.417L43.927 150.114C43.7549 149.632 44.0303 149.115 44.5122 148.977L52.3607 146.392C52.8426 146.219 53.359 146.495 53.4967 146.978L59.4519 167.832C59.5896 168.314 59.3486 168.831 58.8667 168.969Z" fill="#5F9B7E"/>
<path d="M79.9676 157.801L80.7249 163.833C80.7938 164.316 80.4496 164.798 79.9332 164.867L61.4135 167.797C60.9316 167.866 60.4496 167.521 60.3808 167.004L58.935 161.076C58.8662 160.593 59.2104 160.11 59.7268 160.042L78.9349 157.008C79.4513 156.974 79.8988 157.318 79.9676 157.801Z" fill="#C59E57"/>
<path d="M77.9367 148.977C77.9367 148.977 77.1105 150.424 77.4892 152.975C77.9023 155.56 79.1415 156.767 79.1415 156.767L62.2053 159.421C60.7251 159.662 59.3482 158.628 59.1416 157.18L58.763 154.733C58.522 153.251 59.5547 151.872 61.0005 151.665L77.9367 148.977Z" fill="#F7F5ED"/>
<path d="M61.7907 159.697C60.3449 159.697 59.1056 158.663 58.8647 157.181L58.486 154.733C58.3483 153.94 58.5549 153.182 59.0024 152.527C59.4843 151.872 60.1383 151.459 60.9301 151.355L77.8663 148.701C78.004 148.667 78.1417 148.77 78.1761 148.908C78.2105 149.046 78.1073 149.184 77.9696 149.218L61.0333 151.872C60.3793 151.976 59.8285 152.32 59.4499 152.837C59.0712 153.354 58.8991 154.009 59.0024 154.664L59.381 157.112C59.5876 158.456 60.8268 159.352 62.1693 159.145L79.1055 156.491C79.2432 156.457 79.3809 156.56 79.4153 156.698C79.4498 156.836 79.3465 156.974 79.2088 157.008L62.2726 159.662C62.1005 159.697 61.9283 159.697 61.7907 159.697Z" fill="#DA3510"/>
<path d="M76.3876 132.776L70.4324 132.742C69.9849 132.707 69.6406 132.294 69.675 131.777L69.6406 110.164C69.675 109.647 70.0537 109.268 70.5012 109.303L77.6957 109.613C78.1432 109.647 78.4874 110.061 78.453 110.578L77.2826 131.915C77.2137 132.432 76.8351 132.811 76.3876 132.776Z" fill="#DA3510"/>
<path d="M68.2308 132.776L62.0002 132.983C61.4839 132.983 61.1052 132.569 61.1052 132.087L60.7954 110.474C60.7954 109.957 61.2085 109.578 61.6904 109.578L68.2997 109.544C68.816 109.544 69.1947 109.957 69.1947 110.44L69.1602 131.845C69.1258 132.362 68.7127 132.776 68.2308 132.776Z" fill="#93343D"/>
<path d="M59.691 133.19L53.9423 133.776C53.426 133.81 53.0129 133.431 52.9785 132.914L51.154 111.129C51.1196 110.612 51.4983 110.199 52.0146 110.164L59.2779 109.854C59.7943 109.819 60.2074 110.199 60.2418 110.716L60.5172 132.225C60.586 132.742 60.2074 133.155 59.691 133.19Z" fill="#DA3510"/>
<path d="M51.9457 129.329L52.4276 133.052C52.4964 133.535 52.1522 134.017 51.6359 134.086L35.4225 137.602C34.9406 137.671 34.4587 137.326 34.3898 136.809L33.3916 132.742C33.3227 132.259 33.6669 131.777 34.1833 131.708L50.913 128.502C51.3949 128.468 51.8768 128.847 51.9457 129.329Z" fill="#34515F"/>
<path d="M51.3282 123.78L51.5692 127.192C51.638 127.675 51.2938 128.157 50.7775 128.226L33.9101 131.432C33.4282 131.501 32.9462 131.156 32.8774 130.639L31.9824 127.227C31.9135 126.744 32.2578 126.262 32.7741 126.193L50.3299 122.987C50.8119 122.918 51.2938 123.263 51.3282 123.78Z" fill="#34515F"/>
<path d="M31.0527 139.015H28.7807C28.2644 139.015 27.8857 138.602 27.8857 138.119V115.576C27.8857 115.059 28.2988 114.68 28.7807 114.68H31.0527C31.569 114.68 31.9477 115.094 31.9477 115.576V138.119C31.9477 138.602 31.569 139.015 31.0527 139.015Z" fill="#46759B"/>
<path d="M27.0927 140.532L19.1754 144.082C18.7279 144.289 18.246 143.91 18.0394 143.462L8.29766 123.194C8.09112 122.746 8.29766 122.194 8.74516 121.987L17.1789 118.23C17.6264 118.023 18.1771 118.23 18.3837 118.678L27.5747 139.325C27.7812 139.808 27.5747 140.325 27.0927 140.532Z" fill="#46759B"/>
<path d="M17.178 145.151L13.2538 147.184C12.8063 147.391 12.2555 147.219 12.049 146.771L2.89238 127.606C2.68584 127.158 2.85796 126.606 3.30546 126.399L7.29855 124.504C7.74605 124.297 8.29682 124.469 8.50336 124.917L17.5911 143.944C17.8321 144.392 17.6599 144.944 17.178 145.151Z" fill="#008C8C"/>
<path d="M0.418071 116.506L9.67791 112.094C10.1254 111.887 10.332 111.336 10.1254 110.888L2.07038 90.0683C1.93269 89.7581 1.62288 89.5513 1.31307 89.5513C-0.0638545 98.6512 -0.33924 107.682 0.418071 116.506Z" fill="#34515F"/>
<path d="M20.483 107.889L11.8772 111.267C11.3952 111.44 10.9133 111.13 10.7412 110.681L2.4452 89.724C2.27309 89.2414 2.47963 88.7244 2.96155 88.552L11.5674 85.174C12.0493 85.0017 12.5656 85.2085 12.7377 85.6911L20.9993 106.717C21.2059 107.166 20.9649 107.717 20.483 107.889Z" fill="#34515F"/>
<path d="M55.7669 99.5133L48.5724 100.375C48.0905 100.444 47.6086 100.099 47.5397 99.5822L45.5776 78.3835C45.5088 77.9009 45.853 77.4184 46.3693 77.3494L54.6653 76.729C55.1472 76.66 55.6292 77.0047 55.698 77.5218L56.593 98.4792C56.6274 98.9962 56.2832 99.4443 55.7669 99.5133Z" fill="#008C8C"/>
<path d="M60.3796 99.3756L58.1076 99.4445C57.5913 99.4445 57.1782 99.0654 57.1782 98.5483L56.2832 76.0053C56.2832 75.4883 56.6619 75.0747 57.1782 75.0747L60.0009 74.8334C60.5173 74.8334 60.9303 75.2125 60.9303 75.7296L61.2746 98.4104C61.2746 98.9275 60.8615 99.3411 60.3796 99.3756Z" fill="#46759B"/>
<path d="M65.0615 99.1341L62.7895 99.2375C62.2732 99.2375 61.8945 98.8239 61.8945 98.3413L61.5503 75.6949C61.5503 75.1779 61.9634 74.7987 62.4453 74.7987H65.268C65.7843 74.7987 66.163 75.2123 66.163 75.6949L65.9565 98.2724C65.9909 98.7205 65.5778 99.1341 65.0615 99.1341Z" fill="#46759B"/>
<path d="M69.7084 99.1685L67.4365 99.0996C66.9202 99.0996 66.5415 98.6859 66.5415 98.1689L66.7825 75.6604C66.7825 75.1433 67.1955 74.7642 67.7119 74.7642L70.3281 74.7986C70.8444 74.7986 71.2231 75.2123 71.2231 75.7293L70.6723 98.2723C70.6034 98.7893 70.1904 99.1685 69.7084 99.1685Z" fill="#46759B"/>
<path d="M89.8119 65.9056L83.1338 65.2162C82.6518 65.1473 82.3076 64.6647 82.3764 64.1822L84.7861 42.949C84.8549 42.4664 85.3368 42.1217 85.8188 42.1907L93.2542 43.2592C93.7361 43.3282 94.0804 43.8107 94.0115 44.2933L90.8446 65.1473C90.7757 65.6644 90.3282 65.9746 89.8119 65.9056Z" fill="#93343D"/>
<path d="M73.5663 64.8026L69.3667 64.7337C68.8503 64.6992 68.4717 64.2856 68.5061 63.7686L68.8503 47.7058C68.8847 47.1888 69.2978 46.8096 69.8142 46.8441L74.7367 47.0164C75.253 47.0509 75.6317 47.4645 75.5973 47.9816L74.4957 63.9754C74.4957 64.4579 74.0482 64.8371 73.5663 64.8026Z" fill="#C59E57"/>
<path d="M80.4145 65.0781L76.0083 64.8368C75.4919 64.8023 75.1133 64.3887 75.1477 63.8716L76.2148 47.8778C76.2492 47.3608 76.6623 46.9816 77.1787 47.0161L82.2045 47.3953C82.7208 47.4297 83.0995 47.8434 83.0651 48.3604L81.3783 64.2163C81.3439 64.7334 80.9308 65.1125 80.4145 65.0781Z" fill="#C59E57"/>
<path d="M65.7169 64.6646L56.4914 64.9404C55.9751 64.9404 55.562 64.5612 55.562 64.0442L54.8735 41.708C54.8735 41.191 55.2522 40.7773 55.7685 40.7773L64.994 40.5016C65.5103 40.5016 65.9234 40.8807 65.9234 41.3978L66.6119 63.734C66.6119 64.251 66.2332 64.6646 65.7169 64.6646Z" fill="#DA3510"/>
<path d="M54.048 65.2164L45.5454 65.9747C45.0635 66.0436 44.5816 65.6645 44.5471 65.1819L42.4817 42.6734C42.4129 42.1908 42.7915 41.7082 43.2735 41.6738L53.0497 41.1223C53.5316 41.0533 54.0135 41.4325 54.048 41.915L54.8397 64.2512C54.9085 64.6993 54.5643 65.1474 54.048 65.2164Z" fill="#DA3510"/>
<path d="M19.4504 70.49C19.5192 70.7658 19.7946 70.9036 20.07 70.8347L23.65 69.904C23.9254 69.8351 24.0631 69.5593 23.9942 69.2836L18.6586 46.7406C17.2817 48.533 15.9736 50.4288 14.7344 52.3591L19.4504 70.49Z" fill="#34515F"/>
<path d="M38.3836 66.9741L35.5264 66.5605C35.1822 66.526 34.9757 66.1813 35.0101 65.8711L38.4524 43.0178C38.4868 42.6731 38.8311 42.4663 39.1409 42.5008L41.998 42.9144C42.3422 42.9489 42.5488 43.2936 42.5143 43.6038L39.072 66.4571C39.0376 66.8017 38.7278 67.043 38.3836 66.9741Z" fill="#008C8C"/>
<path d="M7.71484 65.8368C9.36716 61.8039 11.2949 58.0123 13.4291 54.4619L7.71484 65.8368Z" fill="#46759B"/>
<path d="M7.71484 65.8368L9.74581 72.7307C9.88351 73.2133 10.3999 73.489 10.8818 73.3512L17.0091 71.5587C17.491 71.4209 17.7664 70.9038 17.6287 70.4213L13.4291 54.4619" fill="#46759B"/>
<path d="M60.8615 188.789L62.1695 192.098L56.2832 194.752L54.7686 191.512L60.8615 188.789Z" fill="#4A6777"/>
<path d="M62.4115 192.719L64.6146 198.406L59.1413 200.957L56.5596 195.373L62.4115 192.719Z" fill="#254147"/>
<path d="M54.3571 191.823L55.8717 195.097L50.3296 197.924L48.5396 194.787L54.3571 191.823Z" fill="#4A6777"/>
<path d="M56.1461 195.683L58.7279 201.233L53.7709 203.852L50.6729 198.509L56.1461 195.683Z" fill="#254147"/>
<path d="M77.5591 143.565C77.5591 143.565 76.6297 144.53 76.8706 146.15C77.1116 147.77 78.3164 148.46 78.3164 148.46L60.795 151.183C59.2804 151.424 57.9379 150.873 57.7658 149.942L57.5248 148.391C57.3871 147.46 58.4886 146.529 60.0377 146.288L77.5591 143.565Z" fill="#F7F5ED"/>
<path d="M59.4876 151.596C58.9368 151.596 58.4205 151.493 58.0762 151.217C57.732 150.942 57.5599 150.528 57.5255 149.976L57.2845 148.46C57.1812 147.977 57.2845 147.564 57.5255 147.219C57.9385 146.667 58.7647 146.254 60.0039 146.081L77.5253 143.358C77.663 143.324 77.8007 143.427 77.8351 143.565C77.8696 143.703 77.7663 143.841 77.6286 143.875L60.1072 146.598C59.0057 146.771 58.2828 147.081 57.973 147.529C57.8009 147.77 57.7664 148.046 57.8353 148.391L58.0762 149.942C58.1107 150.356 58.2139 150.631 58.4205 150.804C58.9024 151.183 59.8318 151.114 60.7957 150.942L78.3171 148.218C78.4548 148.184 78.5924 148.287 78.6269 148.425C78.6613 148.563 78.558 148.701 78.4203 148.736L60.8989 151.459C60.3826 151.528 59.9351 151.596 59.4876 151.596Z" fill="#008C8C"/>
<path d="M59.4529 167.831L55.3221 153.423L46.2344 156.388L51.5356 170.417C51.7077 170.899 52.1896 171.141 52.6715 171.003L58.8333 168.969C59.3496 168.831 59.5906 168.314 59.4529 167.831Z" fill="#008C8C"/>
<path d="M51.0178 170.692L45.7855 156.801L37.6616 160.179L44.5463 173.829C44.7528 174.277 45.3036 174.484 45.7511 174.277L50.5015 171.864C51.0178 171.692 51.2244 171.141 51.0178 170.692Z" fill="#008C8C"/>
<path d="M11.1168 148.391C11.5643 148.184 11.7708 147.632 11.5299 147.184L2.40771 128.054C2.30444 127.813 2.0979 127.64 1.85693 127.571C3.26829 135.327 5.40253 142.876 8.25965 150.045L11.1168 148.391Z" fill="#008C8C"/>
<path d="M14.8386 136.775L13.9092 134.914L23.6509 130.536L24.546 132.501L14.8386 136.775Z" fill="#008C8C"/>
<path d="M25.1329 133.845L27.5769 139.325C27.7835 139.773 27.5769 140.325 27.1294 140.532L19.1777 144.082C18.7302 144.289 18.2482 143.91 18.0417 143.462L15.5288 138.222L25.1329 133.845Z" fill="#5F9B7E"/>
<path d="M41.9989 90.4822C41.9989 90.4822 41.2416 92.4469 42.171 95.756C43.1005 99.0651 44.7872 100.478 44.7872 100.478L24.8561 106.097C23.135 106.579 21.3106 105.442 20.7598 103.581L19.8648 100.444C19.3484 98.548 20.3123 96.6177 22.0334 96.1352L41.9989 90.4822Z" fill="#F7F5ED"/>
<path d="M24.0651 106.442C23.4455 106.442 22.8259 106.269 22.2407 105.925C21.4145 105.408 20.7949 104.58 20.5195 103.615L19.6245 100.478C19.0737 98.4447 20.1064 96.3765 21.9653 95.8595L41.8963 90.241C42.034 90.2065 42.1717 90.2754 42.2061 90.4133C42.2405 90.5512 42.1717 90.6891 42.034 90.7235L22.103 96.3421C20.5195 96.7902 19.6245 98.5826 20.1064 100.306L21.0014 103.443C21.2424 104.304 21.7587 104.994 22.4816 105.442C23.2045 105.89 23.9962 105.993 24.788 105.787L44.719 100.168C44.8567 100.134 44.9944 100.203 45.0288 100.341C45.0632 100.478 44.9944 100.616 44.8567 100.651L24.9257 106.269C24.6847 106.407 24.3749 106.442 24.0651 106.442Z" fill="#DA3510"/>
<path d="M38.4879 80.2449C38.4879 80.2449 37.7306 82.2096 38.6601 85.5187C39.5895 88.8278 41.2762 90.241 41.2762 90.241L21.3796 95.8251C19.6584 96.3077 17.834 95.1702 17.2832 93.3088L16.3882 90.1721C15.8719 88.2763 16.8357 86.346 18.5569 85.8634L38.4879 80.2449Z" fill="#F7F5ED"/>
<path d="M20.5513 96.2043C19.9317 96.2043 19.3121 96.0319 18.7269 95.6872C17.9007 95.1702 17.2811 94.3429 17.0057 93.3778L16.1107 90.2411C15.8353 89.2759 15.9386 88.2418 16.3517 87.3801C16.7992 86.5184 17.5221 85.8635 18.4515 85.6222L38.3826 80.0037C38.5202 79.9692 38.6579 80.0381 38.6924 80.176C38.7268 80.3139 38.6579 80.4518 38.5202 80.4862L18.5892 86.1047C17.8319 86.3116 17.1778 86.8631 16.7992 87.5869C16.4205 88.3453 16.3517 89.207 16.5927 90.0687L17.4877 93.2054C17.7286 94.0672 18.245 94.7566 18.9679 95.2047C19.6907 95.6528 20.4825 95.7562 21.2742 95.5494L41.2053 89.9308C41.3429 89.8964 41.4806 89.9653 41.5151 90.1032C41.5495 90.2411 41.4806 90.3789 41.343 90.4134L21.4119 96.0319C21.1709 96.1698 20.8611 96.2043 20.5513 96.2043Z" fill="#46759B"/>
<path d="M28.6755 68.7663L25.1644 69.5591C24.8546 69.6281 24.5792 69.4557 24.5103 69.1455L19.1059 46.5336C19.037 46.2233 19.2092 45.9476 19.519 45.8787L23.5809 45.0169C23.8907 44.948 24.1661 45.1203 24.2349 45.4306L29.0886 68.1459C29.1575 68.3872 28.9853 68.6974 28.6755 68.7663Z" fill="#34515F"/>
<path d="M33.7366 67.7327L30.191 68.4565C29.8812 68.5255 29.6058 68.3186 29.5369 68.0429L24.6833 45.2586C24.6144 44.9484 24.821 44.6726 25.0963 44.6037L28.8829 43.8798C29.1927 43.8109 29.4681 44.0177 29.5369 44.2934L34.1497 67.0777C34.2529 67.388 34.0464 67.6637 33.7366 67.7327Z" fill="#34515F"/>
<path d="M67.0618 184.313L62.2632 186.027L63.8246 190.41L68.6233 188.696L67.0618 184.313Z" fill="#C59E57"/>
<path d="M60.2419 185.687L68.1593 182.757L67.9183 182.068L60.001 185.066L60.2419 185.687Z" fill="#C59E57"/>
<path d="M62.9631 192.788L70.6739 189.927L70.3986 189.237L62.7222 192.167L62.9631 192.788Z" fill="#C59E57"/>
<path d="M81.3788 177.069H78.7627V180.275H81.3788V177.069Z" fill="#C59E57"/>
<path d="M64.9946 161.261L62.3604 161.781L63.1389 165.737L65.7731 165.218L64.9946 161.261Z" fill="#5F7077"/>
<path d="M77.3837 159.23L74.7212 159.577L75.242 163.576L77.9044 163.229L77.3837 159.23Z" fill="#5F7077"/>
<path d="M29.4181 153.348L25.2148 155.778L36.0926 174.644L40.2958 172.214L29.4181 153.348Z" fill="#BF3246"/>
<path d="M76.369 113.735L71.2759 113.618L71.1692 118.27L76.2623 118.387L76.369 113.735Z" fill="#93343D"/>
<path d="M69.5044 112.612L77.9725 112.715V111.957L69.5044 111.922V112.612Z" fill="#93343D"/>
<path d="M69.5356 120.229L77.7284 120.298L77.7628 119.54H69.5356V120.229Z" fill="#93343D"/>
<path d="M67.5795 113.618L62.4849 113.605L62.4736 118.259L67.5683 118.271L67.5795 113.618Z" fill="#DA3510"/>
<path d="M60.6897 112.612L69.1234 112.543L69.1578 111.819L60.6553 111.922L60.6897 112.612Z" fill="#DA3510"/>
<path d="M60.8606 120.229L69.0533 120.126V119.402L60.8262 119.54L60.8606 120.229Z" fill="#DA3510"/>
<path d="M58.4348 113.828L53.3438 114.022L53.5203 118.672L58.6114 118.478L58.4348 113.828Z" fill="#93343D"/>
<path d="M51.5017 113.094L59.9354 112.681V111.922L51.4673 112.405L51.5017 113.094Z" fill="#93343D"/>
<path d="M51.9802 120.678L60.173 120.264L60.1385 119.506L51.9458 119.988L51.9802 120.678Z" fill="#93343D"/>
<path d="M10.5052 88.7654L6.00977 90.5972L12.6785 107.007L17.1739 105.175L10.5052 88.7654Z" fill="#93343D"/>
<path d="M32.0278 61.815L29.4663 62.347L30.2074 65.9244L32.7689 65.3924L32.0278 61.815Z" fill="#4A6777"/>
<path d="M26.9004 62.8827L24.3389 63.4148L25.0799 66.9922L27.6414 66.4601L26.9004 62.8827Z" fill="#4A6777"/>
<path d="M21.7222 64.3122L19.1963 64.9946L20.1468 68.5223L22.6727 67.8399L21.7222 64.3122Z" fill="#4A6777"/>
<path d="M5.99293 110.474L0.450798 96.8241C0.106566 100.823 -0.031127 104.787 0.0377194 108.716L1.51792 112.335L5.99293 110.474Z" fill="#93343D"/>
<path d="M98.7266 222.948L95.422 222.087C95.422 222.087 68.9505 150.218 80.62 99.7546C92.2895 49.2913 130.534 15.4424 130.534 15.4424L133.322 16.3386C133.322 16.3386 86.9539 60.8041 82.0313 111.578C76.9023 164.833 98.7266 222.948 98.7266 222.948Z" fill="#A89273"/>
</g>
<defs>
<clipPath id="clip0">
<rect width="299" height="267" fill="white"/>
</clipPath>
</defs>
</svg>
